<svg width="78" height="78" viewBox="0 0 78 78" fill="none" xmlns="http://www.w3.org/2000/svg">
<rect x="0.769531" y="0.848633" width="77.0713" height="77.0713" rx="5" fill="#FFF0E3"/>
<g clip-path="url(#clip0_22_9168)">
<path d="M44.4297 46.458H43.7461C43.7461 49.0965 41.5995 51.2432 38.9609 51.2432C36.3224 51.2432 34.1758 49.0965 34.1758 46.458H33.4922C29.1575 46.458 25.6309 49.9846 25.6309 54.3193V55.8232C25.6309 56.3895 26.09 56.8486 26.6562 56.8486H51.2656C51.8319 56.8486 52.291 56.3895 52.291 55.8232V54.3193C52.291 49.9846 48.7644 46.458 44.4297 46.458Z" fill="#F2994A"/>
<path d="M36.2266 45.4326V46.458C36.2266 47.9681 37.4508 49.1924 38.9609 49.1924C40.4711 49.1924 41.6953 47.9681 41.6953 46.458V45.4326H36.2266Z" fill="#F2994A"/>
<path d="M38.9609 25.9502C39.5272 25.9502 39.9863 25.4911 39.9863 24.9248V22.874C39.9863 22.3077 39.5272 21.8486 38.9609 21.8486C38.3946 21.8486 37.9355 22.3077 37.9355 22.874V24.9248C37.9355 25.4911 38.3946 25.9502 38.9609 25.9502Z" fill="#F2994A"/>
<path d="M31.2372 25.2184L32.2625 26.9944C32.5457 27.4849 33.1728 27.6529 33.6632 27.3697C34.1536 27.0866 34.3217 26.4595 34.0385 25.9691L33.0131 24.193C32.73 23.7026 32.1029 23.5346 31.6124 23.8177C31.122 24.1009 30.954 24.728 31.2372 25.2184Z" fill="#F2994A"/>
<path d="M26.6085 30.598L28.3846 31.6234C28.875 31.9065 29.5021 31.7385 29.7853 31.2481C30.0684 30.7577 29.9004 30.1305 29.41 29.8474L27.6339 28.822C27.1435 28.5388 26.5164 28.7069 26.2332 29.1973C25.9501 29.6877 26.1181 30.3148 26.6085 30.598Z" fill="#F2994A"/>
<path d="M50.2889 28.822L48.5128 29.8474C48.0224 30.1305 47.8544 30.7577 48.1375 31.2481C48.4207 31.7385 49.0478 31.9065 49.5382 31.6234L51.3143 30.598C51.8047 30.3148 51.9727 29.6877 51.6896 29.1973C51.4064 28.7069 50.7793 28.5388 50.2889 28.822Z" fill="#F2994A"/>
<path d="M44.2589 27.3697C44.7493 27.6529 45.3765 27.4849 45.6596 26.9944L46.685 25.2184C46.9681 24.728 46.8001 24.1009 46.3097 23.8177C45.8193 23.5346 45.1922 23.7026 44.909 24.193L43.8836 25.9691C43.6005 26.4595 43.7685 27.0866 44.2589 27.3697Z" fill="#F2994A"/>
<path d="M38.9609 28.001C34.808 28.001 31.4414 31.3676 31.4414 35.5205C31.4414 38.1929 32.8377 40.535 34.939 41.8671C35.5024 42.2243 35.9121 42.7634 36.1041 43.3818H37.9355V37.996L36.1851 36.2456C35.7846 35.8451 35.7846 35.1959 36.1851 34.7955C36.5855 34.395 37.2347 34.395 37.6352 34.7955L38.9609 36.1212L40.2866 34.7955C40.6871 34.395 41.3363 34.395 41.7367 34.7955C42.1372 35.1959 42.1372 35.8451 41.7367 36.2456L39.9863 37.996V43.3818H41.8177C42.0098 42.7634 42.4195 42.2243 42.9829 41.8671C45.0842 40.535 46.4805 38.1929 46.4805 35.5205C46.4805 31.3676 43.1138 28.001 38.9609 28.001Z" fill="#F2994A"/>
</g>
<defs>
<clipPath id="clip0_22_9168">
<rect width="35" height="35" fill="white" transform="translate(21.4609 21.8486)"/>
</clipPath>
</defs>
</svg>
