<svg width="78" height="78" viewBox="0 0 78 78" fill="none" xmlns="http://www.w3.org/2000/svg">
<rect opacity="0.1" x="0.769531" y="0.848633" width="77.0713" height="77.0713" rx="5" fill="#EB5757"/>
<g clip-path="url(#clip0_22_9103)">
<path d="M45.6135 39.3843C45.6135 38.2443 45.5727 37.1426 45.4964 36.0844C44.2446 35.8443 43.2311 34.9253 42.8566 33.7263H33.3493C33.1226 35.4729 32.9951 37.3685 32.9951 39.3843C32.9951 40.6208 33.0434 41.8119 33.1327 42.9516C34.3751 43.1976 35.3795 44.1134 35.7519 45.3059H45.2245C45.4731 43.4871 45.6135 41.5018 45.6135 39.3843Z" fill="#EB5757"/>
<path d="M46.5109 29.2745C47.8931 29.4203 49.0344 30.3863 49.4371 31.6756H55.0125C52.7664 27.1173 48.5941 23.6722 43.5645 22.4095C44.2589 23.3405 44.8919 24.5115 45.4445 25.9074C45.8537 26.941 46.2101 28.0704 46.5109 29.2745Z" fill="#EB5757"/>
<path d="M31.0942 43.1695C30.9955 41.9357 30.9447 40.6693 30.9447 39.3843C30.9447 37.4393 31.061 35.537 31.2844 33.7263H22.7437C22.1355 35.502 21.8047 37.4051 21.8047 39.3843C21.8047 41.4618 22.1694 43.4556 22.8368 45.3059H29.1725C29.4721 44.3462 30.1813 43.566 31.0942 43.1695Z" fill="#EB5757"/>
<path d="M32.1675 49.7636C30.7545 49.6432 29.5818 48.6673 29.1724 47.3567H23.7285C26.0039 51.7843 30.1125 55.1207 35.045 56.3589C34.3505 55.428 33.7176 54.257 33.1649 52.8611C32.7865 51.9052 32.4534 50.8668 32.1675 49.7636Z" fill="#EB5757"/>
<path d="M33.6729 31.6755H42.8568C43.1251 30.8165 43.7213 30.101 44.4982 29.6759C43.2708 24.8382 41.2176 21.8843 39.3044 21.8843C37.1403 21.8843 34.7973 25.6648 33.6729 31.6755Z" fill="#EB5757"/>
<path d="M29.6334 25.4903C29.6334 27.3903 28.0876 28.9361 26.1876 28.9361C25.8996 28.9361 25.62 28.9 25.3525 28.8332C24.6811 29.7189 24.0921 30.6701 23.5967 31.6756H31.5899C31.9634 29.5563 32.4933 27.6033 33.1647 25.9075C33.7174 24.5116 34.3503 23.3406 35.0448 22.4097C33.0664 22.9063 31.2205 23.7402 29.5723 24.8472C29.6118 25.0557 29.6334 25.2704 29.6334 25.4903Z" fill="#EB5757"/>
<path d="M48.9759 53.2783C48.9759 51.3783 50.5216 49.8325 52.4216 49.8325C52.7096 49.8325 52.9892 49.8686 53.2567 49.9354C53.8693 49.1274 54.414 48.2653 54.8809 47.3567H46.9713C46.6009 49.3742 46.0879 51.2361 45.4445 52.8611C44.8919 54.257 44.2589 55.428 43.5645 56.3589C45.5429 55.8622 47.3888 55.0284 49.037 53.9214C48.9974 53.713 48.9759 53.4982 48.9759 53.2783Z" fill="#EB5757"/>
<path d="M44.8863 47.3567H35.7526C35.4913 48.1934 34.9183 48.8933 34.1709 49.322C35.4044 54.0231 37.4223 56.8843 39.305 56.8843C41.4373 56.8843 43.7433 53.2141 44.8863 47.3567Z" fill="#EB5757"/>
<path d="M55.7728 45.3059C56.4403 43.4556 56.805 41.4618 56.805 39.3843C56.805 37.4051 56.4742 35.502 55.8659 33.7263H49.4372C49.1397 34.6791 48.4383 35.4548 47.5347 35.854C47.6205 37.0072 47.665 38.1875 47.665 39.3843C47.665 41.4239 47.5373 43.4167 47.292 45.3059H55.7728Z" fill="#EB5757"/>
<path d="M46.1469 34.0959C46.9161 34.0959 47.5419 33.4702 47.5419 32.7009C47.5419 31.9317 46.9161 31.3059 46.1469 31.3059C45.3777 31.3059 44.752 31.9317 44.752 32.7009C44.752 33.4702 45.3777 34.0959 46.1469 34.0959Z" fill="#EB5757"/>
<path d="M32.4624 47.7263C33.2328 47.7263 33.8574 47.1017 33.8574 46.3313C33.8574 45.5608 33.2328 44.9363 32.4624 44.9363C31.6919 44.9363 31.0674 45.5608 31.0674 46.3313C31.0674 47.1017 31.6919 47.7263 32.4624 47.7263Z" fill="#EB5757"/>
<path d="M26.188 26.8852C26.9584 26.8852 27.583 26.2607 27.583 25.4902C27.583 24.7198 26.9584 24.0952 26.188 24.0952C25.4175 24.0952 24.793 24.7198 24.793 25.4902C24.793 26.2607 25.4175 26.8852 26.188 26.8852Z" fill="#EB5757"/>
<path d="M52.4214 51.8833C51.6521 51.8833 51.0264 52.5091 51.0264 53.2783C51.0264 54.0476 51.6521 54.6733 52.4214 54.6733C53.1906 54.6733 53.8163 54.0476 53.8163 53.2783C53.8163 52.5091 53.1906 51.8833 52.4214 51.8833Z" fill="#EB5757"/>
</g>
<defs>
<clipPath id="clip0_22_9103">
<rect width="35" height="35" fill="white" transform="translate(21.8047 21.8843)"/>
</clipPath>
</defs>
</svg>
