<svg width="78" height="78" viewBox="0 0 78 78" fill="none" xmlns="http://www.w3.org/2000/svg">
<rect x="0.769531" y="0.848633" width="77.0713" height="77.0713" rx="5" fill="#E2FFEE"/>
<path d="M40.8658 25.1655L41.4127 24.0718H34.4346L34.9814 25.1655H40.8658Z" fill="#219653"/>
<path d="M48.3148 32.2749H44.875C44.5802 32.2758 44.291 32.3553 44.0372 32.5053C43.7834 32.6553 43.5742 32.8702 43.4312 33.128C43.3038 33.3711 43.2363 33.6411 43.2344 33.9155V37.3554C43.2357 37.7901 43.4089 38.2067 43.7163 38.5141C44.0237 38.8215 44.4403 38.9947 44.875 38.996H48.3148C48.7498 38.9955 49.1668 38.8225 49.4744 38.5149C49.782 38.2074 49.955 37.7903 49.9555 37.3554V33.9155C49.9542 33.4808 49.7809 33.0642 49.4735 32.7568C49.1661 32.4494 48.7496 32.2762 48.3148 32.2749Z" fill="#219653"/>
<path d="M49.1023 39.9695C48.8591 39.8424 48.5892 39.7749 48.3148 39.7726H44.875C44.4407 39.7752 44.0249 39.9489 43.7178 40.256C43.4107 40.5631 43.237 40.9789 43.2344 41.4132V44.8531C43.2362 45.223 43.3623 45.5815 43.5924 45.8711C43.8225 46.1607 44.1432 46.3646 44.5031 46.45C44.507 46.5308 48.1594 46.4815 48.3148 46.4937C48.7496 46.4925 49.1661 46.3192 49.4735 46.0118C49.7809 45.7044 49.9542 45.2879 49.9555 44.8531V41.4132C49.9546 41.1184 49.8751 40.8292 49.7251 40.5754C49.5751 40.3216 49.3601 40.1125 49.1023 39.9695Z" fill="#219653"/>
<path d="M42.8457 46.6796C42.5914 46.9664 42.279 47.1957 41.9291 47.3523C41.5793 47.5088 41.2001 47.589 40.8168 47.5874H37.377C36.6518 47.5872 35.9565 47.299 35.4437 46.7863C34.931 46.2735 34.6428 45.5782 34.6426 44.8531V41.4132C34.6411 41.03 34.7212 40.6508 34.8778 40.3009C35.0343 39.9511 35.2636 39.6386 35.5504 39.3843C35.2636 39.13 35.0343 38.8176 34.8778 38.4677C34.7212 38.1179 34.6411 37.7387 34.6426 37.3554V33.9156C34.6428 33.1904 34.931 32.4951 35.4437 31.9824C35.9565 31.4696 36.6518 31.1815 37.377 31.1812H40.8168C41.2001 31.1797 41.5793 31.2598 41.9291 31.4164C42.279 31.5729 42.5914 31.8022 42.8457 32.089C43.1 31.8022 43.4124 31.5729 43.7623 31.4164C44.1121 31.2598 44.4913 31.1797 44.8746 31.1812H47.1934V26.2593C47.1934 25.972 47.1369 25.6875 47.027 25.4221C46.9171 25.1567 46.756 24.9155 46.5528 24.7123C46.3497 24.5092 46.1085 24.3481 45.8431 24.2382C45.5776 24.1283 45.2931 24.0717 45.0059 24.0718H42.6379L42.091 25.1656L41.6918 25.9585C41.647 26.0492 41.5776 26.1255 41.4915 26.1786C41.4055 26.2318 41.3062 26.2598 41.2051 26.2593H34.6426C34.5414 26.2598 34.4422 26.2318 34.3561 26.1786C34.2701 26.1255 34.2007 26.0492 34.1559 25.9585C33.9273 25.4959 33.448 24.5367 33.2152 24.0718L30.8418 24.0718C30.5545 24.0717 30.27 24.1283 30.0046 24.2382C29.7391 24.3481 29.498 24.5092 29.2948 24.7123C29.0917 24.9155 28.9306 25.1567 28.8207 25.4221C28.7107 25.6875 28.6542 25.972 28.6543 26.2593V52.5093C28.6542 52.7966 28.7108 53.0811 28.8207 53.3465C28.9306 53.612 29.0917 53.8531 29.2948 54.0563C29.498 54.2594 29.7392 54.4205 30.0046 54.5304C30.27 54.6404 30.5545 54.6969 30.8418 54.6968H45.0059C45.2931 54.6969 45.5776 54.6404 45.8431 54.5304C46.1085 54.4205 46.3497 54.2594 46.5528 54.0563C46.756 53.8531 46.9171 53.612 47.027 53.3465C47.1369 53.0811 47.1934 52.7966 47.1934 52.5093V47.5874H44.8746C44.4913 47.589 44.1121 47.5088 43.7623 47.3523C43.4124 47.1957 43.1 46.9664 42.8457 46.6796ZM40.1113 52.5093H35.7363C35.5927 52.5072 35.4557 52.4486 35.3548 52.3463C35.254 52.244 35.1975 52.1061 35.1975 51.9624C35.1975 51.8188 35.254 51.6809 35.3549 51.5786C35.4557 51.4762 35.5927 51.4177 35.7364 51.4156H40.1113C40.255 51.4177 40.392 51.4762 40.4928 51.5786C40.5936 51.6809 40.6502 51.8188 40.6502 51.9624C40.6502 52.1061 40.5936 52.244 40.4928 52.3463C40.392 52.4486 40.255 52.5072 40.1113 52.5093Z" fill="#219653"/>
<path d="M37.0324 38.9577C37.0823 39.0307 40.6538 38.9838 40.8168 38.996C41.1121 38.9944 41.4016 38.914 41.6554 38.763C41.9093 38.6121 42.1182 38.3961 42.2605 38.1374C42.3874 37.8961 42.4549 37.628 42.4574 37.3554V33.9155C42.454 33.4815 42.28 33.0662 41.9731 32.7592C41.6661 32.4523 41.2508 32.2784 40.8168 32.2749H37.377C36.9422 32.2762 36.5257 32.4494 36.2183 32.7568C35.9109 33.0642 35.7376 33.4808 35.7363 33.9155V37.3554C35.7383 37.7299 35.8678 38.0926 36.1033 38.3839C36.3389 38.6751 36.6666 38.8774 37.0324 38.9577Z" fill="#219653"/>
<path d="M35.7363 44.8531C35.7376 45.2878 35.9109 45.7043 36.2183 46.0117C36.5257 46.3191 36.9422 46.4924 37.377 46.4937H40.8168C41.1393 46.4925 41.4544 46.3964 41.7228 46.2175C41.9912 46.0386 42.201 45.7847 42.3262 45.4874C42.5799 45.1339 42.4123 41.8713 42.4575 41.4132C42.4547 40.9789 42.281 40.5632 41.9739 40.2562C41.6668 39.9491 41.2511 39.7753 40.8168 39.7726H37.377C36.9429 39.7761 36.5276 39.95 36.2207 40.2569C35.9138 40.5639 35.7398 40.9792 35.7363 41.4132L35.7363 44.8531Z" fill="#219653"/>
</svg>
