<svg xmlns="http://www.w3.org/2000/svg" xmlns:xlink="http://www.w3.org/1999/xlink" width="78.001" height="78" viewBox="0 0 78.001 78">
  <defs>
    <filter id="Ellipse_1469" x="0" y="0" width="78.001" height="78" filterUnits="userSpaceOnUse">
      <feOffset input="SourceAlpha"/>
      <feGaussianBlur stdDeviation="3" result="blur"/>
      <feFlood flood-opacity="0.161"/>
      <feComposite operator="in" in2="blur"/>
      <feComposite in="SourceGraphic"/>
    </filter>
    <filter id="Ellipse_1469-2" x="0" y="0" width="78.001" height="78" filterUnits="userSpaceOnUse">
      <feOffset dy="3" input="SourceAlpha"/>
      <feGaussianBlur stdDeviation="3" result="blur-2"/>
      <feFlood flood-opacity="0.161" result="color"/>
      <feComposite operator="out" in="SourceGraphic" in2="blur-2"/>
      <feComposite operator="in" in="color"/>
      <feComposite operator="in" in2="SourceGraphic"/>
    </filter>
  </defs>
  <g id="Group_99413" data-name="Group 99413" transform="translate(-206 -1569)">
    <g id="Group_99381" data-name="Group 99381" transform="translate(0 333)">
      <g id="Group_99088" data-name="Group 99088" transform="translate(215 1245)">
        <g data-type="innerShadowGroup">
          <g transform="matrix(1, 0, 0, 1, -9, -9)" filter="url(#Ellipse_1469)">
            <ellipse id="Ellipse_1469-3" data-name="Ellipse 1469" cx="30" cy="30" rx="30" ry="30" transform="translate(9 9)" fill="#010c6b"/>
          </g>
          <g transform="matrix(1, 0, 0, 1, -9, -9)" filter="url(#Ellipse_1469-2)">
            <ellipse id="Ellipse_1469-4" data-name="Ellipse 1469" cx="30" cy="30" rx="30" ry="30" transform="translate(9 9)" fill="#fff"/>
          </g>
        </g>
      </g>
    </g>
    <path id="e61046f824d87e052208cd72dd7fa153" d="M2,27a4.333,4.333,0,0,0,4.412,4.412H27A4.333,4.333,0,0,0,31.413,27V15.236H2ZM27,4.941H24.06V3.471a1.471,1.471,0,0,0-2.941,0V4.941H12.295V3.471A1.389,1.389,0,0,0,10.824,2,1.389,1.389,0,0,0,9.353,3.471V4.941H6.412A4.333,4.333,0,0,0,2,9.353v2.941H31.413V9.353A4.333,4.333,0,0,0,27,4.941Z" transform="translate(225.876 1585.952)" fill="#fff"/>
    <g id="Group_99126" data-name="Group 99126" transform="translate(244.053 1608.542)">
      <g id="Path_205506" data-name="Path 205506" transform="translate(0)" fill="#fff">
        <path d="M 10.29463386535645 20.0892391204834 C 4.893853664398193 20.0892391204834 0.5000038743019104 15.69538974761963 0.5000038743019104 10.2946195602417 C 0.5000038743019104 4.89384937286377 4.893853664398193 0.4999995529651642 10.29463386535645 0.4999995529651642 C 15.69541358947754 0.4999995529651642 20.08926391601562 4.89384937286377 20.08926391601562 10.2946195602417 C 20.08926391601562 15.69538974761963 15.69541358947754 20.0892391204834 10.29463386535645 20.0892391204834 Z" stroke="none"/>
        <path d="M 10.29463386535645 1 C 5.169553756713867 1 1.000003814697266 5.169549942016602 1.000003814697266 10.2946195602417 C 1.000003814697266 15.4196891784668 5.169553756713867 19.5892391204834 10.29463386535645 19.5892391204834 C 15.41971397399902 19.5892391204834 19.58926391601562 15.4196891784668 19.58926391601562 10.2946195602417 C 19.58926391601562 5.169549942016602 15.41971397399902 1 10.29463386535645 1 M 10.29463386535645 0 C 15.98020362854004 0 20.58926391601562 4.60905933380127 20.58926391601562 10.2946195602417 C 20.58926391601562 15.98017978668213 15.98020362854004 20.5892391204834 10.29463386535645 20.5892391204834 C 4.609064102172852 20.5892391204834 3.814697265625e-06 15.98017978668213 3.814697265625e-06 10.2946195602417 C 3.814697265625e-06 4.60905933380127 4.609064102172852 0 10.29463386535645 0 Z" stroke="none" fill="#010c6b"/>
      </g>
      <path id="Layer_15" data-name="Layer 15" d="M.287,2H2.322A1.722,1.722,0,0,0,5.715,2h6.054a.287.287,0,0,0,0-.574H5.715a1.722,1.722,0,0,0-3.393,0H.287A.287.287,0,0,0,.287,2ZM4.018.564A1.148,1.148,0,1,1,2.87,1.712,1.148,1.148,0,0,1,4.018.564Zm7.75,5.167H9.733a1.722,1.722,0,0,0-3.393,0H.287a.287.287,0,0,0,0,.574H6.341a1.722,1.722,0,0,0,3.393,0h2.035a.287.287,0,0,0,0-.574ZM8.037,7.166A1.148,1.148,0,1,1,9.185,6.018,1.148,1.148,0,0,1,8.037,7.166Zm3.731,2.87H5.715a1.722,1.722,0,0,0-3.393,0H.287a.287.287,0,1,0,0,.574H2.322a1.722,1.722,0,0,0,3.393,0h6.054a.287.287,0,1,0,0-.574Zm-7.75,1.435a1.148,1.148,0,1,1,1.148-1.148A1.148,1.148,0,0,1,4.018,11.471Z" transform="translate(16.447 4.375) rotate(90)" fill="#000b6a" stroke="#010c6b" stroke-width="0.5"/>
    </g>
  </g>
</svg>
