<svg xmlns="http://www.w3.org/2000/svg" xmlns:xlink="http://www.w3.org/1999/xlink" width="78.001" height="78" viewBox="0 0 78.001 78">
  <defs>
    <filter id="Ellipse_1469" x="0" y="0" width="78.001" height="78" filterUnits="userSpaceOnUse">
      <feOffset input="SourceAlpha"/>
      <feGaussianBlur stdDeviation="3" result="blur"/>
      <feFlood flood-opacity="0.161"/>
      <feComposite operator="in" in2="blur"/>
      <feComposite in="SourceGraphic"/>
    </filter>
    <filter id="Ellipse_1469-2" x="0" y="0" width="78.001" height="78" filterUnits="userSpaceOnUse">
      <feOffset dy="3" input="SourceAlpha"/>
      <feGaussianBlur stdDeviation="3" result="blur-2"/>
      <feFlood flood-opacity="0.161" result="color"/>
      <feComposite operator="out" in="SourceGraphic" in2="blur-2"/>
      <feComposite operator="in" in="color"/>
      <feComposite operator="in" in2="SourceGraphic"/>
    </filter>
  </defs>
  <g id="Group_99317" data-name="Group 99317" transform="translate(86 -846)">
    <g id="Group_99313" data-name="Group 99313" transform="translate(9852.286 -4454.535)">
      <g id="Group_99088" data-name="Group 99088" transform="translate(-9929.286 5309.535)">
        <g data-type="innerShadowGroup">
          <g transform="matrix(1, 0, 0, 1, -9, -9)" filter="url(#Ellipse_1469)">
            <ellipse id="Ellipse_1469-3" data-name="Ellipse 1469" cx="30" cy="30" rx="30" ry="30" transform="translate(9 9)" fill="#006775"/>
          </g>
          <g transform="matrix(1, 0, 0, 1, -9, -9)" filter="url(#Ellipse_1469-2)">
            <ellipse id="Ellipse_1469-4" data-name="Ellipse 1469" cx="30" cy="30" rx="30" ry="30" transform="translate(9 9)" fill="#fff"/>
          </g>
        </g>
      </g>
    </g>
    <g id="Group_86243" data-name="Group 86243" transform="translate(17753 16486)">
      <g id="_9ac3db9f90eb10a004df7b9986707617" data-name="9ac3db9f90eb10a004df7b9986707617" transform="translate(-17825 -15626)">
        <rect id="Rectangle_123232" data-name="Rectangle 123232" width="50" height="50" fill="none"/>
        <line id="Line_4333" data-name="Line 4333" x2="7.737" transform="translate(15.474 24.759)" fill="none" stroke="#fff" stroke-linecap="round" stroke-linejoin="round" stroke-width="2"/>
        <path id="Path_185873" data-name="Path 185873" d="M312.425,204.476H309.33a4.642,4.642,0,0,1-4.642-4.642V187.455a4.642,4.642,0,0,1,4.642-4.642h3.095" transform="translate(-281.476 -168.886)" fill="none" stroke="#fff" stroke-linecap="round" stroke-linejoin="round" stroke-width="2"/>
      </g>
    </g>
    <circle id="Ellipse_1645" data-name="Ellipse 1645" cx="7" cy="7" r="7" transform="translate(-42 867)" fill="#fff"/>
    <circle id="Ellipse_1646" data-name="Ellipse 1646" cx="7" cy="7" r="7" transform="translate(-42 889)" fill="#fff"/>
    <path id="book" d="M3.138,15.377a1.21,1.21,0,0,0-.893.352,1.338,1.338,0,0,0-.379.92,1.134,1.134,0,0,0,.379.865,1.384,1.384,0,0,0,.893.379H14.416a.647.647,0,0,1,.433.162.57.57,0,0,1,.189.46v.324a1.57,1.57,0,0,1-1.568,1.568H1.866A1.76,1.76,0,0,1,.541,19.84,1.861,1.861,0,0,1,0,18.514V2.232A1.9,1.9,0,0,1,.541.879,1.672,1.672,0,0,1,1.866.338H14.092a.977.977,0,0,1,.676.271.8.8,0,0,1,.271.676v13.47a.542.542,0,0,1-.189.433.782.782,0,0,1-.433.189H3.138ZM4.382,6.911a.287.287,0,0,0,.324.324h5.626a.287.287,0,0,0,.324-.324V5.045a.4.4,0,0,0-.081-.243.233.233,0,0,0-.243-.081H4.706A.293.293,0,0,0,4.49,4.8a.436.436,0,0,0-.108.243Z" transform="translate(-69.569 874.628)" fill="#fff"/>
  </g>
</svg>
