<svg xmlns="http://www.w3.org/2000/svg" xmlns:xlink="http://www.w3.org/1999/xlink" width="78.001" height="78" viewBox="0 0 78.001 78">
  <defs>
    <filter id="Ellipse_1469" x="0" y="0" width="78.001" height="78" filterUnits="userSpaceOnUse">
      <feOffset input="SourceAlpha"/>
      <feGaussianBlur stdDeviation="3" result="blur"/>
      <feFlood flood-opacity="0.161"/>
      <feComposite operator="in" in2="blur"/>
      <feComposite in="SourceGraphic"/>
    </filter>
    <filter id="Ellipse_1469-2" x="0" y="0" width="78.001" height="78" filterUnits="userSpaceOnUse">
      <feOffset dy="3" input="SourceAlpha"/>
      <feGaussianBlur stdDeviation="3" result="blur-2"/>
      <feFlood flood-opacity="0.161" result="color"/>
      <feComposite operator="out" in="SourceGraphic" in2="blur-2"/>
      <feComposite operator="in" in="color"/>
      <feComposite operator="in" in2="SourceGraphic"/>
    </filter>
  </defs>
  <g id="Group_99498" data-name="Group 99498" transform="translate(98 -2342)">
    <g id="Group_99489" data-name="Group 99489" transform="translate(0 214)">
      <g id="Group_99466" data-name="Group 99466" transform="translate(9840.286 -3172.535)">
        <g id="Group_99088" data-name="Group 99088" transform="translate(-9929.286 5309.535)">
          <g data-type="innerShadowGroup">
            <g transform="matrix(1, 0, 0, 1, -9, -9)" filter="url(#Ellipse_1469)">
              <ellipse id="Ellipse_1469-3" data-name="Ellipse 1469" cx="30" cy="30" rx="30" ry="30" transform="translate(9 9)" fill="#006775"/>
            </g>
            <g transform="matrix(1, 0, 0, 1, -9, -9)" filter="url(#Ellipse_1469-2)">
              <ellipse id="Ellipse_1469-4" data-name="Ellipse 1469" cx="30" cy="30" rx="30" ry="30" transform="translate(9 9)" fill="#fff"/>
            </g>
          </g>
        </g>
      </g>
    </g>
    <g id="Group_99497" data-name="Group 99497" transform="translate(-58.137 12.116)">
      <path id="Path_205758" data-name="Path 205758" d="M245.12,273.6H234.24v3.771h3.839v10.757h11.613V277.371h3.839V273.6Z" transform="translate(-245.221 2094.725)" fill="#fff"/>
      <path id="Path_205759" data-name="Path 205759" d="M137.08,127.761a3.009,3.009,0,0,1-6.017.049,3.009,3.009,0,1,1,6.017-.048Z" transform="translate(-151.061 2230.554)" fill="#fff"/>
      <path id="Path_205760" data-name="Path 205760" d="M84.189,261.419c.749,0,1.5-.037,2.238-.074.691-.034,1.343-.067,1.962-.067a1.383,1.383,0,1,0,0-2.765c-.688,0-1.405.036-2.1.07a17.27,17.27,0,0,1-4.416-.141,4.606,4.606,0,0,1-2.721-1.865,6.746,6.746,0,0,1-.937-3.116c-.027-.187-.054-.375-.083-.565l-.923-6.068a1.383,1.383,0,0,0-2.734.416l.923,6.068c.028.181.053.362.079.54a9.176,9.176,0,0,0,1.419,4.324,7.369,7.369,0,0,0,4.369,2.964,13.3,13.3,0,0,0,2.924.279Z" transform="translate(-99.406 2120.23)" fill="#fff"/>
      <path id="Path_205761" data-name="Path 205761" d="M145.542,206.673h-1.777c-.46,0-1.066,0-1.669-.007a1.439,1.439,0,0,1-.687-.192c-.871-.509-1.753-1.038-2.7-1.617a4.71,4.71,0,0,0-3.141-.69c-.02,0-.049.007-.076.007a3,3,0,0,0-2.632,3.269c.007.111.014.223.022.334.162,2.59.4,5.173.437,7.763a4.022,4.022,0,0,0,.681,2.406,3.7,3.7,0,0,0,3.207,1.247c1.2-.011,2.312-.007,3.432,0,.483,0,.966,0,1.459,0,.336,0,.995-.008,1.434-.014h.119a.327.327,0,0,0,.322-.329v-3.71a.336.336,0,0,0-.315-.34c-1.831-.112-4.483-.248-4.483-.248l-.212-4.456c-.028-.246-.042-.5-.062-.74-.024-.321-.047-.635-.072-.944l.275.152c.487.268.947.521,1.419.743a2.367,2.367,0,0,0,.928.245c.58.014,1.206.02,1.97.02.476,0,.952,0,1.429,0l.708,0a1.45,1.45,0,1,0-.016-2.89Z" transform="translate(-152.698 2158.112)" fill="#fff"/>
      <path id="Path_205762" data-name="Path 205762" d="M485.23,123.35a3.167,3.167,0,0,0,6.334.051,3.167,3.167,0,1,0-6.334-.051Z" transform="translate(-474.274 2234.724)" fill="#fff"/>
      <path id="Path_205763" data-name="Path 205763" d="M447.005,257.528c-.788,0-1.578-.039-2.356-.078-.727-.036-1.414-.07-2.066-.07a1.455,1.455,0,1,1,0-2.911c.724,0,1.479.038,2.21.074a18.185,18.185,0,0,0,4.649-.149,4.847,4.847,0,0,0,2.865-1.964,7.1,7.1,0,0,0,.987-3.28q.042-.295.087-.595l.971-6.388a1.456,1.456,0,1,1,2.878.438l-.971,6.388q-.044.286-.083.569a9.656,9.656,0,0,1-1.493,4.552,7.756,7.756,0,0,1-4.6,3.12,14.013,14.013,0,0,1-3.078.294Z" transform="translate(-434.026 2124.539)" fill="#fff"/>
      <path id="Path_205764" data-name="Path 205764" d="M433.571,214.854s-2.792.141-4.72.26a.354.354,0,0,0-.332.358v3.9a.345.345,0,0,0,.34.347c.454.006,1.247.016,1.635.016,1.719,0,3.343-.016,5.148,0,2.634.021,4.056-1.191,4.092-3.846.043-2.843.31-5.679.483-8.523a3.159,3.159,0,0,0-2.771-3.442c-.029,0-.058-.007-.079-.007a2.889,2.889,0,0,0-1.551.281,3.158,3.158,0,0,0-1.674,2.374c-.144.909-.209,1.833-.281,2.807-.022.253-.036.52-.065.779Z" transform="translate(-422.519 2158.325)" fill="#fff"/>
    </g>
  </g>
</svg>
