<svg xmlns="http://www.w3.org/2000/svg" xmlns:xlink="http://www.w3.org/1999/xlink" width="57" height="57" viewBox="0 0 57 57">
  <defs>
    <filter id="Ellipse_1469" x="0" y="0" width="57" height="57" filterUnits="userSpaceOnUse">
      <feOffset input="SourceAlpha"/>
      <feGaussianBlur stdDeviation="3" result="blur"/>
      <feFlood flood-opacity="0.161"/>
      <feComposite operator="in" in2="blur"/>
      <feComposite in="SourceGraphic"/>
    </filter>
    <filter id="Ellipse_1469-2" x="0" y="0" width="57" height="57" filterUnits="userSpaceOnUse">
      <feOffset dy="3" input="SourceAlpha"/>
      <feGaussianBlur stdDeviation="3" result="blur-2"/>
      <feFlood flood-opacity="0.161" result="color"/>
      <feComposite operator="out" in="SourceGraphic" in2="blur-2"/>
      <feComposite operator="in" in="color"/>
      <feComposite operator="in" in2="SourceGraphic"/>
    </filter>
  </defs>
  <g id="Group_103329" data-name="Group 103329" transform="translate(9 9)">
    <g data-type="innerShadowGroup">
      <g transform="matrix(1, 0, 0, 1, -9, -9)" filter="url(#Ellipse_1469)">
        <circle id="Ellipse_1469-3" data-name="Ellipse 1469" cx="19.5" cy="19.5" r="19.5" transform="translate(9 9)" fill="#f2f2f2"/>
      </g>
      <g transform="matrix(1, 0, 0, 1, -9, -9)" filter="url(#Ellipse_1469-2)">
        <circle id="Ellipse_1469-4" data-name="Ellipse 1469" cx="19.5" cy="19.5" r="19.5" transform="translate(9 9)" fill="#fff"/>
      </g>
    </g>
    <g id="Group_101674" data-name="Group 101674" transform="translate(70.036 -330.268)">
      <g id="Group_101677" data-name="Group 101677" transform="translate(-62.567 337.265)">
        <path id="Path_207609" data-name="Path 207609" d="M-62.567,358.732a3.008,3.008,0,0,0,3.008,3.008h18.046a3.008,3.008,0,0,0,3.008-3.008V345.2H-62.567Z" transform="translate(62.567 -337.678)" fill="#00262b" fill-rule="evenodd"/>
        <path id="Path_207610" data-name="Path 207610" d="M-41.513,338.768h-1.5v-.752a.752.752,0,0,0-.752-.752.752.752,0,0,0-.752.752v.752H-56.551v-.752a.752.752,0,0,0-.752-.752.752.752,0,0,0-.752.752v.752h-1.5a3.008,3.008,0,0,0-3.008,3.008v1.5H-38.5v-1.5A3.008,3.008,0,0,0-41.513,338.768Z" transform="translate(62.567 -337.265)" fill="#00262b" fill-rule="evenodd"/>
      </g>
      <g id="Group_101678" data-name="Group 101678" transform="translate(-60.561 347.428)">
        <path id="Path_207611" data-name="Path 207611" d="M-59.4,357.577a1.842,1.842,0,0,1-.817-1.021,5.461,5.461,0,0,1-.238-1.771v-2.633a11.813,11.813,0,0,1,.187-2.378,2.231,2.231,0,0,1,.766-1.328,2.76,2.76,0,0,1,1.737-.46,3.1,3.1,0,0,1,1.169.216,1.936,1.936,0,0,1,.851.647,1.717,1.717,0,0,1,.318,1.045v1.055h-1.884v-.2a2.718,2.718,0,0,0-.085-.773.377.377,0,0,0-.4-.272.531.531,0,0,0-.448.171.855.855,0,0,0-.13.522v1.963a.966.966,0,0,1,.419-.426,1.388,1.388,0,0,1,.67-.153,2.062,2.062,0,0,1,1.231.318,1.653,1.653,0,0,1,.607.941,6.384,6.384,0,0,1,.171,1.634,4.162,4.162,0,0,1-.591,2.4,2.212,2.212,0,0,1-1.952.845A3.115,3.115,0,0,1-59.4,357.577Zm1.9-1.7a2.658,2.658,0,0,0,.085-.8V354.3q0-.793-.454-.794-.51,0-.51.692v1.2q0,.727.487.727A.367.367,0,0,0-57.5,355.88Z" transform="translate(60.451 -347.986)" fill="#f2f2f2"/>
        <path id="Path_207612" data-name="Path 207612" d="M-52.827,349.6h1.94v.965a1.429,1.429,0,0,1,.465-.8,1.47,1.47,0,0,1,.931-.261,1.573,1.573,0,0,1,.846.222,1.2,1.2,0,0,1,.505.607,1.815,1.815,0,0,1,.556-.63,1.564,1.564,0,0,1,.851-.2,1.482,1.482,0,0,1,1.357.6,3.237,3.237,0,0,1,.38,1.73l-.023,6.073h-2V351.8q0-.8-.409-.806a.421.421,0,0,0-.409.279,1.606,1.606,0,0,0-.125.664v5.97h-1.986V351.8a1.786,1.786,0,0,0-.074-.567.3.3,0,0,0-.312-.216.438.438,0,0,0-.431.3,1.87,1.87,0,0,0-.125.72v5.868h-1.94Z" transform="translate(60.054 -348.065)" fill="#f2f2f2"/>
        <path id="Path_207613" data-name="Path 207613" d="M-44.2,355.42v-3.337a2.614,2.614,0,0,1,.665-1.879,2.393,2.393,0,0,1,1.822-.7,2.393,2.393,0,0,1,1.821.7,2.614,2.614,0,0,1,.665,1.879v3.337q0,2.577-2.486,2.576T-44.2,355.42Zm2.838.873a.833.833,0,0,0,.113-.464v-4.063q0-.727-.465-.727t-.465.727v4.063a.825.825,0,0,0,.114.464.391.391,0,0,0,.352.171A.393.393,0,0,0-41.359,356.293Z" transform="translate(59.605 -348.065)" fill="#f2f2f2"/>
      </g>
    </g>
  </g>
</svg>
