<svg width="16" height="17" viewBox="0 0 16 17" fill="none" xmlns="http://www.w3.org/2000/svg">
<path d="M12.9825 9.0166L0.25 9.00635C0.183696 9.00635 0.120107 8.98001 0.0732233 8.93312C0.0263392 8.88624 0 8.82265 0 8.75635C0 8.69004 0.0263392 8.62646 0.0732233 8.57957C0.120107 8.53269 0.183696 8.50635 0.25 8.50635L12.9827 8.5166C13.0491 8.5166 13.1126 8.54294 13.1595 8.58982C13.2064 8.6367 13.2327 8.70029 13.2327 8.7666C13.2327 8.8329 13.2064 8.89649 13.1595 8.94337C13.1126 8.99026 13.0488 9.0166 12.9825 9.0166Z" fill="white"/>
<path d="M15.9996 8.76968C14.5794 9.29468 12.8169 10.1927 11.7246 11.1447L12.5861 8.76668L11.7279 6.38843C12.8191 7.34168 14.5801 8.24168 15.9996 8.76968Z" fill="white"/>
</svg>
