<svg width="17" height="17" viewBox="0 0 17 17" fill="none" xmlns="http://www.w3.org/2000/svg">
<g clip-path="url(#clip0_111_7)">
<path d="M13.5577 8.73932L0.825195 8.72906C0.758891 8.72906 0.695303 8.70273 0.648419 8.65584C0.601535 8.60896 0.575195 8.54537 0.575195 8.47906C0.575195 8.41276 0.601535 8.34917 0.648419 8.30229C0.695303 8.2554 0.758891 8.22906 0.825195 8.22906L13.5579 8.23932C13.6242 8.23932 13.6878 8.26565 13.7347 8.31254C13.7816 8.35942 13.8079 8.42301 13.8079 8.48932C13.8079 8.55562 13.7816 8.61921 13.7347 8.66609C13.6878 8.71298 13.624 8.73932 13.5577 8.73932Z" fill="white"/>
<path d="M16.5748 8.49233C15.1546 9.01733 13.3921 9.91533 12.2998 10.8673L13.1613 8.48933L12.3031 6.11108C13.3943 7.06433 15.1553 7.96433 16.5748 8.49233Z" fill="white"/>
</g>
<defs>
<clipPath id="clip0_111_7">
<rect width="16" height="16" fill="white" transform="translate(0.575195 0.489319)"/>
</clipPath>
</defs>
</svg>
