<svg width="37" height="38" viewBox="0 0 37 38" fill="none" xmlns="http://www.w3.org/2000/svg">
<rect x="0.266602" y="0.895508" width="36.2749" height="36.2749" rx="5" fill="white"/>
<g clip-path="url(#clip0_46_322)">
<path d="M27.4335 18.5119C27.2125 18.5119 27.0005 18.4241 26.8443 18.2678C26.688 18.1115 26.6002 17.8996 26.6002 17.6785C26.5984 15.911 25.8955 14.2163 24.6456 12.9665C23.3957 11.7166 21.7011 11.0136 19.9335 11.0119C19.7125 11.0119 19.5005 10.9241 19.3443 10.7678C19.188 10.6115 19.1002 10.3996 19.1002 10.1785C19.1002 9.95754 19.188 9.74557 19.3443 9.58929C19.5005 9.43301 19.7125 9.34522 19.9335 9.34522C22.1429 9.34764 24.2611 10.2264 25.8234 11.7887C27.3857 13.351 28.2644 15.4692 28.2668 17.6785C28.2668 17.8996 28.1791 18.1115 28.0228 18.2678C27.8665 18.4241 27.6545 18.5119 27.4335 18.5119ZM24.9335 17.6785C24.9335 16.3525 24.4067 15.0807 23.469 14.143C22.5314 13.2053 21.2596 12.6785 19.9335 12.6785C19.7125 12.6785 19.5005 12.7663 19.3443 12.9226C19.188 13.0789 19.1002 13.2909 19.1002 13.5119C19.1002 13.7329 19.188 13.9449 19.3443 14.1011C19.5005 14.2574 19.7125 14.3452 19.9335 14.3452C20.8176 14.3452 21.6654 14.6964 22.2905 15.3215C22.9157 15.9466 23.2668 16.7945 23.2668 17.6785C23.2668 17.8996 23.3546 18.1115 23.5109 18.2678C23.6672 18.4241 23.8792 18.5119 24.1002 18.5119C24.3212 18.5119 24.5332 18.4241 24.6894 18.2678C24.8457 18.1115 24.9335 17.8996 24.9335 17.6785ZM26.7527 27.8152L27.511 26.9411C27.9937 26.4568 28.2647 25.801 28.2647 25.1173C28.2647 24.4336 27.9937 23.7778 27.511 23.2936C27.4852 23.2677 25.4802 21.7252 25.4802 21.7252C24.999 21.2672 24.3598 21.0121 23.6954 21.013C23.0311 21.014 22.3926 21.2708 21.9127 21.7302L20.3243 23.0686C19.0278 22.532 17.8501 21.7445 16.8588 20.7515C15.8674 19.7584 15.082 18.5793 14.5477 17.2819L15.881 15.6985C16.3408 15.2187 16.5979 14.5801 16.599 13.9156C16.6001 13.251 16.345 12.6116 15.8868 12.1302C15.8868 12.1302 14.3427 10.1277 14.3168 10.1019C13.8414 9.62334 13.1967 9.35107 12.5222 9.3439C11.8477 9.33672 11.1974 9.59523 10.7118 10.0635L9.75351 10.8969C4.09185 17.4652 16.2835 29.5627 23.0685 29.3452C23.7537 29.3492 24.4327 29.2158 25.0654 28.9531C25.6982 28.6903 26.2719 28.3034 26.7527 27.8152Z" fill="#0B96F3"/>
</g>
<defs>
<clipPath id="clip0_46_322">
<rect width="20" height="20" fill="white" transform="translate(8.2666 9.3457)"/>
</clipPath>
</defs>
</svg>
