<svg width="82" height="82" viewBox="0 0 82 82" fill="none" xmlns="http://www.w3.org/2000/svg">
<rect x="0.267578" y="0.556396" width="81.418" height="81.418" rx="5" fill="#EAF7FF"/>
<g clip-path="url(#clip0_126_191)">
<path d="M57.0967 49.7319V57.6382H25.8467V49.7319C25.8467 48.7732 26.1223 47.8346 26.6408 47.0281L30.2529 41.4087C30.6359 40.8129 31.1411 40.3052 31.7351 39.9194C32.329 39.5335 32.9982 39.2783 33.6982 39.1705L39.5967 38.2632H43.3467L49.2446 39.1705C49.9446 39.2783 50.6138 39.5335 51.2077 39.9194C51.8017 40.3052 52.3069 40.8129 52.6899 41.4087L56.3022 47.0279C56.8209 47.8344 57.0966 48.773 57.0967 49.7319Z" fill="#3397E8"/>
<path d="M52.0967 54.5132C51.9309 54.5132 51.772 54.4474 51.6548 54.3301C51.5375 54.2129 51.4717 54.054 51.4717 53.8882V49.7134L48.4631 45.5015C48.3668 45.3666 48.3279 45.199 48.3552 45.0354C48.3824 44.8719 48.4735 44.726 48.6084 44.6296C48.7433 44.5333 48.9109 44.4944 49.0744 44.5217C49.238 44.5489 49.3839 44.64 49.4803 44.7749L52.6053 49.1499C52.681 49.2559 52.7217 49.3829 52.7217 49.5132V53.8882C52.7217 54.054 52.6558 54.2129 52.5386 54.3301C52.4214 54.4474 52.2625 54.5132 52.0967 54.5132Z" fill="#2D83CA"/>
<path d="M34.5966 53.2632C34.4309 53.2632 34.2719 53.1973 34.1547 53.0801C34.0375 52.9629 33.9716 52.8039 33.9716 52.6382V48.2632H30.8466C30.7335 48.2631 30.6225 48.2324 30.5255 48.1743C30.4284 48.1162 30.349 48.0328 30.2956 47.9331C30.2423 47.8333 30.217 47.721 30.2224 47.608C30.2279 47.495 30.2639 47.3856 30.3266 47.2915L31.5766 45.4165C31.6218 45.3473 31.6802 45.2878 31.7484 45.2413C31.8167 45.1949 31.8935 45.1624 31.9745 45.1458C32.0554 45.1292 32.1388 45.1288 32.2198 45.1446C32.3009 45.1605 32.378 45.1922 32.4467 45.238C32.5155 45.2838 32.5744 45.3428 32.6202 45.4116C32.666 45.4803 32.6977 45.5575 32.7135 45.6385C32.7293 45.7196 32.7289 45.803 32.7122 45.8839C32.6956 45.9648 32.6631 46.0416 32.6166 46.1099L32.0144 47.0132H34.5966C34.7624 47.0132 34.9213 47.079 35.0386 47.1962C35.1558 47.3134 35.2216 47.4724 35.2216 47.6382V52.6382C35.2216 52.8039 35.1558 52.9629 35.0386 53.0801C34.9213 53.1973 34.7624 53.2632 34.5966 53.2632Z" fill="#2D83CA"/>
<path d="M35.2217 47.6382H38.9717C39.3032 47.6382 39.6211 47.7699 39.8556 48.0043C40.09 48.2387 40.2217 48.5567 40.2217 48.8882V51.3882C40.2217 51.7197 40.09 52.0376 39.8556 52.2721C39.6211 52.5065 39.3032 52.6382 38.9717 52.6382H35.2217V47.6382Z" fill="#F0C6A4"/>
<path d="M39.5967 35.1382H43.3467V38.8882C43.3467 39.2197 43.215 39.5376 42.9806 39.7721C42.7461 40.0065 42.4282 40.1382 42.0967 40.1382H40.8467C40.5152 40.1382 40.1972 40.0065 39.9628 39.7721C39.7284 39.5376 39.5967 39.2197 39.5967 38.8882V35.1382Z" fill="#DEB797"/>
<path d="M23.9717 57.6382H58.9717V60.1382H23.9717V57.6382Z" fill="#3397E8"/>
<path d="M57.7218 57.6381H25.2218C25.2218 57.6381 24.7086 53.6107 26.4718 51.3881C26.4718 51.3881 37.7218 50.7631 41.4718 57.6381C45.8468 50.7631 56.4718 51.3881 56.4718 51.3881C58.2351 53.6107 57.7218 57.6381 57.7218 57.6381Z" fill="#E9EEF2"/>
<path d="M38.9713 47.6381L36.7481 38.1896C36.6739 37.8739 36.4799 37.5995 36.2071 37.4243C35.9344 37.249 35.6042 37.1865 35.2862 37.2501L34.6318 37.381C34.4659 37.4141 34.3085 37.4806 34.1691 37.5764C34.0297 37.6722 33.9111 37.7953 33.8207 37.9383C33.7302 38.0812 33.6697 38.241 33.6428 38.408C33.616 38.575 33.6233 38.7458 33.6643 38.9099L35.8463 47.6381H38.9713Z" fill="#596063"/>
<path d="M38.9713 47.6383H35.8463L34.2158 41.1164L37.3041 40.5547L38.9713 47.6383Z" fill="#A3D4F7"/>
<path d="M37.3051 40.5545L34.2168 41.1162L33.6653 38.91C33.6242 38.7459 33.6169 38.5752 33.6438 38.4082C33.6707 38.2412 33.7311 38.0814 33.8216 37.9385C33.912 37.7955 34.0305 37.6724 34.1699 37.5766C34.3092 37.4808 34.4666 37.4143 34.6325 37.3811L35.2871 37.2498C35.6051 37.1863 35.9353 37.2488 36.208 37.4242C36.4808 37.5995 36.6747 37.874 36.7489 38.1897L37.3051 40.5545Z" fill="#D0D2D4"/>
<path d="M32.09 55.2294C32.0682 55.3776 31.9939 55.513 31.8806 55.6109C31.7673 55.7089 31.6226 55.7629 31.4729 55.763C31.442 55.763 31.4112 55.7607 31.3807 55.756C29.3493 55.4463 27.302 55.2515 25.2486 55.1724C25.2322 55.1716 25.2158 55.1708 25.2002 55.1685C25.2351 54.751 25.2949 54.3359 25.3791 53.9255C27.45 54.0092 29.5146 54.2077 31.5635 54.5201C31.6447 54.532 31.7227 54.5598 31.7931 54.6019C31.8636 54.6441 31.925 54.6997 31.9739 54.7655C32.0228 54.8314 32.0582 54.9063 32.0782 54.9859C32.0981 55.0655 32.1021 55.1483 32.09 55.2294Z" fill="#D0D2D4"/>
<path d="M57.7435 55.1685C57.7278 55.1708 57.7114 55.1716 57.695 55.1724C55.6417 55.2515 53.5944 55.4463 51.563 55.756C51.5325 55.7607 51.5017 55.763 51.4708 55.763C51.3134 55.7623 51.1621 55.7023 51.047 55.5948C50.932 55.4874 50.8617 55.3405 50.8503 55.1835C50.8388 55.0265 50.8871 54.871 50.9853 54.748C51.0835 54.625 51.2246 54.5436 51.3802 54.5201C53.4291 54.2077 55.4937 54.0092 57.5646 53.9255C57.6488 54.3359 57.7085 54.751 57.7435 55.1685Z" fill="#D0D2D4"/>
<path d="M37.0967 27.6382H45.8467V33.8882C45.8467 34.5512 45.5833 35.1871 45.1144 35.656C44.6456 36.1248 44.0097 36.3882 43.3467 36.3882H39.5967C38.9336 36.3882 38.2978 36.1248 37.8289 35.656C37.3601 35.1871 37.0967 34.5512 37.0967 33.8882V27.6382Z" fill="#F0C6A4"/>
<path d="M34.5967 23.8882H43.3467C44.0097 23.8882 44.6456 24.1516 45.1144 24.6204C45.5833 25.0893 45.8467 25.7251 45.8467 26.3882V28.8882H37.0967C36.4336 28.8882 35.7978 28.6248 35.3289 28.156C34.8601 27.6871 34.5967 27.0512 34.5967 26.3882V23.8882Z" fill="#596063"/>
</g>
<defs>
<clipPath id="clip0_126_191">
<rect width="40" height="40" fill="white" transform="translate(21.2676 21.5564)"/>
</clipPath>
</defs>
</svg>
