<svg width="37" height="37" viewBox="0 0 37 37" fill="none" xmlns="http://www.w3.org/2000/svg">
<rect x="0.266602" y="0.169922" width="36.2749" height="36.2749" rx="5" fill="white"/>
<g clip-path="url(#clip0_46_328)">
<path d="M22.6329 14.5957C21.9735 11.5332 20.5673 9.5957 19.2666 9.5957C17.966 9.5957 16.5598 11.5332 15.9004 14.5957H22.6329Z" fill="#0B96F3"/>
<path d="M15.5166 18.3457C15.5164 19.1818 15.5722 20.017 15.6835 20.8457H22.8497C22.961 20.017 23.0168 19.1818 23.0166 18.3457C23.0168 17.5096 22.961 16.6744 22.8497 15.8457H15.6835C15.5722 16.6744 15.5164 17.5096 15.5166 18.3457Z" fill="#0B96F3"/>
<path d="M15.9004 22.0957C16.5598 25.1582 17.966 27.0957 19.2666 27.0957C20.5673 27.0957 21.9735 25.1582 22.6329 22.0957H15.9004Z" fill="#0B96F3"/>
<path d="M23.9125 14.5954H27.85C27.2583 13.249 26.3594 12.0599 25.2253 11.1237C24.0912 10.1874 22.7534 9.52999 21.3193 9.2041C22.505 10.2472 23.435 12.176 23.9125 14.5954Z" fill="#0B96F3"/>
<path d="M28.2995 15.8457H24.112C24.2151 16.675 24.2666 17.51 24.2663 18.3457C24.2664 19.1814 24.2146 20.0164 24.1113 20.8457H28.2988C28.7546 19.2102 28.7552 17.4812 28.2995 15.8457Z" fill="#0B96F3"/>
<path d="M21.3193 27.487C22.7536 27.1612 24.0917 26.5039 25.226 25.5676C26.3604 24.6314 27.2595 23.4422 27.8512 22.0957H23.9137C23.435 24.5151 22.505 26.4438 21.3193 27.487Z" fill="#0B96F3"/>
<path d="M14.6201 22.0957H10.6826C11.2744 23.4422 12.1735 24.6314 13.3078 25.5676C14.4422 26.5039 15.7802 27.1612 17.2145 27.487C16.0276 26.4438 15.0976 24.5151 14.6201 22.0957Z" fill="#0B96F3"/>
<path d="M17.2135 9.2041C15.7792 9.52982 14.4412 10.1872 13.3068 11.1234C12.1725 12.0597 11.2734 13.2488 10.6816 14.5954H14.6191C15.0979 12.176 16.0279 10.2472 17.2135 9.2041Z" fill="#0B96F3"/>
<path d="M14.2669 18.3457C14.2668 17.51 14.3186 16.675 14.4219 15.8457H10.2344C9.77863 17.4812 9.77863 19.2102 10.2344 20.8457H14.4219C14.3186 20.0164 14.2668 19.1814 14.2669 18.3457Z" fill="#0B96F3"/>
</g>
<defs>
<clipPath id="clip0_46_328">
<rect width="20" height="20" fill="white" transform="translate(9.2666 8.3457)"/>
</clipPath>
</defs>
</svg>
