<svg width="37" height="37" viewBox="0 0 37 37" fill="none" xmlns="http://www.w3.org/2000/svg">
<rect x="0.266602" y="0.621094" width="36.2749" height="36.2749" rx="5" fill="white"/>
<g clip-path="url(#clip0_46_315)">
<path d="M28.2283 12.9639L21.2133 19.9789C20.4311 20.7591 19.3714 21.1972 18.2666 21.1972C17.1618 21.1972 16.1021 20.7591 15.3199 19.9789L8.30493 12.9639C8.29327 13.0955 8.2666 13.2147 8.2666 13.3455V23.3455C8.26792 24.4502 8.70734 25.5092 9.48845 26.2904C10.2696 27.0715 11.3286 27.5109 12.4333 27.5122H24.0999C25.2046 27.5109 26.2636 27.0715 27.0448 26.2904C27.8259 25.5092 28.2653 24.4502 28.2666 23.3455V13.3455C28.2666 13.2147 28.2399 13.0955 28.2283 12.9639Z" fill="#0B96F3"/>
<path d="M20.0351 18.8004L27.6467 11.1879C27.278 10.5765 26.7579 10.0704 26.1367 9.71849C25.5155 9.36656 24.814 9.18066 24.1001 9.17871H12.4334C11.7194 9.18066 11.018 9.36656 10.3967 9.71849C9.77551 10.0704 9.25545 10.5765 8.88672 11.1879L16.4984 18.8004C16.968 19.2681 17.6039 19.5308 18.2667 19.5308C18.9296 19.5308 19.5654 19.2681 20.0351 18.8004Z" fill="#0B96F3"/>
</g>
<defs>
<clipPath id="clip0_46_315">
<rect width="20" height="20" fill="white" transform="translate(8.2666 8.3457)"/>
</clipPath>
</defs>
</svg>
