<svg id="Group_103035" data-name="Group 103035" xmlns="http://www.w3.org/2000/svg" width="195.837" height="152.601" viewBox="0 0 195.837 152.601">
  <g id="Group_93698" data-name="Group 93698" transform="translate(19.803 0)">
    <path id="Path_193219" data-name="Path 193219" d="M246.339,6411.87a10.866,10.866,0,0,0,1.476.166,39.113,39.113,0,0,0,7.923-.957c2.314-.4,2.942-.618,2.891-3.408a266.111,266.111,0,0,0-9.5-65.45,38.519,38.519,0,0,0-3.571-9.444c-2.914-4.963-9.616-9.253-14.75-11.658-.725-.341-3.73,1.57-4.46,1.239-.641-.29-1.2-.734-1.849-1.017-1.886-.826-3.15.9-4.729,1.615a5.828,5.828,0,0,1-2.625.564c-.731-.03-1.393-.47-2.062-.124-3,1.552-10.462-9.979-10.462-9.979l-3.229,3.375-9.449,9.9-23.624,32.545s-4.286,26.672-7.233,44.153c-.51,3.018-2.539,9.531-2.939,11.818.086-.492,20.162-.629,21.247-.629h40.921c2.3,0,8.468.975,10.08-.713,1.982-2.073,4.281-11.576,4.4-14.239.4-8.957-.217-17.845-.337-26.857.049,3.664,1.1,6.978,1.553,10.568.578,4.619,1.409,9.236,2.155,13.831.6,3.7,1.173,7.4,1.633,11.113.207,1.672-.06,2.668,1.357,3.322C242.351,6412.156,244.948,6411.634,246.339,6411.87Z" transform="translate(-148.632 -6262.712)" fill="#fff" stroke="#000" stroke-width="1"/>
    <path id="Path_193220" data-name="Path 193220" d="M279.565,6467.59c-1.095-.451-7.841-2.125-10.884-2.754-1.6-.33-8.819-2.2-10.493-2.2s-3.951,2.393-3.951,2.393l.6,8.231c1.61-.162,3.767.676,4.926.837s5.086.181,7.5-1.03c.138-.069.263-.146.393-.22a6.117,6.117,0,0,0,3.541,1.769s1.056-.107.956-.534a20.491,20.491,0,0,0-1.449-2.322c1.033,1.054,2.726,2.76,4.677,2.856,0,0,1.056-.107.956-.534a29.469,29.469,0,0,0-1.889-2.971l.036.028c.856.755,2.891,3.356,5.305,3.477,0,0,1.056-.107.956-.534a11.472,11.472,0,0,0-.926-1.536,14.092,14.092,0,0,0,2.286,1.423c2.607,1.287,4.089.31,4.089,0S280.66,6468.04,279.565,6467.59Z" transform="translate(-189.44 -6326.083)" fill="#fff" stroke="#000" stroke-width="1"/>
    <path id="Path_193221" data-name="Path 193221" d="M252.742,6454.632a8.156,8.156,0,0,1,3.829,7.444c-.374,5.063-1.894,10.934-8.235,10.317S252.742,6454.632,252.742,6454.632Z" transform="translate(-186.083 -6322.685)" fill="#2d2e2b"/>
    <path id="Path_193222" data-name="Path 193222" d="M202.492,6411.917c-15.2,5.276-35.536.237-48.428-8.526-8.077-5.479-13.23-12.43-12.363-19.226,2.25-17.65,16.121-58.1,28.124-64.009,8.155-4.016,18.055-5.681,23.567-6.344,2.588-.315,4.207-.395,4.207-.395l-2,5.646-10.024,28.259c-.371,16.773-12.374,26.729-9.99,30.632s21.239,8.1,31.139,14.771C209.467,6394.582,212.943,6407.979,202.492,6411.917Z" transform="translate(-141.605 -6262.712)" fill="#fff" stroke="#000" stroke-width="1"/>
    <path id="Path_193223" data-name="Path 193223" d="M141.7,6437.147c-2.25,17.644,37.226,35.5,61.934,26.921" transform="translate(-141.609 -6315.259)" fill="none" stroke="#2d2e2b" stroke-miterlimit="10" stroke-width="1"/>
    <path id="Path_193224" data-name="Path 193224" d="M210.427,6372.359c-.375,16.77-12.374,26.729-9.991,30.626s21.24,8.1,31.139,14.775c2.744,1.85,2.839,8.105,2.839,8.105" transform="translate(-166.458 -6287.744)" fill="none" stroke="#2d2e2b" stroke-miterlimit="10" stroke-width="1"/>
    <path id="Path_193225" data-name="Path 193225" d="M263.194,6320.905c-1.451,1.44-7.9,6.036-14.058,6.036a17.572,17.572,0,0,1-3.251-.3,18.817,18.817,0,0,1-12.06-8.336,17.226,17.226,0,0,1-1.227-2.271,13.073,13.073,0,0,1-.979-2.981c2.588-.315,5.063-.968,5.467-1.429.439,3.015,4.162,8.46,9.8,9.483a11.809,11.809,0,0,0,2.014.2h.011a11.051,11.051,0,0,0,6.063-1.654c.011,0,2.7-2.118,2.711-2.129Z" transform="translate(-179.834 -6261.948)" fill="#00262b"/>
    <path id="Path_193229" data-name="Path 193229" d="M290.64,6415.721a140.981,140.981,0,0,1,1.83-36.167" transform="translate(-204.717 -6290.799)" fill="none" stroke="#2d2e2b" stroke-miterlimit="10" stroke-width="1"/>
    <path id="Path_193230" data-name="Path 193230" d="M261.13,6334.064l3.765-1.091" transform="translate(-192.367 -6271.018)" fill="#fff"/>
    <path id="Path_193232" data-name="Path 193232" d="M291.29,6282.347" transform="translate(-205.176 -6249.516)" fill="none" stroke="#e76140" stroke-miterlimit="10" stroke-width="1.501"/>
    <path id="Path_193233" data-name="Path 193233" d="M291.024,6395c-.327-1.618.489-3.238,1.386-4.626a15.915,15.915,0,0,1,5.357-5.442" transform="translate(-205.032 -6293.084)" fill="none" stroke="#2d2e2b" stroke-miterlimit="10" stroke-width="1"/>
    <path id="Path_193234" data-name="Path 193234" d="M248.566,6457.693a11.728,11.728,0,0,1-3.885,10.8" transform="translate(-185.381 -6323.985)" fill="#2d2e2b"/>
    <rect id="Rectangle_123317" data-name="Rectangle 123317" width="98.845" height="3.469" rx="1.734" transform="translate(58.817 148.705)" fill="#313131"/>
    <path id="Path_193235" data-name="Path 193235" d="M380.106,6409.3l-59.613-.6-8.466-.085a1.347,1.347,0,0,0-1.188.681l-16.379,37.817-2.338,5.4a1.584,1.584,0,0,0-.057.179v0a1.566,1.566,0,0,0-.044.173,1.354,1.354,0,0,0,1.113,1.7,1.192,1.192,0,0,0,.624.022l61.271.479,8.746.068a1.42,1.42,0,0,0,1.327-1.011l16.332-43.076A1.386,1.386,0,0,0,380.106,6409.3Z" transform="translate(-205.471 -6303.143)" fill="#313131"/>
    <ellipse id="Ellipse_1475" data-name="Ellipse 1475" cx="4.607" cy="3.358" rx="4.607" ry="3.358" transform="translate(124.274 126.791)" fill="#fff"/>
    <ellipse id="Ellipse_1476" data-name="Ellipse 1476" cx="2.403" cy="1.752" rx="2.403" ry="1.752" transform="translate(135.333 128.738)" fill="#fff"/>
    <path id="Path_193236" data-name="Path 193236" d="M260.417,6307.131c-1.842,2.889-6.65,6.256-10.063,6.207-11.622-.215-15.445-8.13-16.7-11.014.237-.059.634-.105.915-.14a6.752,6.752,0,0,0,4.968-4.816,55.867,55.867,0,0,0,1.715-13.042l14.7,8.136c-.023,1.115-.1,2.334-.2,3.565-.076.749-.15,1.482-.236,2.2-.081.683-.173,1.333-.257,1.935a5.28,5.28,0,0,0,2.326,5.122Z" transform="translate(-180.698 -6250.356)" fill="#fff" stroke="#000" stroke-width="1"/>
    <path id="Path_193215" data-name="Path 193215" d="M282.043,6259.223a9.211,9.211,0,0,0,.348,6.522c.57,1.469,1.835.173,3.41.2,2.437.041,4.342-2.5,5.818-9.224.936-4.935,1.174-7.441.987-7.914-.673-1.706-2.891-2.624-4.721-2.782" transform="translate(-201.057 -6234.091)" fill="#3f2c25"/>
    <path id="Path_193216" data-name="Path 193216" d="M268.962,6236.98c3.841,4.63,5.24,17.663,1.995,26.737-2.309,6.453-4.987,10.62-8.12,10.486-4.75-.2-13.96-4.105-16.962-7.372-5.4-5.875-3.829-17.389-2.714-24.642,1.014-6.59,4.1-15.141,12.375-13.513A23.29,23.29,0,0,1,268.962,6236.98Z" transform="translate(-184.266 -6226.638)" fill="#fff" stroke="#110f0e" stroke-miterlimit="10" stroke-width="1"/>
    <path id="Path_193217" data-name="Path 193217" d="M249.264,6239.79c.854,1.021,2.355,1.246,3.592,1.446a4.042,4.042,0,0,1,3.346,2.345,5.984,5.984,0,0,0,2.073,2.549c.461.247,1.16.281,1.388-.19a1.352,1.352,0,0,1-.475-1.406,3.347,3.347,0,0,1,.762-1.365,4.731,4.731,0,0,1,.467,1.338,2.474,2.474,0,0,0,1.212,1.388.5.5,0,0,0,.286.072.551.551,0,0,0,.322-.234c.606-.725,1.2-2.106,2.039-2.547a5.023,5.023,0,0,0,.957,2.066,2.936,2.936,0,0,0,1.629,1.29.554.554,0,0,0,.61-.193c.13-.247-.073-.5-.042-.746a1.246,1.246,0,0,1,.262-.541,9.062,9.062,0,0,1,.995-1.456,23.12,23.12,0,0,0,2.682,2.595c.212.174.525.349.738.173a.618.618,0,0,0,.167-.4l.354-2.191c.066-.41.307-.944.71-.841.2.051.313.243.418.414a18.162,18.162,0,0,0,2.545,2.518c.368-1.414,1.123-2.7,1.49-4.117,2.365-9.115-8.2-16.44-16.272-16.479a23.317,23.317,0,0,0-5.217.753,20.21,20.21,0,0,0-5.467,1.645c-2.362,1.3-4.156,3.646-3.695,6.454" transform="translate(-186.394 -6225.28)" fill="#2d2e2b"/>
    <path id="Path_193218" data-name="Path 193218" d="M247.041,6242.618a8.123,8.123,0,0,1,1.592,4.965,14.873,14.873,0,0,1-1.289,7.794c-.35.672-.608,4-1.149,3.82-.171-.059-.143-2.64-.6-4.032-.7-2.157-3.936-2.978-5.391-1.617-2.323,2.171-.96,4.807-.192,6.444a11.636,11.636,0,0,1,1.316,3.148c.158,1.342.2,6.224-.673,7.366-.731.956-1.508-3.66-2.166-4.569-4.9-6.771-9.593-24.016-1.229-27.751,1.271-.566,5.2-.863,6.386-.139" transform="translate(-180.282 -6230.521)" fill="#2d2e2b"/>
  </g>
  <g id="Group_94427" data-name="Group 94427" transform="translate(0 152.198)">
    <g id="Group_94426" data-name="Group 94426" transform="translate(0)">
      <path id="Path_193618" data-name="Path 193618" d="M99.551,5188.086c0,.082-26.726.149-59.687.149s-59.693-.067-59.693-.149,26.72-.151,59.693-.151S99.551,5188,99.551,5188.086Z" transform="translate(19.829 -5187.935)" fill="#1a2e35"/>
    </g>
  </g>
</svg>
