<svg xmlns="http://www.w3.org/2000/svg" width="130.306" height="146.427" viewBox="0 0 130.306 146.427">
  <g id="Group_103036" data-name="Group 103036" transform="translate(63.079 6527.899)">
    <path id="Path_193572" data-name="Path 193572" d="M926.931,6979.176l-31.293-1.8-63.6-6.52,13.2-128.726L941.506,6852l-9.761,95.213Z" transform="translate(-874.827 -13361.174)" fill="#fafafa" stroke="#000" stroke-width="1"/>
    <path id="Path_193573" data-name="Path 193573" d="M973.434,6964.523l-46.824-4.8a1.268,1.268,0,0,1-1.132-1.39h0a1.271,1.271,0,0,1,1.391-1.134l46.824,4.8a1.267,1.267,0,0,1,1.132,1.391h0A1.268,1.268,0,0,1,973.434,6964.523Z" transform="translate(-924.58 -13422.442)" fill="#e1e1e1"/>
    <path id="Path_193574" data-name="Path 193574" d="M971.917,6979.318l-46.824-4.8a1.268,1.268,0,0,1-1.132-1.391h0a1.269,1.269,0,0,1,1.391-1.132l46.824,4.8a1.269,1.269,0,0,1,1.132,1.391h0A1.268,1.268,0,0,1,971.917,6979.318Z" transform="translate(-923.772 -13430.322)" fill="#e1e1e1"/>
    <path id="Path_193575" data-name="Path 193575" d="M951.278,6992.151l-27.7-2.839a1.268,1.268,0,0,1-1.132-1.392h0a1.269,1.269,0,0,1,1.391-1.132l27.7,2.84a1.268,1.268,0,0,1,1.132,1.391h0A1.268,1.268,0,0,1,951.278,6992.151Z" transform="translate(-922.965 -13438.199)" fill="#a3bbc4"/>
    <path id="Path_193576" data-name="Path 193576" d="M950.485,7041.458l-31.918-3.273a1.267,1.267,0,0,1-1.132-1.39h0a1.268,1.268,0,0,1,1.391-1.132l31.918,3.272a1.267,1.267,0,0,1,1.132,1.39h0A1.268,1.268,0,0,1,950.485,7041.458Z" transform="translate(-920.297 -13464.226)" fill="#a3bbc4"/>
    <path id="Path_193577" data-name="Path 193577" d="M966.907,7028.191l-46.824-4.8a1.268,1.268,0,0,1-1.132-1.391h0a1.267,1.267,0,0,1,1.391-1.132l46.824,4.8a1.268,1.268,0,0,1,1.132,1.391h0A1.268,1.268,0,0,1,966.907,7028.191Z" transform="translate(-921.104 -13456.348)" fill="#e1e1e1"/>
    <path id="Path_193578" data-name="Path 193578" d="M978.088,6919.131l-46.824-4.8a1.268,1.268,0,0,1-1.132-1.39h0a1.269,1.269,0,0,1,1.391-1.132l46.824,4.8a1.269,1.269,0,0,1,1.132,1.391h0A1.269,1.269,0,0,1,978.088,6919.131Z" transform="translate(-927.058 -13398.272)" fill="#e1e1e1"/>
    <path id="Path_193579" data-name="Path 193579" d="M979.6,6904.337l-46.824-4.8a1.268,1.268,0,0,1-1.132-1.391h0a1.268,1.268,0,0,1,1.391-1.131l46.824,4.8A1.267,1.267,0,0,1,981,6903.2h0A1.269,1.269,0,0,1,979.6,6904.337Z" transform="translate(-927.866 -13390.394)" fill="#e1e1e1"/>
    <g id="Group_94385" data-name="Group 94385" transform="translate(-25.896 -6496.223)">
      <g id="Group_94382" data-name="Group 94382" transform="translate(5.931 0)">
        <path id="Path_193580" data-name="Path 193580" d="M895.613,6907.208l-14.756-1.513,1.513-14.756,14.756,1.512Zm-12.8-3.1,11.21,1.149,1.149-11.21-11.21-1.149Z" transform="translate(-880.857 -6890.939)" fill="#a3bbc4"/>
        <path id="Path_193581" data-name="Path 193581" d="M892.892,6908.193l-3.345-3.324,1.507-1.333,1.919,1.905,4.071-3.6,1.427,1.417Z" transform="translate(-885.484 -6896.746)" fill="#5fb858"/>
      </g>
      <g id="Group_94383" data-name="Group 94383" transform="translate(0 57.855)">
        <path id="Path_193582" data-name="Path 193582" d="M882.926,7030.966l-14.756-1.513,1.513-14.756,14.756,1.513Zm-12.8-3.1,11.21,1.149,1.149-11.21-11.21-1.149Z" transform="translate(-868.17 -7014.697)" fill="#a3bbc4"/>
        <path id="Path_193583" data-name="Path 193583" d="M880.2,7031.952l-3.345-3.325,1.507-1.332,1.918,1.905,4.071-3.6,1.427,1.417Z" transform="translate(-872.797 -7020.504)" fill="#5fb858"/>
      </g>
      <g id="Group_94384" data-name="Group 94384" transform="translate(3.026 28.33)">
        <path id="Path_193584" data-name="Path 193584" d="M889.4,6967.808l-14.756-1.512,1.513-14.756,14.756,1.513Zm-12.8-3.1,11.21,1.149,1.15-11.21-11.21-1.149Z" transform="translate(-874.644 -6951.54)" fill="#a3bbc4"/>
        <path id="Path_193585" data-name="Path 193585" d="M886.679,6968.794l-3.345-3.323,1.507-1.333,1.918,1.907,4.071-3.6,1.427,1.417Z" transform="translate(-879.272 -6957.347)" fill="#5fb858"/>
      </g>
    </g>
    <path id="Path_193586" data-name="Path 193586" d="M986.445,7056.49a12.819,12.819,0,1,0,11.011,14.4A12.818,12.818,0,0,0,986.445,7056.49Zm7.549,13.939a9.326,9.326,0,1,1-8.011-10.477A9.327,9.327,0,0,1,993.994,7070.429Z" transform="translate(-949.319 -13475.26)" fill="#2d2e2b" style="mix-blend-mode: multiply;isolation: isolate"/>
    <g id="Group_94386" data-name="Group 94386" transform="translate(19.759 -6421.739)">
      <path id="Path_193587" data-name="Path 193587" d="M979.914,7081.533c-.161-.016-.322-.036-.484-.058a15.647,15.647,0,1,1,.484.058Zm3.052-29.947a14.414,14.414,0,1,0,.446.052C983.263,7051.619,983.115,7051.6,982.966,7051.586Z" transform="translate(-965.832 -7050.269)" fill="#2d2e2b" style="mix-blend-mode: multiply;isolation: isolate"/>
    </g>
    <path id="Path_193588" data-name="Path 193588" d="M989.6,7085.072l-4.438-5.433,2.435-1.739,2.545,3.114,6.578-4.7,1.893,2.318Z" transform="translate(-956.365 -13485.876)" fill="#2d2e2b"/>
    <path id="Path_193590" data-name="Path 193590" d="M884.946,6952.246l-31.313,1.4H789.7v-129.4h96.774v95.711Z" transform="translate(-852.281 -13351.649)" fill="#fff" stroke="#000" stroke-width="1"/>
    <path id="Path_193591" data-name="Path 193591" d="M914.9,6934.306H867.83a1.268,1.268,0,0,1-1.268-1.268h0a1.268,1.268,0,0,1,1.268-1.268H914.9a1.268,1.268,0,0,1,1.268,1.268h0A1.268,1.268,0,0,1,914.9,6934.306Z" transform="translate(-893.21 -13408.905)" fill="#e1e1e1"/>
    <path id="Path_193592" data-name="Path 193592" d="M867.83,6946.642H914.9a1.268,1.268,0,0,1,1.268,1.268h0a1.268,1.268,0,0,1-1.268,1.269H867.83a1.268,1.268,0,0,1-1.268-1.269h0a1.268,1.268,0,0,1,1.268-1.268" transform="translate(-893.21 -13416.825)" fill="#e1e1e1"/>
    <path id="Path_193593" data-name="Path 193593" d="M895.676,6964.05H867.83a1.268,1.268,0,0,1-1.268-1.269h0a1.268,1.268,0,0,1,1.268-1.267h27.845a1.268,1.268,0,0,1,1.268,1.267h0A1.269,1.269,0,0,1,895.676,6964.05Z" transform="translate(-893.21 -13424.745)" fill="#e1e1e1"/>
    <path id="Path_193594" data-name="Path 193594" d="M899.915,7013.178H867.83a1.267,1.267,0,0,1-1.268-1.267h0a1.268,1.268,0,0,1,1.268-1.269h32.085a1.269,1.269,0,0,1,1.268,1.269h0A1.268,1.268,0,0,1,899.915,7013.178Z" transform="translate(-893.21 -13450.905)" fill="#e1e1e1"/>
    <path id="Path_193595" data-name="Path 193595" d="M893.823,6995.771H914.9a1.268,1.268,0,0,1,1.268,1.269h0a1.268,1.268,0,0,1-1.268,1.268H867.83a1.268,1.268,0,0,1-1.268-1.268h0a1.268,1.268,0,0,1,1.268-1.269h25.992" transform="translate(-893.21 -13442.987)" fill="#e1e1e1"/>
    <path id="Path_193596" data-name="Path 193596" d="M914.9,6888.676H867.83a1.268,1.268,0,0,1-1.268-1.269h0a1.267,1.267,0,0,1,1.268-1.267H914.9a1.267,1.267,0,0,1,1.268,1.267h0A1.268,1.268,0,0,1,914.9,6888.676Z" transform="translate(-893.21 -13384.607)" fill="#e1e1e1"/>
    <rect id="Rectangle_123362" data-name="Rectangle 123362" width="49.606" height="2.536" rx="1.268" transform="translate(-26.648 -6505.419)" fill="#e1e1e1"/>
    <g id="Group_94387" data-name="Group 94387" transform="translate(-49.172 -6505.839)">
      <path id="Path_193597" data-name="Path 193597" d="M833.213,6885.2H818.38v-14.833h14.833Zm-13.051-1.782h11.269v-11.269H820.162Z" transform="translate(-818.38 -6870.371)" fill="#313131"/>
      <path id="Path_193598" data-name="Path 193598" d="M829.244,6885.766l-3.667-2.965,1.363-1.479,2.1,1.7,3.683-4,1.564,1.265Z" transform="translate(-822.212 -6874.979)" fill="#313131"/>
    </g>
    <g id="Group_94388" data-name="Group 94388" transform="translate(-49.172 -6447.681)">
      <path id="Path_193599" data-name="Path 193599" d="M833.213,7009.61H818.38v-14.833h14.833Zm-13.051-1.782h11.269v-11.27H820.162Z" transform="translate(-818.38 -6994.777)" fill="#313131"/>
      <path id="Path_193600" data-name="Path 193600" d="M829.244,7010.174l-3.667-2.965,1.363-1.479,2.1,1.7,3.683-4,1.564,1.265Z" transform="translate(-822.212 -6999.386)" fill="#313131"/>
    </g>
    <g id="Group_94389" data-name="Group 94389" transform="translate(-49.172 -6477.36)">
      <path id="Path_193601" data-name="Path 193601" d="M833.213,6946.123H818.38v-14.833h14.833Zm-13.051-1.782h11.269v-11.27H820.162Z" transform="translate(-818.38 -6931.289)" fill="#313131"/>
      <path id="Path_193602" data-name="Path 193602" d="M829.244,6946.686l-3.667-2.965,1.363-1.479,2.1,1.7,3.683-4,1.564,1.265Z" transform="translate(-822.212 -6935.898)" fill="#313131"/>
    </g>
    <path id="Path_193603" data-name="Path 193603" d="M938.5,7023.057a12.818,12.818,0,1,0,12.422,13.2A12.819,12.819,0,0,0,938.5,7023.057Zm8.931,13.1a9.326,9.326,0,1,1-9.037-9.606A9.327,9.327,0,0,1,947.426,7036.154Z" transform="translate(-924.481 -13457.514)" fill="#313131" style="mix-blend-mode: multiply;isolation: isolate"/>
    <g id="Group_94390" data-name="Group 94390" transform="translate(-2.046 -6437.314)">
      <path id="Path_193604" data-name="Path 193604" d="M934.866,7048.292c-.162,0-.323,0-.487-.007a15.684,15.684,0,1,1,.487.007Zm-.017-30.1a14.406,14.406,0,1,0,.449.006C935.148,7018.192,935,7018.19,934.849,7018.19Z" transform="translate(-919.188 -7016.953)" fill="#313131" style="mix-blend-mode: multiply;isolation: isolate"/>
    </g>
    <path id="Path_193605" data-name="Path 193605" d="M943.519,7051.39l-4.969-4.952,2.244-1.979,2.85,2.839,6.065-5.347,2.12,2.112Z" transform="translate(-931.544 -13467.578)" fill="#313131"/>
  </g>
</svg>
