<svg id="Group_103037" data-name="Group 103037" xmlns="http://www.w3.org/2000/svg" xmlns:xlink="http://www.w3.org/1999/xlink" width="260.537" height="142.241" viewBox="0 0 260.537 142.241">
  <defs>
    <clipPath id="clip-path">
      <rect id="Rectangle_123380" data-name="Rectangle 123380" width="239.017" height="142.241" fill="#fff" stroke="#707070" stroke-width="1" opacity="0.53"/>
    </clipPath>
  </defs>
  <g id="Group_94441" data-name="Group 94441" transform="translate(0)">
    <g id="Mask_Group_81222" data-name="Mask Group 81222" transform="translate(9.093)" clip-path="url(#clip-path)">
      <g id="Group_94258" data-name="Group 94258" transform="translate(8.528 23.557)">
        <g id="Group_94257" data-name="Group 94257">
          <g id="Group_94253" data-name="Group 94253" transform="translate(0 32.274)">
            <path id="Path_193489" data-name="Path 193489" d="M109.267,6896.3c-1.3-1.253-3.512-.164-4.6,1.275s-1.859,3.292-3.512,4.016-3.8.1-5.188,1.253c-1.912,1.587-.839,5.269-2.906,6.649-.821.548-1.9.528-2.78.98-2.067,1.066-2.043,3.982-1.723,6.286.448,3.232.939,6.585,2.723,9.316s5.256,4.657,8.345,3.6c2.968-1.014,4.492-4.217,5.7-7.111q2.505-6.009,5.011-12.015a28.009,28.009,0,0,0,2.257-7.159,9.437,9.437,0,0,0-1.692-7.128" transform="translate(-88.399 -6895.751)" fill="#2d2e2b"/>
          </g>
          <g id="Group_94255" data-name="Group 94255" transform="translate(16.909)">
            <g id="Group_94254" data-name="Group 94254">
              <path id="Path_193490" data-name="Path 193490" d="M120.415,6844.657c-.038-1.326,1.188-2.35,2.423-2.836a18.456,18.456,0,0,0,3.707-1.409A17.76,17.76,0,0,0,129,6837.9a8.166,8.166,0,0,1,13.733,3.747,5.356,5.356,0,0,1-1.338,5.376c-1.727,1.456-4.289,1.133-6.5.68s-4.719-.9-6.567.4a9.47,9.47,0,0,0-2.435,3.24,5.786,5.786,0,0,1-2.825,2.828c-1.288.444-3.038-.322-3.088-1.685" transform="translate(-119.975 -6835.48)" fill="#2d2e2b"/>
            </g>
          </g>
          <g id="Group_94256" data-name="Group 94256" transform="translate(13 3.979)">
            <path id="Path_193491" data-name="Path 193491" d="M117.113,6848.837a3.707,3.707,0,0,1-1.459,2.892,5.092,5.092,0,0,0-1.846,2.729c-.165,1.3.783,2.579.508,3.858a9.427,9.427,0,0,1-1.19,2.177,4.625,4.625,0,0,0-.236,3.407c.33,1.119.856,3.619,1.634,4.489a17.974,17.974,0,0,0,8.723,5.2,33.839,33.839,0,0,0,9.634.529c2.637-.163,5.669-.043,7.867-3.669a27.379,27.379,0,0,0,2.307-6.489,10.058,10.058,0,0,0,.429-5.579c-.315-1.056-.95-2-1.262-3.051a24.037,24.037,0,0,1-.4-4.1,9.409,9.409,0,0,0-13.387-7.429" transform="translate(-112.675 -6842.911)" fill="#2d2e2b"/>
          </g>
        </g>
      </g>
      <g id="Group_94259" data-name="Group 94259" transform="translate(29.125 29.98)">
        <path id="Path_193492" data-name="Path 193492" d="M147.148,6855.513c-.247-3.783-2.765-8.419-6.535-8.014l-11.769,3a2.219,2.219,0,0,0-1.98,2.254l1.323,28.394-.081.018s2.682,8.008,10.465,5.562c1.543-.484,2.247-2.173,2.553-3.909l.08.009c0-.206.006-.4.008-.594a18.554,18.554,0,0,0,.047-3.9h0c.022-2.292.019-3.233.021-3.211,0,0,4.833-.814,5.821-7.125A67.434,67.434,0,0,0,147.148,6855.513Z" transform="translate(-126.863 -6847.475)" fill="#fff"/>
      </g>
      <g id="Group_94262" data-name="Group 94262" transform="translate(26.701 28.634)">
        <g id="Group_94261" data-name="Group 94261" transform="translate(0)">
          <g id="Group_94260" data-name="Group 94260">
            <path id="Path_193493" data-name="Path 193493" d="M122.336,6870.09a5.6,5.6,0,0,0,6.664-6.2c-.2-1.55-1.031-3.125-.494-4.593.71-1.938,3.428-2.535,4.149-4.47.419-1.124.043-2.439.518-3.542a4.207,4.207,0,0,1,2.6-2.016,10.875,10.875,0,0,0,3.09-1.342,2.428,2.428,0,0,0,.872-2.971,59.762,59.762,0,0,0-13.785,3.35,5.31,5.31,0,0,0-2.72,1.761,5.569,5.569,0,0,0-.559,3.381q.4,8.5.793,16.994" transform="translate(-122.336 -6844.961)" fill="#2d2e2b"/>
          </g>
        </g>
      </g>
      <g id="Group_94264" data-name="Group 94264" transform="translate(22.932 25.422)">
        <g id="Group_94263" data-name="Group 94263">
          <path id="Path_193494" data-name="Path 193494" d="M119.463,6869.472a.438.438,0,0,1-.1-.066c-.077-.057-.169-.128-.281-.214-.244-.191-.6-.475-1.045-.865a11.068,11.068,0,0,1-1.483-1.561,5.815,5.815,0,0,1-1.18-2.6,3.952,3.952,0,0,1,.814-3.321,12.736,12.736,0,0,1,1.469-1.253,3.423,3.423,0,0,0,1.146-1.564c.467-1.286.259-2.775.439-4.3a8.555,8.555,0,0,1,1.789-4.347,5.915,5.915,0,0,1,1.871-1.53,11.518,11.518,0,0,1,2.208-.745,5.154,5.154,0,0,0,1.937-.955,7.571,7.571,0,0,0,1.406-1.551c.793-1.125,1.378-2.324,2.133-3.324a7.247,7.247,0,0,1,1.243-1.32,4.751,4.751,0,0,1,1.474-.8,3.138,3.138,0,0,1,2.8.279,2.583,2.583,0,0,1,1,1.889,1.875,1.875,0,0,1-.38,1.3,1.151,1.151,0,0,1-.257.248.452.452,0,0,1-.1.067s.025-.035.082-.089a1.426,1.426,0,0,0,.231-.258,1.875,1.875,0,0,0,.316-1.26,2.482,2.482,0,0,0-.978-1.769,2.987,2.987,0,0,0-2.649-.22,4.584,4.584,0,0,0-1.4.785,7,7,0,0,0-1.193,1.29c-.731.983-1.306,2.179-2.109,3.335a7.839,7.839,0,0,1-1.449,1.61,5.382,5.382,0,0,1-2.027,1.008,11.436,11.436,0,0,0-2.159.73,5.647,5.647,0,0,0-1.783,1.46,8.307,8.307,0,0,0-1.733,4.2c-.184,1.471.029,2.983-.469,4.351a3.686,3.686,0,0,1-1.231,1.665,12.852,12.852,0,0,0-1.454,1.218,3.752,3.752,0,0,0-.791,3.134,5.706,5.706,0,0,0,1.11,2.536,11.542,11.542,0,0,0,1.432,1.574c.429.4.776.7,1.008.9A3.19,3.19,0,0,1,119.463,6869.472Z" transform="translate(-115.299 -6838.963)" fill="#375a64"/>
        </g>
      </g>
      <path id="Path_193495" data-name="Path 193495" d="M190.027,6958.312l9.294-17.69-4.56-4.9L183.031,6947l3.29,9.061Z" transform="translate(-123.829 -6858.488)" fill="#00262b"/>
      <path id="Path_193496" data-name="Path 193496" d="M156.217,6914.469h0a15.546,15.546,0,0,1,8.791,8.01l11.986,25.5,10.324,4.187-9.09,2.62-8.1-5.937Z" transform="translate(-111.373 -6848.614)" fill="#fff" stroke="#000" stroke-width="0.5"/>
      <path id="Path_193497" data-name="Path 193497" d="M163.967,6950.248l-4.349,3.353-21.7-22.318-12.4-22.4,1.434-4.168,9.589,3.995,2.77,3.488,1.43-4.853.616.871,1,2.714s9.417,7.834,11.449,14.045c1.7,5.184,1.165,15.9,2.2,18.807Z" transform="translate(-97.113 -6844.083)" fill="#fafafa"/>
      <path id="Path_193498" data-name="Path 193498" d="M112.74,6910.047c-.145.437-9.275,4.1-9.711,7.3s6.561,27.915,6.561,27.915l11.091,9.8h28.481l-9.035-16.916a42.9,42.9,0,0,0-7.311-9.936c-2.674-2.708-5.909-6.061-7.575-8.062-1.805-2.169-9.458-12.292-9.458-12.292Z" transform="translate(-86.658 -6845.543)" fill="#fff" stroke="#000" stroke-width="0.5"/>
      <g id="Group_94265" data-name="Group 94265" transform="translate(31.796 65.055)">
        <path id="Path_193499" data-name="Path 193499" d="M131.852,6913.438a11.441,11.441,0,0,1,1.613.725c.981.479,2.327,1.158,3.805,1.924.587.307,1.153.6,1.678.875l-.193.128a12.125,12.125,0,0,1,.18-2.986,4.1,4.1,0,0,1,.313-1.126,10.9,10.9,0,0,1-.15,1.153,14.548,14.548,0,0,0-.079,2.942l.018.234-.21-.108c-.527-.269-1.095-.561-1.684-.864-1.479-.763-2.81-1.472-3.768-2A10.809,10.809,0,0,1,131.852,6913.438Z" transform="translate(-131.851 -6912.977)" fill="#1a2e35"/>
      </g>
      <g id="Group_94266" data-name="Group 94266" transform="translate(42.342 64.645)">
        <path id="Path_193500" data-name="Path 193500" d="M154.18,6914.418a3.783,3.783,0,0,1-.55.866l-.115.16-.058-.2c-.182-.609-.414-1.461-.655-2.405-.019-.074-.037-.147-.055-.215l.258.031c-.857,1.616-1.379,2.972-1.454,2.945a11.227,11.227,0,0,1,1.208-3.076l.168-.321.09.352.055.214c.24.945.443,1.8.575,2.426l-.172-.036A3.75,3.75,0,0,1,154.18,6914.418Z" transform="translate(-151.545 -6912.208)" fill="#1a2e35"/>
      </g>
      <g id="Group_94267" data-name="Group 94267" transform="translate(42.626 69.404)">
        <path id="Path_193501" data-name="Path 193501" d="M163.2,6939.755a4.982,4.982,0,0,1-.456-.724l-1.162-2.017c-.977-1.706-2.334-4.057-3.868-6.632s-2.96-4.888-4-6.558l-1.222-1.982a5.059,5.059,0,0,1-.42-.745,4.991,4.991,0,0,1,.511.686c.314.452.758,1.112,1.3,1.935,1.079,1.644,2.531,3.942,4.069,6.521s2.868,4.947,3.8,6.679c.467.865.837,1.569,1.085,2.061A5.029,5.029,0,0,1,163.2,6939.755Z" transform="translate(-152.075 -6921.097)" fill="#1a2e35"/>
      </g>
      <g id="Group_94268" data-name="Group 94268" transform="translate(48.748 93.855)" opacity="0.3">
        <path id="Path_193502" data-name="Path 193502" d="M164.123,6978.2a14.16,14.16,0,0,0,5,.247,4.808,4.808,0,0,0,3.782-2.949,3.124,3.124,0,0,1,.618-1.427c.637-.589,1.651-.228,2.515-.3a3.169,3.169,0,0,0,2.293-1.607,9.335,9.335,0,0,0,.958-2.729,4.162,4.162,0,0,0,.17-1.416,1.412,1.412,0,0,0-.741-1.153c-.652-.295-1.387.134-1.968.553a148.137,148.137,0,0,0-13.243,11.208" transform="translate(-163.508 -6966.759)"/>
      </g>
      <g id="Group_94307" data-name="Group 94307" transform="translate(113.274 139.349)">
        <g id="Group_94295" data-name="Group 94295">
          <g id="Group_94271" data-name="Group 94271">
            <g id="Group_94270" data-name="Group 94270">
              <g id="Group_94269" data-name="Group 94269">
                <path id="Path_193503" data-name="Path 193503" d="M293.784,7051.715l8.277,10.369s13.319-4.93,15.035-3.163l-19.529,16.771-13.56-15.627Z" transform="translate(-284.008 -7051.715)" fill="#375a64"/>
              </g>
            </g>
          </g>
          <g id="Group_94275" data-name="Group 94275" transform="translate(11.124 14.29)" opacity="0.6">
            <g id="Group_94274" data-name="Group 94274">
              <g id="Group_94273" data-name="Group 94273">
                <g id="Group_94272" data-name="Group 94272">
                  <path id="Path_193504" data-name="Path 193504" d="M304.945,7078.82a1.051,1.051,0,0,0,.23,1.383,1.011,1.011,0,0,0,1.374-.216,1.109,1.109,0,0,0-.252-1.464,1.048,1.048,0,0,0-1.4.383" transform="translate(-304.781 -7078.401)" fill="#fff"/>
                </g>
              </g>
            </g>
          </g>
          <g id="Group_94278" data-name="Group 94278" transform="translate(12.255 6.78)" opacity="0.6">
            <g id="Group_94277" data-name="Group 94277">
              <g id="Group_94276" data-name="Group 94276">
                <path id="Path_193505" data-name="Path 193505" d="M308.2,7081.574l-1.3-1.629,19.212-15.47s1.194-.369,1.621.328Z" transform="translate(-306.893 -7064.377)" fill="#fff"/>
              </g>
            </g>
          </g>
          <g id="Group_94282" data-name="Group 94282" transform="translate(17.201 9.981)">
            <g id="Group_94281" data-name="Group 94281">
              <g id="Group_94280" data-name="Group 94280">
                <g id="Group_94279" data-name="Group 94279">
                  <path id="Path_193506" data-name="Path 193506" d="M317.213,7070.372c.079.1-.36.55-.566,1.259-.224.705-.112,1.326-.232,1.363-.1.057-.451-.635-.187-1.49S317.159,7070.267,317.213,7070.372Z" transform="translate(-316.131 -7070.355)" fill="#1a2e35"/>
                </g>
              </g>
            </g>
          </g>
          <g id="Group_94286" data-name="Group 94286" transform="translate(20.472 9.076)">
            <g id="Group_94285" data-name="Group 94285">
              <g id="Group_94284" data-name="Group 94284">
                <g id="Group_94283" data-name="Group 94283">
                  <path id="Path_193507" data-name="Path 193507" d="M322.826,7068.676c.1.072-.172.59-.15,1.271,0,.683.3,1.188.2,1.267-.077.091-.622-.409-.634-1.258S322.746,7068.585,322.826,7068.676Z" transform="translate(-322.238 -7068.666)" fill="#1a2e35"/>
                </g>
              </g>
            </g>
          </g>
          <g id="Group_94290" data-name="Group 94290" transform="translate(23.437 8.258)">
            <g id="Group_94289" data-name="Group 94289">
              <g id="Group_94288" data-name="Group 94288">
                <g id="Group_94287" data-name="Group 94287">
                  <path id="Path_193508" data-name="Path 193508" d="M328.667,7069.418c-.069.095-.611-.268-.814-1s.064-1.323.172-1.277.072.56.248,1.16S328.754,7069.327,328.667,7069.418Z" transform="translate(-327.776 -7067.137)" fill="#1a2e35"/>
                </g>
              </g>
            </g>
          </g>
          <g id="Group_94294" data-name="Group 94294" transform="translate(14.17 7.799)">
            <g id="Group_94293" data-name="Group 94293">
              <g id="Group_94292" data-name="Group 94292">
                <g id="Group_94291" data-name="Group 94291">
                  <path id="Path_193509" data-name="Path 193509" d="M312.435,7066.324c.035.121-.516.366-1.023.865s-.782,1.03-.9.992c-.114-.022-.008-.728.6-1.308S312.418,7066.209,312.435,7066.324Z" transform="translate(-310.47 -7066.279)" fill="#1a2e35"/>
                </g>
              </g>
            </g>
          </g>
        </g>
        <g id="Group_94298" data-name="Group 94298" transform="translate(1.818 2.056)" opacity="0.3">
          <g id="Group_94297" data-name="Group 94297">
            <g id="Group_94296" data-name="Group 94296">
              <path id="Path_193510" data-name="Path 193510" d="M297,7055.554l1.478,1.845-9.673,8.156-1.4-1.6Z" transform="translate(-287.402 -7055.554)"/>
            </g>
          </g>
        </g>
        <g id="Group_94302" data-name="Group 94302" transform="translate(10.357 5.581)">
          <g id="Group_94301" data-name="Group 94301">
            <g id="Group_94300" data-name="Group 94300">
              <g id="Group_94299" data-name="Group 94299">
                <path id="Path_193511" data-name="Path 193511" d="M307.42,7062.34c.035.038-.291.42-.983.834a5.814,5.814,0,0,1-1.293.564,6.142,6.142,0,0,1-.818.185,1.635,1.635,0,0,1-.493.023.548.548,0,0,1-.479-.47.686.686,0,0,1,.231-.576,1.671,1.671,0,0,1,.41-.265,4.564,4.564,0,0,1,2.2-.5,2.149,2.149,0,0,1,1.257.3c-.016.067-.493-.042-1.251.009a5.141,5.141,0,0,0-1.294.257,4.809,4.809,0,0,0-.711.309c-.253.123-.431.273-.4.411.011.051.02.067.115.091a1.309,1.309,0,0,0,.361-.019,6.762,6.762,0,0,0,.771-.148,7.216,7.216,0,0,0,1.256-.45A8.7,8.7,0,0,1,307.42,7062.34Z" transform="translate(-303.35 -7062.137)" fill="#1a2e35"/>
              </g>
            </g>
          </g>
        </g>
        <g id="Group_94306" data-name="Group 94306" transform="translate(12.256 2.144)">
          <g id="Group_94305" data-name="Group 94305">
            <g id="Group_94304" data-name="Group 94304">
              <g id="Group_94303" data-name="Group 94303">
                <path id="Path_193512" data-name="Path 193512" d="M309.06,7059.6c-.021.043-.5-.136-1.069-.724a4.176,4.176,0,0,1-.786-1.185,4.3,4.3,0,0,1-.261-.807,1.066,1.066,0,0,1,.2-1.03.6.6,0,0,1,.643-.079,1.736,1.736,0,0,1,.408.272,2.886,2.886,0,0,1,.566.658,2.966,2.966,0,0,1,.45,1.369,1.664,1.664,0,0,1-.283,1.265,10.659,10.659,0,0,0-.025-1.228,2.954,2.954,0,0,0-.48-1.185,2.655,2.655,0,0,0-.5-.55c-.208-.182-.43-.282-.49-.194a.737.737,0,0,0-.067.614,4.286,4.286,0,0,0,.213.738,4.618,4.618,0,0,0,.649,1.138C308.691,7059.273,309.1,7059.544,309.06,7059.6Z" transform="translate(-306.895 -7055.72)" fill="#1a2e35"/>
              </g>
            </g>
          </g>
        </g>
      </g>
      <g id="Group_94346" data-name="Group 94346" transform="translate(101.143 168.922)">
        <g id="Group_94334" data-name="Group 94334">
          <g id="Group_94310" data-name="Group 94310">
            <g id="Group_94309" data-name="Group 94309">
              <g id="Group_94308" data-name="Group 94308">
                <path id="Path_193513" data-name="Path 193513" d="M274.21,7107l-.5,13.257s13.307,4.964,13.453,7.424l-25.741-.051-.065-20.69Z" transform="translate(-261.354 -7106.941)" fill="#375a64"/>
              </g>
            </g>
          </g>
          <g id="Group_94314" data-name="Group 94314" transform="translate(3.644 12.144)" opacity="0.6">
            <g id="Group_94313" data-name="Group 94313">
              <g id="Group_94312" data-name="Group 94312">
                <g id="Group_94311" data-name="Group 94311">
                  <path id="Path_193514" data-name="Path 193514" d="M268.911,7129.664a1.051,1.051,0,0,0-.729,1.2,1.011,1.011,0,0,0,1.181.733,1.109,1.109,0,0,0,.766-1.272,1.048,1.048,0,0,0-1.314-.626" transform="translate(-268.16 -7129.621)" fill="#fff"/>
                </g>
              </g>
            </g>
          </g>
          <g id="Group_94317" data-name="Group 94317" transform="translate(0.065 18.605)" opacity="0.6">
            <g id="Group_94316" data-name="Group 94316">
              <g id="Group_94315" data-name="Group 94315">
                <path id="Path_193515" data-name="Path 193515" d="M261.475,7143.769l.075-2.085,24.653.829s1.145.5,1.014,1.308Z" transform="translate(-261.475 -7141.684)" fill="#fff"/>
              </g>
            </g>
          </g>
          <g id="Group_94321" data-name="Group 94321" transform="translate(10.422 13.071)">
            <g id="Group_94320" data-name="Group 94320">
              <g id="Group_94319" data-name="Group 94319">
                <g id="Group_94318" data-name="Group 94318">
                  <path id="Path_193516" data-name="Path 193516" d="M283.165,7131.468c0,.126-.633.183-1.252.585-.63.386-.949.931-1.065.881-.116-.024.073-.775.832-1.251S283.193,7131.354,283.165,7131.468Z" transform="translate(-280.816 -7131.351)" fill="#1a2e35"/>
                </g>
              </g>
            </g>
          </g>
          <g id="Group_94325" data-name="Group 94325" transform="translate(13.759 14.259)">
            <g id="Group_94324" data-name="Group 94324">
              <g id="Group_94323" data-name="Group 94323">
                <g id="Group_94322" data-name="Group 94322">
                  <path id="Path_193517" data-name="Path 193517" d="M288.758,7133.621c.028.122-.516.334-.945.864s-.552,1.093-.677,1.088c-.118.019-.2-.717.341-1.366S288.755,7133.5,288.758,7133.621Z" transform="translate(-287.048 -7133.569)" fill="#1a2e35"/>
                </g>
              </g>
            </g>
          </g>
          <g id="Group_94329" data-name="Group 94329" transform="translate(16.846 15.378)">
            <g id="Group_94328" data-name="Group 94328">
              <g id="Group_94327" data-name="Group 94327">
                <g id="Group_94326" data-name="Group 94326">
                  <path id="Path_193518" data-name="Path 193518" d="M292.963,7137.825c-.115.026-.288-.6.036-1.29s.912-.96.965-.854c.071.1-.312.471-.569,1.04S293.087,7137.813,292.963,7137.825Z" transform="translate(-292.812 -7135.659)" fill="#1a2e35"/>
                </g>
              </g>
            </g>
          </g>
          <g id="Group_94333" data-name="Group 94333" transform="translate(9.874 9.7)">
            <g id="Group_94332" data-name="Group 94332">
              <g id="Group_94331" data-name="Group 94331">
                <g id="Group_94330" data-name="Group 94330">
                  <path id="Path_193519" data-name="Path 193519" d="M282.469,7125.509c-.053.116-.629-.059-1.34-.012s-1.265.27-1.33.161c-.073-.091.468-.555,1.306-.6S282.531,7125.411,282.469,7125.509Z" transform="translate(-279.793 -7125.057)" fill="#1a2e35"/>
                </g>
              </g>
            </g>
          </g>
        </g>
        <g id="Group_94337" data-name="Group 94337" transform="translate(0.003 2.686)" opacity="0.3">
          <g id="Group_94336" data-name="Group 94336">
            <g id="Group_94335" data-name="Group 94335">
              <path id="Path_193520" data-name="Path 193520" d="M274.11,7111.959l-.086,2.362-12.651-.14-.012-2.129Z" transform="translate(-261.361 -7111.959)"/>
            </g>
          </g>
        </g>
        <g id="Group_94341" data-name="Group 94341" transform="translate(8.691 5.397)">
          <g id="Group_94340" data-name="Group 94340">
            <g id="Group_94339" data-name="Group 94339">
              <g id="Group_94338" data-name="Group 94338">
                <path id="Path_193521" data-name="Path 193521" d="M281.495,7119.1a2.413,2.413,0,0,1-1.289-.009,5.954,5.954,0,0,1-2.087-.812,1.6,1.6,0,0,1-.389-.3.549.549,0,0,1-.056-.669.691.691,0,0,1,.552-.287,1.684,1.684,0,0,1,.483.069,4.55,4.55,0,0,1,1.988,1.058c.6.555.8,1.024.756,1.049-.057.042-.347-.352-.954-.811a5.119,5.119,0,0,0-1.149-.649,4.818,4.818,0,0,0-.74-.23c-.273-.072-.5-.075-.575.047-.026.045-.029.064.028.145a1.326,1.326,0,0,0,.286.221,6.8,6.8,0,0,0,.68.391,7.094,7.094,0,0,0,1.246.479A8.869,8.869,0,0,1,281.495,7119.1Z" transform="translate(-277.583 -7117.02)" fill="#1a2e35"/>
              </g>
            </g>
          </g>
        </g>
        <g id="Group_94345" data-name="Group 94345" transform="translate(12.096 3.569)">
          <g id="Group_94344" data-name="Group 94344">
            <g id="Group_94343" data-name="Group 94343">
              <g id="Group_94342" data-name="Group 94342">
                <path id="Path_193522" data-name="Path 193522" d="M284.284,7117.694a2.062,2.062,0,0,1-.337-1.246,4.184,4.184,0,0,1,.179-1.411,4.23,4.23,0,0,1,.33-.782,1.065,1.065,0,0,1,.824-.649.6.6,0,0,1,.538.36,1.769,1.769,0,0,1,.132.474,2.881,2.881,0,0,1,0,.869,2.955,2.955,0,0,1-.553,1.329c-.5.667-1.029.816-1.04.773-.042-.063.4-.3.783-.946a2.947,2.947,0,0,0,.41-1.21,2.622,2.622,0,0,0-.022-.744c-.04-.274-.142-.5-.244-.468-.128,0-.346.2-.452.422a4.273,4.273,0,0,0-.321.7,4.626,4.626,0,0,0-.252,1.286C284.219,7117.2,284.353,7117.676,284.284,7117.694Z" transform="translate(-283.942 -7113.605)" fill="#1a2e35"/>
              </g>
            </g>
          </g>
        </g>
      </g>
      <path id="Path_193523" data-name="Path 193523" d="M197.5,6934.754l13.766-31.793s-7.985,10-12.164,9.9c0,0-4.613,10.182-7.587,18.25l-4.532,11.7Z" transform="translate(-125.664 -6843.269)" fill="#fff"/>
      <g id="Group_94347" data-name="Group 94347" transform="translate(61.106 58.856)">
        <path id="Path_193524" data-name="Path 193524" d="M197.315,6934.029a1.5,1.5,0,0,1-.174.149l-.532.424-2.069,1.618-7.684,5.943-.271.209.123-.32,5.182-13.511c1.956-5.106,4.3-10.658,6.9-16.459l.037-.082h.093a5.084,5.084,0,0,0,2.335-.718,25.814,25.814,0,0,0,5.345-4.291,64.331,64.331,0,0,0,4.375-4.841l.614-.752-.387.89-9.925,22.794c-1.233,2.807-2.216,5.044-2.9,6.594l-.783,1.756-.207.448a.936.936,0,0,1-.076.148.975.975,0,0,1,.057-.162l.189-.464c.175-.417.426-1.012.748-1.78l2.83-6.634c2.436-5.66,5.858-13.6,9.819-22.808l.228.138a64.274,64.274,0,0,1-4.389,4.869,26.035,26.035,0,0,1-5.408,4.341,5.339,5.339,0,0,1-2.473.75l.13-.081c-2.6,5.795-4.951,11.342-6.917,16.434-1.946,5.1-3.751,9.663-5.239,13.49l-.148-.11,7.722-5.862c.907-.682,1.613-1.211,2.105-1.582l.553-.406C197.244,6934.072,197.315,6934.029,197.315,6934.029Z" transform="translate(-186.585 -6901.399)" fill="#1a2e35"/>
      </g>
      <path id="Path_193525" data-name="Path 193525" d="M104.629,7095.206l4.131,27.025h4.1l-2.019-26.923Z" transform="translate(-87.41 -6932.569)" fill="#1a2e35"/>
      <path id="Path_193526" data-name="Path 193526" d="M240.417,7095.308v26.923h4.327l1.611-27.025Z" transform="translate(-150.485 -6932.569)" fill="#1a2e35"/>
      <path id="Path_193527" data-name="Path 193527" d="M181.032,6943.156s1.746-4.007,2.677-4.563l4.145-2.01,2.479-1.142-.585,1.277,5.67-3.383a2.653,2.653,0,0,1-.437,2.384c-.884,1.209-.591,1.1-.591,1.1s.959.577.477,1.431a19.2,19.2,0,0,1-1.292,1.9,2.491,2.491,0,0,1,.524,2.085,4.363,4.363,0,0,1,.127,2.1c-.207,1.222-2.415,3.543-2.415,3.543l-11.014,5.246-4.441-7.539Z" transform="translate(-120.728 -6857.377)" fill="#fff"/>
      <path id="Path_193528" data-name="Path 193528" d="M122.163,6929.776l6.606,14.1,14.65-6.365s6.08,3.548,5.238,7.424l-13.2,10.843a11.824,11.824,0,0,1-8.941,2.6h0a11.823,11.823,0,0,1-8.443-5.243L108.52,6938.6l-5.342-8.732a8.152,8.152,0,0,1,.224-9.037,6.623,6.623,0,0,1,1.888-1.771C107.673,6917.607,114.762,6916.978,122.163,6929.776Z" transform="translate(-86.153 -6850.398)" fill="#fff" stroke="#000" stroke-width="0.5"/>
      <g id="Group_94348" data-name="Group 94348" transform="translate(57.086 75.748)">
        <path id="Path_193529" data-name="Path 193529" d="M184.771,6951.756a.6.6,0,0,1,.141-.088l.428-.227c.4-.2.953-.484,1.651-.838l6.038-3-.031.022a17.208,17.208,0,0,0,1.878-2.387,3,3,0,0,0,.54-1.485,4.262,4.262,0,0,0-.174-1.652l-.016-.047.014-.042a2.228,2.228,0,0,0-.506-1.958l-.065-.084.063-.082c.382-.5.761-1.036,1.106-1.595a1.161,1.161,0,0,0,.275-.836,1.173,1.173,0,0,0-.532-.7l.12.011a.174.174,0,0,1-.212-.074.218.218,0,0,1-.019-.134.616.616,0,0,1,.036-.12,1.815,1.815,0,0,1,.091-.184c.065-.115.134-.225.207-.332.139-.214.307-.428.437-.632a2.577,2.577,0,0,0,.411-1.421,2.293,2.293,0,0,0-.1-.666l.2.07-5.672,3.379-.369.22.179-.39.587-1.276.173.174c-2.431,1.117-4.683,2.12-6.57,3.1a3.673,3.673,0,0,0-.955,1.131c-.26.416-.491.828-.7,1.226-.42.794-.769,1.526-1.063,2.172l-.011.024-.021.012c-1.024.515-1.829.921-2.4,1.209-.262.127-.47.228-.63.307a1.088,1.088,0,0,1-.221.093,1.042,1.042,0,0,1,.2-.127c.156-.087.358-.2.613-.339l2.369-1.271-.032.036c.283-.655.621-1.395,1.034-2.2.206-.4.433-.82.693-1.246a7.245,7.245,0,0,1,.428-.637,2.114,2.114,0,0,1,.588-.574c1.906-1.01,4.137-2.018,6.57-3.149l.32-.15-.147.322q-.286.628-.582,1.278l-.19-.169,5.666-3.389.149-.089.053.159a2.519,2.519,0,0,1,.121.76,2.852,2.852,0,0,1-.455,1.573c-.15.233-.3.424-.441.637-.07.1-.135.21-.2.313-.029.052-.056.1-.077.152a.449.449,0,0,0-.019.058s0,0,0,0a.169.169,0,0,0-.044,0c-.036.006-.038,0-.057.013s-.006.006,0,0a.045.045,0,0,0,0-.015v0h0c.02.077-.028-.1-.024-.086l-.009,0,.12.012a1.436,1.436,0,0,1,.659.889,1.042,1.042,0,0,1-.059.57,3.743,3.743,0,0,1-.253.459c-.354.572-.736,1.1-1.127,1.615l0-.167a3.3,3.3,0,0,1,.545,1.06,1.908,1.908,0,0,1,0,1.154v-.089a4.48,4.48,0,0,1,.18,1.766,2.555,2.555,0,0,1-.192.85,4.852,4.852,0,0,1-.393.739,17.074,17.074,0,0,1-1.926,2.41l-.013.015-.018.009-6.079,2.915-1.677.787c-.18.081-.326.146-.442.2A.812.812,0,0,1,184.771,6951.756Z" transform="translate(-179.08 -6932.945)"/>
      </g>
      <g id="Group_94349" data-name="Group 94349" transform="translate(64.646 79.112)">
        <path id="Path_193530" data-name="Path 193530" d="M197.946,6939.232a28.008,28.008,0,0,1-4.747,2.93,27.982,27.982,0,0,1,4.747-2.93Z" transform="translate(-193.198 -6939.227)"/>
      </g>
      <g id="Group_94350" data-name="Group 94350" transform="translate(69.497 78.977)">
        <path id="Path_193531" data-name="Path 193531" d="M206.567,6938.976a32.925,32.925,0,0,1-4.308,4.241,32.925,32.925,0,0,1,4.308-4.241Z" transform="translate(-202.257 -6938.974)"/>
      </g>
      <g id="Group_94351" data-name="Group 94351" transform="translate(71.071 82.373)">
        <path id="Path_193532" data-name="Path 193532" d="M207.343,6945.32a9.832,9.832,0,0,1-2.141,2.514,9.832,9.832,0,0,1,2.141-2.514Z" transform="translate(-205.196 -6945.316)"/>
      </g>
      <g id="Group_94352" data-name="Group 94352" transform="translate(72.265 84.661)">
        <path id="Path_193533" data-name="Path 193533" d="M208.58,6949.594c.059.051-.185.422-.494.867s-.576.8-.645.764.1-.465.417-.923S208.523,6949.544,208.58,6949.594Z" transform="translate(-207.426 -6949.589)"/>
      </g>
      <g id="Group_94353" data-name="Group 94353" transform="translate(25.276 69.699)">
        <path id="Path_193534" data-name="Path 193534" d="M141.453,6958.732a.376.376,0,0,1,.067-.064l.21-.175c.2-.162.477-.386.831-.67l3.167-2.508,11.3-8.857-.047.092a5.642,5.642,0,0,0-.415-2.16,8.991,8.991,0,0,0-1.216-1.986,15.473,15.473,0,0,0-3.747-3.219l.123.007-7.586,3.3-7.065,3.066-.118.051-.058-.114c-1.945-3.825-3.737-7.426-5.56-10.552-.9-1.568-1.8-3.022-2.644-4.374s-1.617-2.608-2.4-3.689a13.637,13.637,0,0,0-4.564-4.232c-.317-.187-.61-.331-.865-.454s-.47-.225-.648-.3l-.4-.176a.7.7,0,0,1-.133-.069,12.269,12.269,0,0,1,2.093.914,11.939,11.939,0,0,1,2.236,1.529,15.7,15.7,0,0,1,2.425,2.683c.8,1.083,1.585,2.337,2.439,3.683s1.76,2.8,2.672,4.365c1.842,3.126,3.648,6.729,5.6,10.548l-.176-.062,7.063-3.072,7.588-3.293.065-.029.057.035a15.729,15.729,0,0,1,3.813,3.291,9.219,9.219,0,0,1,1.248,2.053,5.885,5.885,0,0,1,.425,2.266v.056l-.047.036-11.357,8.777-3.209,2.456-.853.64-.222.161A.3.3,0,0,1,141.453,6958.732Z" transform="translate(-119.675 -6921.648)" fill="#1a2e35"/>
      </g>
      <g id="Group_94354" data-name="Group 94354" transform="translate(41.717 93.181)">
        <path id="Path_193535" data-name="Path 193535" d="M150.387,6970.237c-.077-.033.328-1.041.559-2.345s.214-2.388.3-2.391a7.241,7.241,0,0,1-.856,4.736Z" transform="translate(-150.377 -6965.501)" fill="#1a2e35"/>
      </g>
      <path id="Path_193536" data-name="Path 193536" d="M262.236,6996.009,286.4,7028.12l-11.3,9.708-11.635-15.214Z" transform="translate(-160.62 -6886.49)" fill="#00262b"/>
      <path id="Path_193537" data-name="Path 193537" d="M166.7,6988.732s38.873-11.842,42.434-11.693,10.319,13,10.319,13l-10.913-.4-13.8,21.071-22.315-1.04Z" transform="translate(-116.243 -6877.679)" fill="#fff" stroke="#000" stroke-width="0.5"/>
      <g id="Group_94355" data-name="Group 94355" transform="translate(64.307 101.693)">
        <path id="Path_193538" data-name="Path 193538" d="M210.489,6981.4c.022.073-3.973,1.326-8.923,2.8s-8.982,2.6-9,2.53,3.973-1.327,8.924-2.8S210.468,6981.326,210.489,6981.4Z" transform="translate(-192.563 -6981.396)" fill="#1a2e35"/>
      </g>
      <path id="Path_193539" data-name="Path 193539" d="M231.227,7000.205h10.914a12.836,12.836,0,0,1,12.108,8.573h0a19.826,19.826,0,0,1,1.1,7.54l-.85,44.4H239.807l-.263-14.188-1.858-26.975-12.719.537-7.208-.448Z" transform="translate(-139.96 -6888.44)" fill="#fff" stroke="#000" stroke-width="0.5"/>
      <g id="Group_94356" data-name="Group 94356" transform="translate(77.798 111.543)">
        <path id="Path_193540" data-name="Path 193540" d="M231.551,6999.79a6.3,6.3,0,0,1-.206.938,24.749,24.749,0,0,1-.772,2.5,25.423,25.423,0,0,1-1.621,3.537,28.609,28.609,0,0,1-2.657,3.954,71.141,71.141,0,0,1-5.936,6.275l-1.885,1.812a6.153,6.153,0,0,1-.715.639,6.67,6.67,0,0,1,.638-.717c.422-.451,1.048-1.089,1.823-1.874,1.541-1.578,3.744-3.7,5.857-6.308a28.594,28.594,0,0,0,4.312-7.387c.388-1.03.684-1.87.852-2.463A6.338,6.338,0,0,1,231.551,6999.79Z" transform="translate(-217.758 -6999.79)" fill="#1a2e35"/>
      </g>
      <g id="Group_94357" data-name="Group 94357" transform="translate(91.415 111.599)">
        <path id="Path_193541" data-name="Path 193541" d="M256.711,7000.36a19.813,19.813,0,0,1-1.983-.1c-1.222-.07-2.912-.12-4.779-.081s-3.556.146-4.779.229a16.462,16.462,0,0,1-1.984.1,1.956,1.956,0,0,1,.524-.112c.339-.054.832-.118,1.443-.187,1.22-.133,2.914-.276,4.79-.312a41.543,41.543,0,0,1,4.8.164c.612.058,1.105.122,1.445.178A1.94,1.94,0,0,1,256.711,7000.36Z" transform="translate(-243.187 -6999.894)" fill="#1a2e35"/>
      </g>
      <g id="Group_94358" data-name="Group 94358" transform="translate(97.486 127.742)">
        <path id="Path_193542" data-name="Path 193542" d="M256.823,7066.466a1.848,1.848,0,0,1-.04-.369c-.016-.272-.035-.625-.059-1.063-.043-.956-.1-2.282-.175-3.907-.145-3.3-.344-7.857-.66-12.885s-.691-9.577-.962-12.868c-.132-1.621-.239-2.946-.316-3.9-.031-.437-.056-.79-.074-1.062a1.834,1.834,0,0,1-.007-.371,1.937,1.937,0,0,1,.063.366c.032.271.074.621.126,1.056l.405,3.892c.321,3.287.726,7.834,1.044,12.867s.484,9.594.578,12.895c.036,1.629.065,2.956.086,3.914q0,.656.007,1.063A1.849,1.849,0,0,1,256.823,7066.466Z" transform="translate(-254.524 -7030.042)" fill="#1a2e35"/>
      </g>
      <g id="Group_94359" data-name="Group 94359" transform="translate(114.867 126.167)">
        <path id="Path_193543" data-name="Path 193543" d="M287.528,7027.1c.077,0,.025,10.174-.116,22.721s-.318,22.719-.395,22.719-.025-10.173.116-22.723S287.451,7027.1,287.528,7027.1Z" transform="translate(-286.981 -7027.101)" fill="#1a2e35"/>
      </g>
      <g id="Group_94360" data-name="Group 94360" transform="translate(97.549 124.498)">
        <path id="Path_193544" data-name="Path 193544" d="M260.517,7023.994a15.91,15.91,0,0,0-5.873,3.6,2.96,2.96,0,0,1,.642-.809,10.234,10.234,0,0,1,4.219-2.588A2.957,2.957,0,0,1,260.517,7023.994Z" transform="translate(-254.642 -7023.984)" fill="#1a2e35"/>
      </g>
      <g id="Group_94361" data-name="Group 94361" transform="translate(77.799 111.687)" opacity="0.3">
        <path id="Path_193545" data-name="Path 193545" d="M217.759,7019.575a12.466,12.466,0,0,0,8.757-2,12.065,12.065,0,0,0,5.14-7.184c.325-1.315.424-2.678.746-3.994a6.061,6.061,0,0,1,1.987-3.456c1.244-.953,4.3-1.561,5.216-2.833,0-.193-3.628.24-4.846.308a28.115,28.115,0,0,1-3.5.26,34.856,34.856,0,0,1-1.281,3.9,77.131,77.131,0,0,1-12.216,15" transform="translate(-217.759 -7000.059)"/>
      </g>
      <path id="Path_193546" data-name="Path 193546" d="M95.072,6939.226s-5.788.229-7.561,2.659c-3.124,4.277-1.369,7.988-1.543,9.254s9.836,71.613,9.836,71.613h4.121l74.53.688,3.576-8.7-1.72-23.515-19.927.089s-8.159-23.423-15.294-24.989c-4.831-1.06-16.178-.686-23-.332a9.536,9.536,0,0,1-8.5-4.34Z" transform="translate(-78.586 -6860.114)" fill="#fff"/>
      <g id="Group_94362" data-name="Group 94362" transform="translate(11.017 80.739)">
        <path id="Path_193547" data-name="Path 193547" d="M164.57,7021.4s-.41.052-1.2.09-1.961.061-3.472.074c-3.022.039-7.409.054-12.873.049-10.928-.009-26.161-.095-43.383-.244h-.111l-.022-.107c-.31-1.475-.628-2.988-.95-4.528s-.623-3.108-.94-4.689c-3.742-19.075-5.935-36.551-7.114-49.226-.593-6.338-.948-11.478-1.173-15.03-.1-1.771-.173-3.147-.225-4.093-.021-.462-.039-.815-.05-1.064s-.008-.363-.008-.363.017.123.036.361l.078,1.063c.064.944.157,2.32.277,4.089.258,3.549.643,8.686,1.261,15.02,1.229,12.664,3.452,30.127,7.192,49.189.316,1.58.63,3.147.938,4.688l.948,4.525-.133-.109,43.38.336,12.872.035c1.5-.012,2.669-.019,3.47-.023.4,0,.694-.03.9-.034S164.57,7021.4,164.57,7021.4Z" transform="translate(-93.047 -6942.266)" fill="#1a2e35"/>
      </g>
      <g id="Group_94363" data-name="Group 94363" transform="translate(78.142 130.926)">
        <path id="Path_193548" data-name="Path 193548" d="M222.014,7068.256a1.578,1.578,0,0,1,.031-.335c.037-.247.084-.562.141-.949.067-.412.147-.914.212-1.5s.172-1.253.224-2c.067-.741.143-1.552.175-2.427.059-.873.061-1.808.074-2.791a59.444,59.444,0,0,0-.373-6.382,62.052,62.052,0,0,0-1.1-6.3c-.45-1.915-.936-3.622-1.4-5.035-.213-.714-.454-1.343-.644-1.9s-.37-1.036-.519-1.425l-.333-.9a1.563,1.563,0,0,1-.1-.321,1.5,1.5,0,0,1,.15.3l.382.882c.165.384.363.855.565,1.412s.459,1.183.685,1.895c.487,1.412.995,3.118,1.46,5.038a58.393,58.393,0,0,1,1.13,6.327,56.285,56.285,0,0,1,.353,6.416c-.02.986-.032,1.927-.1,2.8-.042.878-.129,1.691-.209,2.434s-.184,1.411-.266,2-.176,1.089-.259,1.5c-.079.385-.143.7-.193.941A1.5,1.5,0,0,1,222.014,7068.256Z" transform="translate(-218.401 -7035.987)" fill="#1a2e35"/>
      </g>
      <g id="Group_94364" data-name="Group 94364" transform="translate(27.141 105.446)">
        <path id="Path_193549" data-name="Path 193549" d="M123.158,6995.755a2.027,2.027,0,0,1,.3-.254l.9-.687.655-.492c.25-.164.532-.326.831-.507a19.846,19.846,0,0,1,2.071-1.158l1.242-.6c.431-.214.907-.37,1.385-.568.485-.181.974-.4,1.5-.568s1.067-.337,1.621-.511a46.405,46.405,0,0,1,7.4-1.541,54.019,54.019,0,0,1,7.544-.456c1.163-.021,2.266.073,3.3.11,1.029.1,1.99.163,2.861.285a37.424,37.424,0,0,1,4.092.751l1.09.3a2.067,2.067,0,0,1,.374.123,2.1,2.1,0,0,1-.389-.069l-1.1-.25c-.958-.2-2.352-.462-4.092-.661-.868-.111-1.827-.167-2.852-.251-1.029-.027-2.127-.112-3.285-.085a56.12,56.12,0,0,0-7.508.476,48.133,48.133,0,0,0-7.363,1.509q-.828.257-1.614.5c-.524.16-1.012.376-1.495.552-.476.192-.952.342-1.382.549s-.846.4-1.242.583a20.651,20.651,0,0,0-2.078,1.114c-.3.175-.585.33-.838.485l-.666.469-.927.642A2.138,2.138,0,0,1,123.158,6995.755Z" transform="translate(-123.158 -6988.405)" fill="#1a2e35"/>
      </g>
      <g id="Group_94433" data-name="Group 94433" transform="translate(115.55 3.572)">
        <path id="Path_193407" data-name="Path 193407" d="M544.9,7076.3v36.5h4.327l1.611-36.6Z" transform="translate(-438.68 -6927.313)" fill="#1a2e35"/>
        <path id="Path_193408" data-name="Path 193408" d="M412.018,7076.2l2.065,36.6h4.1l.047-36.5Z" transform="translate(-376.957 -6927.313)" fill="#1a2e35"/>
        <rect id="Rectangle_123361" data-name="Rectangle 123361" width="81.07" height="26.416" rx="6.543" transform="translate(28.272 125.263)" fill="#fff"/>
        <path id="Path_193409" data-name="Path 193409" d="M519.258,6982.6c.97-7.31,1.761-15.183-1.753-21.666-3.649-6.734-11.7-10.555-19.328-9.867s-14.588,5.519-18.605,12.038a33.482,33.482,0,0,0-4.163,22.132" transform="translate(-406.23 -6869.148)" fill="#fff"/>
        <g id="Group_94050" data-name="Group 94050" transform="translate(34.716 142.235)">
          <path id="Path_193410" data-name="Path 193410" d="M452.648,7063.916c0,.077-9.24.139-20.636.139s-20.638-.062-20.638-.139,9.238-.14,20.638-.14S452.648,7063.839,452.648,7063.916Z" transform="translate(-411.374 -7063.776)" fill="#1a2e35"/>
        </g>
        <g id="Group_94051" data-name="Group 94051" transform="translate(68.282 142.22)">
          <path id="Path_193411" data-name="Path 193411" d="M482.059,7063.748c.019.023-1.756,1.505-3.966,3.311s-4.017,3.248-4.036,3.223,1.755-1.505,3.966-3.311S482.039,7063.724,482.059,7063.748Z" transform="translate(-474.057 -7063.747)" fill="#fafafa"/>
        </g>
        <g id="Group_94052" data-name="Group 94052" transform="translate(43.67 133.694)">
          <path id="Path_193412" data-name="Path 193412" d="M452.824,7047.827c.018.025-5.5,3.957-12.332,8.781s-12.38,8.717-12.4,8.692,5.5-3.958,12.333-8.782S452.806,7047.8,452.824,7047.827Z" transform="translate(-428.094 -7047.827)" fill="#fafafa"/>
        </g>
        <g id="Group_94053" data-name="Group 94053" transform="translate(33.341 133.29)">
          <path id="Path_193413" data-name="Path 193413" d="M425.06,7047.074c.018.024-3.607,2.673-8.1,5.916s-8.143,5.849-8.16,5.825,3.605-2.674,8.1-5.916S425.042,7047.049,425.06,7047.074Z" transform="translate(-408.805 -7047.074)" fill="#fafafa"/>
        </g>
        <g id="Group_94054" data-name="Group 94054" transform="translate(32.839 127.602)">
          <path id="Path_193414" data-name="Path 193414" d="M416.226,7036.452a.353.353,0,0,1-.086.059l-.256.148-.944.542c-.794.463-1.877,1.126-3.032,1.919s-2.163,1.568-2.879,2.145c-.313.253-.593.482-.844.686l-.231.186a.545.545,0,0,1-.085.06s.021-.03.071-.077c.07-.066.141-.132.217-.2.19-.175.47-.42.823-.716.7-.592,1.708-1.378,2.866-2.174s2.251-1.451,3.057-1.9c.4-.225.732-.4.963-.512l.266-.13A.354.354,0,0,1,416.226,7036.452Z" transform="translate(-407.868 -7036.451)" fill="#fafafa"/>
        </g>
        <g id="Group_94055" data-name="Group 94055" transform="translate(94.829 94.295)">
          <path id="Path_193415" data-name="Path 193415" d="M541.35,6974.252s-.054.053-.162.146l-.478.4c-.416.348-1.027.838-1.79,1.435-1.525,1.2-3.673,2.793-6.123,4.447s-4.74,3.044-6.419,4.009c-.839.484-1.523.866-2,1.123l-.551.293c-.126.065-.2.1-.2.1s.062-.043.185-.116l.54-.312,1.982-1.152c1.668-.982,3.947-2.383,6.4-4.036s4.6-3.237,6.137-4.416l1.81-1.405.492-.383C541.286,6974.293,541.35,6974.252,541.35,6974.252Z" transform="translate(-523.631 -6974.252)" fill="#fafafa"/>
        </g>
        <g id="Group_94056" data-name="Group 94056" transform="translate(99.858 86.005)">
          <path id="Path_193416" data-name="Path 193416" d="M533.024,6958.772a.838.838,0,0,1,.225.108,7.036,7.036,0,0,1,.614.375,11.257,11.257,0,0,1,2.005,1.721,16.317,16.317,0,0,1,3.841,7.743,30.853,30.853,0,0,1,.377,8.681c-.089,1.109-.191,2-.27,2.62-.039.281-.072.514-.1.708a.863.863,0,0,1-.054.245,6.524,6.524,0,0,1,.046-.965c.045-.62.117-1.516.181-2.622a33.182,33.182,0,0,0-.453-8.61,16.758,16.758,0,0,0-3.714-7.668A16.206,16.206,0,0,0,533.024,6958.772Z" transform="translate(-533.023 -6958.771)" fill="#1a2e35"/>
        </g>
        <g id="Group_94057" data-name="Group 94057" transform="translate(99.1 86.912)">
          <path id="Path_193417" data-name="Path 193417" d="M540.237,6960.462s-.023.03-.075.074l-.23.192c-.2.167-.5.4-.866.683-.739.567-1.784,1.321-2.978,2.091s-2.313,1.411-3.134,1.851c-.41.221-.745.393-.979.507l-.271.13c-.063.029-.1.042-.1.037a.458.458,0,0,1,.087-.058l.261-.149.962-.536c.81-.456,1.918-1.107,3.111-1.876s2.242-1.51,2.992-2.06l.886-.655.243-.176A.381.381,0,0,1,540.237,6960.462Z" transform="translate(-531.607 -6960.462)" fill="#fafafa"/>
        </g>
        <g id="Group_94098" data-name="Group 94098" transform="translate(6.466 102.989)">
          <g id="Group_94096" data-name="Group 94096" transform="translate(0 61.788)">
            <g id="Group_94084" data-name="Group 94084">
              <g id="Group_94060" data-name="Group 94060" transform="translate(0.011)">
                <g id="Group_94059" data-name="Group 94059">
                  <g id="Group_94058" data-name="Group 94058">
                    <path id="Path_193418" data-name="Path 193418" d="M371.533,7105.966l.538,13.257s-13.295,5-13.433,7.458l25.741-.119.01-20.691Z" transform="translate(-358.637 -7105.872)" fill="#e8505b"/>
                  </g>
                </g>
              </g>
              <g id="Group_94064" data-name="Group 94064" transform="translate(20.146 12.156)" opacity="0.6">
                <g id="Group_94063" data-name="Group 94063">
                  <g id="Group_94062" data-name="Group 94062">
                    <g id="Group_94061" data-name="Group 94061">
                      <path id="Path_193419" data-name="Path 193419" d="M397.49,7128.616a1.052,1.052,0,0,1,.733,1.2,1.009,1.009,0,0,1-1.179.735,1.108,1.108,0,0,1-.769-1.27,1.048,1.048,0,0,1,1.311-.63" transform="translate(-396.238 -7128.574)" fill="#fff"/>
                    </g>
                  </g>
                </g>
              </g>
              <g id="Group_94067" data-name="Group 94067" transform="translate(0 18.605)" opacity="0.6">
                <g id="Group_94066" data-name="Group 94066">
                  <g id="Group_94065" data-name="Group 94065">
                    <path id="Path_193420" data-name="Path 193420" d="M384.369,7142.7l-.08-2.085-24.651.9s-1.143.5-1.01,1.31Z" transform="translate(-358.617 -7140.616)" fill="#fff"/>
                  </g>
                </g>
              </g>
              <g id="Group_94071" data-name="Group 94071" transform="translate(13.026 13.104)">
                <g id="Group_94070" data-name="Group 94070">
                  <g id="Group_94069" data-name="Group 94069">
                    <g id="Group_94068" data-name="Group 94068">
                      <path id="Path_193421" data-name="Path 193421" d="M382.942,7130.462c0,.125.633.18,1.254.581.631.384.952.928,1.068.878.116-.025-.075-.776-.835-1.249S382.914,7130.346,382.942,7130.462Z" transform="translate(-382.942 -7130.344)" fill="#1a2e35"/>
                    </g>
                  </g>
                </g>
              </g>
              <g id="Group_94075" data-name="Group 94075" transform="translate(10.33 14.3)">
                <g id="Group_94074" data-name="Group 94074">
                  <g id="Group_94073" data-name="Group 94073">
                    <g id="Group_94072" data-name="Group 94072">
                      <path id="Path_193422" data-name="Path 193422" d="M377.909,7132.629c-.028.122.517.334.947.863.445.516.555,1.091.68,1.085.118.018.2-.718-.344-1.366S377.911,7132.51,377.909,7132.629Z" transform="translate(-377.908 -7132.578)" fill="#1a2e35"/>
                    </g>
                  </g>
                </g>
              </g>
              <g id="Group_94079" data-name="Group 94079" transform="translate(7.797 15.425)">
                <g id="Group_94078" data-name="Group 94078">
                  <g id="Group_94077" data-name="Group 94077">
                    <g id="Group_94076" data-name="Group 94076">
                      <path id="Path_193423" data-name="Path 193423" d="M374.193,7136.843c.114.026.286-.6-.04-1.289s-.915-.958-.968-.854c-.07.1.313.471.572,1.039S374.068,7136.831,374.193,7136.843Z" transform="translate(-373.177 -7134.678)" fill="#1a2e35"/>
                    </g>
                  </g>
                </g>
              </g>
              <g id="Group_94083" data-name="Group 94083" transform="translate(13.234 9.73)">
                <g id="Group_94082" data-name="Group 94082">
                  <g id="Group_94081" data-name="Group 94081">
                    <g id="Group_94080" data-name="Group 94080">
                      <path id="Path_193424" data-name="Path 193424" d="M383.335,7124.5c.054.115.629-.061,1.34-.017s1.265.267,1.33.159c.072-.092-.47-.554-1.307-.6S383.273,7124.4,383.335,7124.5Z" transform="translate(-383.331 -7124.042)" fill="#1a2e35"/>
                    </g>
                  </g>
                </g>
              </g>
            </g>
            <g id="Group_94087" data-name="Group 94087" transform="translate(13.016 2.72)" opacity="0.3">
              <g id="Group_94086" data-name="Group 94086">
                <g id="Group_94085" data-name="Group 94085">
                  <path id="Path_193425" data-name="Path 193425" d="M382.923,7110.952l.093,2.363,12.651-.174.006-2.129Z" transform="translate(-382.923 -7110.952)"/>
                </g>
              </g>
            </g>
            <g id="Group_94091" data-name="Group 94091" transform="translate(13.18 5.422)">
              <g id="Group_94090" data-name="Group 94090">
                <g id="Group_94089" data-name="Group 94089">
                  <g id="Group_94088" data-name="Group 94088">
                    <path id="Path_193426" data-name="Path 193426" d="M383.229,7118.088a2.4,2.4,0,0,0,1.289-.013,5.908,5.908,0,0,0,1.347-.421,6.018,6.018,0,0,0,.738-.4,1.582,1.582,0,0,0,.388-.3.55.55,0,0,0,.055-.67.688.688,0,0,0-.552-.284,1.6,1.6,0,0,0-.483.069,4.543,4.543,0,0,0-1.986,1.063c-.594.556-.8,1.026-.753,1.052s.345-.354.952-.814a5.109,5.109,0,0,1,1.146-.652,4.656,4.656,0,0,1,.739-.232c.273-.072.5-.075.575.045.025.047.029.065-.028.145a1.293,1.293,0,0,1-.285.224,6.954,6.954,0,0,1-1.923.875A8.727,8.727,0,0,0,383.229,7118.088Z" transform="translate(-383.229 -7116)" fill="#1a2e35"/>
                  </g>
                </g>
              </g>
            </g>
            <g id="Group_94095" data-name="Group 94095" transform="translate(11.64 3.605)">
              <g id="Group_94094" data-name="Group 94094">
                <g id="Group_94093" data-name="Group 94093">
                  <g id="Group_94092" data-name="Group 94092">
                    <path id="Path_193427" data-name="Path 193427" d="M382.058,7116.689a2.056,2.056,0,0,0,.334-1.248,4.172,4.172,0,0,0-.182-1.41,4.223,4.223,0,0,0-.332-.781,1.066,1.066,0,0,0-.826-.647.6.6,0,0,0-.537.363,1.737,1.737,0,0,0-.13.472,2.86,2.86,0,0,0,0,.869,2.963,2.963,0,0,0,.557,1.329c.506.665,1.031.812,1.042.771.042-.065-.4-.306-.786-.944a2.977,2.977,0,0,1-.413-1.209,2.666,2.666,0,0,1,.02-.745c.039-.273.141-.5.243-.467.128,0,.346.2.453.419a4.342,4.342,0,0,1,.322.7,4.647,4.647,0,0,1,.256,1.285C382.122,7116.2,381.989,7116.67,382.058,7116.689Z" transform="translate(-380.354 -7112.604)" fill="#1a2e35"/>
                  </g>
                </g>
              </g>
            </g>
          </g>
          <path id="Path_193428" data-name="Path 193428" d="M414.573,6995.3l-29.743-4.691a10.329,10.329,0,0,0-8.211,2.256h0a10.335,10.335,0,0,0-3.727,8.349l2.114,54.137h18.348v-42.044l17.615.325,13.974-12.291,10.074-1.788,7.513-4.577Z" transform="translate(-365.244 -6990.486)" fill="#1a2e35"/>
          <g id="Group_94097" data-name="Group 94097" transform="translate(28.104 12.199)">
            <path id="Path_193429" data-name="Path 193429" d="M411.105,7013.267a.522.522,0,0,1,.019.135c.007.106.016.238.027.4.023.351.042.868.061,1.534.042,1.332.078,3.262.11,5.645.066,4.766.115,11.351.129,18.621s-.016,13.86-.08,18.626c-.032,2.383-.07,4.313-.124,5.645-.023.667-.047,1.185-.083,1.533-.015.162-.027.292-.036.4a.069.069,0,1,1-.028,0l.009-.4c.017-.349.024-.866.029-1.532.021-1.332.029-3.261.036-5.644,0-4.784,0-11.358,0-18.622C411.136,7025.291,411.109,7014.782,411.105,7013.267Z" transform="translate(-411.099 -7013.267)" fill="#375a64"/>
          </g>
        </g>
        <g id="Group_94137" data-name="Group 94137" transform="translate(60.958 163.185)">
          <g id="Group_94125" data-name="Group 94125">
            <g id="Group_94101" data-name="Group 94101" transform="translate(0.091)">
              <g id="Group_94100" data-name="Group 94100">
                <g id="Group_94099" data-name="Group 94099">
                  <path id="Path_193430" data-name="Path 193430" d="M461.352,7109.459l7.141,11.18s-8.967,11.015-7.849,13.21l22.178-13.069L472.409,7102.9Z" transform="translate(-460.548 -7102.902)" fill="#e8505b"/>
                </g>
              </g>
            </g>
            <g id="Group_94105" data-name="Group 94105" transform="translate(13.595 12.704)" opacity="0.6">
              <g id="Group_94104" data-name="Group 94104">
                <g id="Group_94103" data-name="Group 94103">
                  <g id="Group_94102" data-name="Group 94102">
                    <path id="Path_193431" data-name="Path 193431" d="M486.5,7126.658a1.051,1.051,0,0,1,1.235.664,1.01,1.01,0,0,1-.648,1.23,1.109,1.109,0,0,1-1.3-.71,1.049,1.049,0,0,1,.816-1.206" transform="translate(-485.766 -7126.625)" fill="#fff"/>
                  </g>
                </g>
              </g>
            </g>
            <g id="Group_94108" data-name="Group 94108" transform="translate(0 16.118)" opacity="0.6">
              <g id="Group_94107" data-name="Group 94107">
                <g id="Group_94106" data-name="Group 94106">
                  <path id="Path_193432" data-name="Path 193432" d="M482.743,7134.762l-1.12-1.761-20.845,13.188s-.734,1.012-.213,1.643Z" transform="translate(-460.378 -7133.001)" fill="#fff"/>
                </g>
              </g>
            </g>
            <g id="Group_94112" data-name="Group 94112" transform="translate(7.602 17.269)">
              <g id="Group_94111" data-name="Group 94111">
                <g id="Group_94110" data-name="Group 94110">
                  <g id="Group_94109" data-name="Group 94109">
                    <path id="Path_193433" data-name="Path 193433" d="M474.582,7135.718c.068.106.638-.163,1.376-.129.739.015,1.29.322,1.364.222.087-.081-.456-.633-1.35-.658S474.5,7135.633,474.582,7135.718Z" transform="translate(-474.575 -7135.151)" fill="#1a2e35"/>
                  </g>
                </g>
              </g>
            </g>
            <g id="Group_94116" data-name="Group 94116" transform="translate(5.847 19.91)">
              <g id="Group_94115" data-name="Group 94115">
                <g id="Group_94114" data-name="Group 94114">
                  <g id="Group_94113" data-name="Group 94113">
                    <path id="Path_193434" data-name="Path 193434" d="M471.3,7140.342c.037.12.615.027,1.253.268.645.224,1.029.664,1.134.6.112-.044-.187-.722-.985-1.007S471.242,7140.238,471.3,7140.342Z" transform="translate(-471.297 -7140.082)" fill="#1a2e35"/>
                  </g>
                </g>
              </g>
            </g>
            <g id="Group_94120" data-name="Group 94120" transform="translate(4.22 22.301)">
              <g id="Group_94119" data-name="Group 94119">
                <g id="Group_94118" data-name="Group 94118">
                  <g id="Group_94117" data-name="Group 94117">
                    <path id="Path_193435" data-name="Path 193435" d="M470.209,7145.979c.112-.036-.056-.666-.683-1.1s-1.273-.366-1.266-.249c-.009.125.508.249,1.017.609S470.1,7146.032,470.209,7145.979Z" transform="translate(-468.26 -7144.548)" fill="#1a2e35"/>
                  </g>
                </g>
              </g>
            </g>
            <g id="Group_94124" data-name="Group 94124" transform="translate(6.245 13.77)">
              <g id="Group_94123" data-name="Group 94123">
                <g id="Group_94122" data-name="Group 94122">
                  <g id="Group_94121" data-name="Group 94121">
                    <path id="Path_193436" data-name="Path 193436" d="M472.061,7129.954c.1.072.512-.37,1.149-.688s1.227-.407,1.229-.534c.017-.115-.684-.242-1.429.144S471.958,7129.9,472.061,7129.954Z" transform="translate(-472.042 -7128.615)" fill="#1a2e35"/>
                  </g>
                </g>
              </g>
            </g>
          </g>
          <g id="Group_94128" data-name="Group 94128" transform="translate(2.311 2.399)" opacity="0.3">
            <g id="Group_94127" data-name="Group 94127">
              <g id="Group_94126" data-name="Group 94126">
                <path id="Path_193437" data-name="Path 193437" d="M464.695,7113.751l1.27,2,10.841-6.522-1.067-1.843Z" transform="translate(-464.695 -7107.382)"/>
              </g>
            </g>
          </g>
          <g id="Group_94132" data-name="Group 94132" transform="translate(4.863 9.286)">
            <g id="Group_94131" data-name="Group 94131">
              <g id="Group_94130" data-name="Group 94130">
                <g id="Group_94129" data-name="Group 94129">
                  <path id="Path_193438" data-name="Path 193438" d="M469.463,7123.783c.025.045.493-.14,1.107-.661a5.842,5.842,0,0,0,.952-1.041,6.1,6.1,0,0,0,.438-.714,1.593,1.593,0,0,0,.182-.459.549.549,0,0,0-.29-.606.69.69,0,0,0-.621.033,1.693,1.693,0,0,0-.382.3,4.544,4.544,0,0,0-1.179,1.919,2.147,2.147,0,0,0-.122,1.287c.07.007.12-.479.412-1.181a5.133,5.133,0,0,1,.662-1.142,4.837,4.837,0,0,1,.522-.572c.2-.2.4-.321.519-.251.046.026.057.041.049.138a1.288,1.288,0,0,1-.134.336,6.969,6.969,0,0,1-.389.682,7.243,7.243,0,0,1-.831,1.043C469.827,7123.45,469.427,7123.725,469.463,7123.783Z" transform="translate(-469.461 -7120.242)" fill="#1a2e35"/>
                </g>
              </g>
            </g>
          </g>
          <g id="Group_94136" data-name="Group 94136" transform="translate(1.886 9.791)">
            <g id="Group_94135" data-name="Group 94135">
              <g id="Group_94134" data-name="Group 94134">
                <g id="Group_94133" data-name="Group 94133">
                  <path id="Path_193439" data-name="Path 193439" d="M467.113,7124.292a2.047,2.047,0,0,0-.339-1.245,4.181,4.181,0,0,0-1.548-1.635,1.066,1.066,0,0,0-1.039-.143.6.6,0,0,0-.281.583,1.729,1.729,0,0,0,.126.474,2.864,2.864,0,0,0,.44.749,2.952,2.952,0,0,0,1.15.868,1.66,1.66,0,0,0,1.288.141,10.765,10.765,0,0,1-1.153-.419,2.972,2.972,0,0,1-.967-.836,2.651,2.651,0,0,1-.358-.654c-.1-.256-.128-.5-.025-.526a.738.738,0,0,1,.6.135,4.2,4.2,0,0,1,.63.44,4.6,4.6,0,0,1,.868.981C466.921,7123.837,467.044,7124.31,467.113,7124.292Z" transform="translate(-463.901 -7121.186)" fill="#1a2e35"/>
                </g>
              </g>
            </g>
          </g>
        </g>
        <g id="Group_94163" data-name="Group 94163" transform="translate(8.829 60.075)">
          <g id="Group_94141" data-name="Group 94141">
            <g id="Group_94140" data-name="Group 94140">
              <g id="Group_94139" data-name="Group 94139">
                <g id="Group_94138" data-name="Group 94138">
                  <path id="Path_193440" data-name="Path 193440" d="M374.863,6927.03l-8.61-4.386c-2.243-.97-3.1-1.527-2.891-1.935.279-.544.146-.348,4.474.835,0,0-6.162-1.743-4.53-2.416a6.917,6.917,0,0,1,2.359.258c-1.565-.533-2.153-1.074-2.059-1.482.163-.7,3.85.156,5.565.595a34.672,34.672,0,0,1-4.67-1.482c-.767-.477.268-.824,1.206-.869,1.053-.05,7.209.536,8.995.612a1.054,1.054,0,0,0,1.221-1.037,6.651,6.651,0,0,1,1.285-5.223c.574-.457,1.393.177,1.169.956a9.672,9.672,0,0,0-.118,2.624,6.217,6.217,0,0,0,.459,2.044c.313.752.607,1.378.871,1.9l7.04,7-5.657,7.167Z" transform="translate(-363.031 -6910.347)" fill="#fff" stroke="#000" stroke-width="0.5"/>
                </g>
              </g>
            </g>
          </g>
          <g id="Group_94148" data-name="Group 94148" transform="translate(1.184 10.279)">
            <g id="Group_94147" data-name="Group 94147">
              <g id="Group_94146" data-name="Group 94146">
                <g id="Group_94145" data-name="Group 94145">
                  <g id="Group_94144" data-name="Group 94144">
                    <g id="Group_94143" data-name="Group 94143">
                      <g id="Group_94142" data-name="Group 94142">
                        <path id="Path_193441" data-name="Path 193441" d="M371.125,6931.331a23.3,23.3,0,0,1-5.881-1.767,23.192,23.192,0,0,1,5.881,1.767Z" transform="translate(-365.242 -6929.543)"/>
                      </g>
                    </g>
                  </g>
                </g>
              </g>
            </g>
          </g>
          <g id="Group_94155" data-name="Group 94155" transform="translate(1.817 8.724)">
            <g id="Group_94154" data-name="Group 94154">
              <g id="Group_94153" data-name="Group 94153">
                <g id="Group_94152" data-name="Group 94152">
                  <g id="Group_94151" data-name="Group 94151">
                    <g id="Group_94150" data-name="Group 94150">
                      <g id="Group_94149" data-name="Group 94149">
                        <path id="Path_193442" data-name="Path 193442" d="M372.8,6928.167a26.289,26.289,0,0,1-6.38-1.5,26.518,26.518,0,0,1,6.38,1.5Z" transform="translate(-366.424 -6926.638)"/>
                      </g>
                    </g>
                  </g>
                </g>
              </g>
            </g>
          </g>
          <g id="Group_94162" data-name="Group 94162" transform="translate(3.018 7.323)">
            <g id="Group_94161" data-name="Group 94161">
              <g id="Group_94160" data-name="Group 94160">
                <g id="Group_94159" data-name="Group 94159">
                  <g id="Group_94158" data-name="Group 94158">
                    <g id="Group_94157" data-name="Group 94157">
                      <g id="Group_94156" data-name="Group 94156">
                        <path id="Path_193443" data-name="Path 193443" d="M374.723,6925.394a23.717,23.717,0,0,1-6.055-1.342,23.662,23.662,0,0,1,6.055,1.342Z" transform="translate(-368.668 -6924.022)"/>
                      </g>
                    </g>
                  </g>
                </g>
              </g>
            </g>
          </g>
        </g>
        <g id="Group_94164" data-name="Group 94164" transform="translate(56.646 15.209)">
          <path id="Path_193444" data-name="Path 193444" d="M454.417,6828.607c2.192-.67,4.476,1.292,6.724.852,1.366-.269,2.4-1.359,3.612-2.038a7.017,7.017,0,0,1,6.241-.238c1.855.943,3.051,1.949,3.3,4.016,1.689-.97,4.507,1.155,5.466,3.208s.719,4.171.174,6.369a29.892,29.892,0,0,1-4.942,10.52c-.205.277-.532.585-.845.438a.753.753,0,0,1-.325-.605,25.026,25.026,0,0,1,.106-6.09,15.133,15.133,0,0,0-.381-6.054,5.909,5.909,0,0,0-4.15-4.089,6.46,6.46,0,0,0-4.319.925c-1.311.736-2.464,1.721-3.713,2.56a8.286,8.286,0,0,1-4.153,1.608,3.938,3.938,0,0,1-3.754-2,2.621,2.621,0,0,1,1.549-3.605,2.956,2.956,0,0,1-.594-5.771Z" transform="translate(-452.327 -6826.561)" fill="#2d2e2b"/>
        </g>
        <g id="Group_94185" data-name="Group 94185" transform="translate(60.103 18.092)">
          <g id="Group_94184" data-name="Group 94184">
            <g id="Group_94183" data-name="Group 94183">
              <g id="Group_94173" data-name="Group 94173">
                <g id="Group_94172" data-name="Group 94172">
                  <g id="Group_94171" data-name="Group 94171">
                    <g id="Group_94170" data-name="Group 94170">
                      <g id="Group_94169" data-name="Group 94169">
                        <g id="Group_94168" data-name="Group 94168">
                          <g id="Group_94167" data-name="Group 94167">
                            <g id="Group_94166" data-name="Group 94166">
                              <g id="Group_94165" data-name="Group 94165">
                                <path id="Path_193445" data-name="Path 193445" d="M479.779,6843.9l-2.178,22.727c-.371,3.864-4.424,9.6-8.265,9.036h0c-3.585-.523-5.6-6.737-5.254-10.343.165-1.711.3-3.137.306-3.314,0,0-5.734-1.1-5.6-6.864.063-2.788.661-8.516,1.262-13.692a10.744,10.744,0,0,1,11.05-9.493l.556.021C477.637,6832.534,480.5,6837.93,479.779,6843.9Z" transform="translate(-458.783 -6831.946)" fill="#fff" stroke="#000" stroke-width="0.5"/>
                              </g>
                            </g>
                          </g>
                        </g>
                      </g>
                    </g>
                  </g>
                </g>
              </g>
            </g>
          </g>
        </g>
        <g id="Group_94205" data-name="Group 94205" transform="translate(80.056 34.153)">
          <g id="Group_94194" data-name="Group 94194">
            <g id="Group_94193" data-name="Group 94193">
              <g id="Group_94192" data-name="Group 94192">
                <g id="Group_94191" data-name="Group 94191">
                  <g id="Group_94190" data-name="Group 94190">
                    <g id="Group_94189" data-name="Group 94189">
                      <g id="Group_94188" data-name="Group 94188">
                        <g id="Group_94187" data-name="Group 94187">
                          <g id="Group_94186" data-name="Group 94186">
                            <path id="Path_193447" data-name="Path 193447" d="M496.466,6862.08c.1-.039,4-1.033,3.737,2.9s-4.161,2.858-4.16,2.745S496.466,6862.08,496.466,6862.08Z" transform="translate(-496.043 -6861.94)" fill="#fff"/>
                          </g>
                        </g>
                      </g>
                    </g>
                  </g>
                </g>
              </g>
            </g>
          </g>
          <g id="Group_94204" data-name="Group 94204" transform="translate(1.298 1.312)">
            <g id="Group_94203" data-name="Group 94203">
              <g id="Group_94202" data-name="Group 94202">
                <g id="Group_94201" data-name="Group 94201">
                  <g id="Group_94200" data-name="Group 94200">
                    <g id="Group_94199" data-name="Group 94199">
                      <g id="Group_94198" data-name="Group 94198">
                        <g id="Group_94197" data-name="Group 94197">
                          <g id="Group_94196" data-name="Group 94196">
                            <g id="Group_94195" data-name="Group 94195">
                              <path id="Path_193448" data-name="Path 193448" d="M498.471,6867.455c.018-.009.065.053.178.114a.68.68,0,0,0,.511.046,1.7,1.7,0,0,0,.887-1.469,2.277,2.277,0,0,0-.126-1,.8.8,0,0,0-.48-.56.35.35,0,0,0-.418.161c-.06.106-.04.186-.062.192s-.08-.072-.037-.233a.434.434,0,0,1,.171-.235.526.526,0,0,1,.386-.076.972.972,0,0,1,.675.658,2.327,2.327,0,0,1,.164,1.113,1.785,1.785,0,0,1-1.114,1.633.74.74,0,0,1-.62-.146C498.472,6867.552,498.457,6867.463,498.471,6867.455Z" transform="translate(-498.466 -6864.39)"/>
                            </g>
                          </g>
                        </g>
                      </g>
                    </g>
                  </g>
                </g>
              </g>
            </g>
          </g>
        </g>
        <g id="Group_94207" data-name="Group 94207" transform="translate(61.419 16.295)">
          <g id="Group_94206" data-name="Group 94206">
            <path id="Path_193449" data-name="Path 193449" d="M461.24,6837.826a8.33,8.33,0,0,0,7.453-1.407c1.444-1.139,2.585-2.811,4.362-3.29a4.684,4.684,0,0,1,3.563.616,9.053,9.053,0,0,1,2.627,2.59c-1.216,2.89-.583,6.187.069,9.252a1.571,1.571,0,0,0,.427.926,1.253,1.253,0,0,0,1.583-.291,4.869,4.869,0,0,0,1.159-2.532,16.226,16.226,0,0,0,.186-6.394,11.039,11.039,0,0,0-2.838-5.676,10.457,10.457,0,0,0-7.236-3.028,12.852,12.852,0,0,0-7.54,2.4,7.532,7.532,0,0,0-2.517,2.7" transform="translate(-461.24 -6828.59)" fill="#2d2e2b"/>
          </g>
        </g>
        <g id="Group_94230" data-name="Group 94230" transform="translate(36.562 110.825)">
          <path id="Path_193460" data-name="Path 193460" d="M454.494,7005.908c-.478.044-31.043,3.662-35.843,6.354-2.653,1.489-2.417,4.093-2.83,5.2-1.618,4.344-.237,8.751,2.016,12.8l22.411,39.074,14.211-9.556L440.179,7028.6l21.866-2.147a11.9,11.9,0,0,0,9.969-9.271l2.6-12.059Z" transform="translate(-414.959 -7005.12)" fill="#1a2e35"/>
          <g id="Group_94228" data-name="Group 94228" transform="translate(21.508 15.249)">
            <path id="Path_193461" data-name="Path 193461" d="M472.979,7073.013c-.07.032-4.155-8.767-9.123-19.649s-8.94-19.734-8.87-19.766,4.154,8.764,9.124,19.65S473.049,7072.981,472.979,7073.013Z" transform="translate(-454.985 -7033.598)" fill="#375a64"/>
          </g>
          <g id="Group_94229" data-name="Group 94229" transform="translate(0 2.658)">
            <path id="Path_193462" data-name="Path 193462" d="M454.356,7010.089a.488.488,0,0,1-.142.023c-.11.012-.247.024-.418.041l-1.608.135-5.915.477c-4.993.411-11.9.932-19.505,1.66-.951.091-1.889.193-2.813.3-.456.067-.925.105-1.36.194a6.914,6.914,0,0,0-1.286.376,9.63,9.63,0,0,0-4.166,2.885,9.832,9.832,0,0,0-1.269,2.015,9.269,9.269,0,0,0-.646,2.153,14.314,14.314,0,0,0-.093,4.052,24.511,24.511,0,0,0,1.443,5.719c.252.651.477,1.147.633,1.479l.182.378a.072.072,0,1,1-.025.014c-.047-.082-.12-.2-.207-.366-.173-.326-.415-.815-.684-1.465a23.412,23.412,0,0,1-1.538-5.736,14.362,14.362,0,0,1,.06-4.116,9.495,9.495,0,0,1,.651-2.213,10,10,0,0,1,1.294-2.077,9.858,9.858,0,0,1,4.269-2.978,7.162,7.162,0,0,1,1.325-.391c.464-.095.918-.13,1.383-.2.927-.106,1.867-.209,2.819-.3,7.614-.727,14.519-1.219,19.518-1.579l5.922-.388,1.612-.083.42-.013A.6.6,0,0,1,454.356,7010.089Z" transform="translate(-414.82 -7010.083)" fill="#375a64"/>
          </g>
        </g>
        <path id="Path_193463" data-name="Path 193463" d="M455.77,6933.486l1.153-36.833-11.588-2.476-1.257-2.041-7.792,5.018-1.564,3.517-1.895-4.018-2.81-2.13-1.292,2.5-8.731,3.591a3.642,3.642,0,0,0-1.868,1.735l-9.8,19.566-17.383-12.042-5.383,9.479,20.122,17.141a8.329,8.329,0,0,0,11.291-2.226l5.159-7.33,2.166,12.342.355,12.511,15.151,2.825,21.222-1.971Z" transform="translate(-364.665 -6841.813)" fill="#fff" stroke="#000" stroke-width="0.5"/>
        <g id="Group_94231" data-name="Group 94231" transform="translate(74.367 102.989)" opacity="0.3">
          <path id="Path_193464" data-name="Path 193464" d="M485.419,7000.1a31.366,31.366,0,0,0,21-5.4l-1.158-4.216Z" transform="translate(-485.419 -6990.486)"/>
        </g>
        <path id="Path_193465" data-name="Path 193465" d="M492.576,6900.57s-7.218,2.216-7.781,9.525-.837,28.251-.837,28.251-1.125.843-.843,1.687-20.805,12.652-20.805,12.652l4.219,7.348a91.725,91.725,0,0,0,28.5-9.5c7.7-4.034,4.669-35.643,4.529-36.064S497.515,6900.552,492.576,6900.57Z" transform="translate(-400.318 -6845.73)" fill="#fff"/>
        <g id="Group_94232" data-name="Group 94232" transform="translate(54.976 66.322)">
          <path id="Path_193466" data-name="Path 193466" d="M453.861,6953.151a1.4,1.4,0,0,1-.083-.311l-.184-.9c-.155-.819-.367-1.944-.627-3.316-.256-1.414-.56-3.081-.895-4.926l-.517-2.91c-.135-1.017-.275-2.067-.418-3.145-.552-4.3-1.051-8.187-1.418-11.045-.165-1.388-.3-2.523-.4-3.352-.039-.372-.07-.674-.094-.913a1.369,1.369,0,0,1-.014-.321,1.416,1.416,0,0,1,.07.314c.038.236.087.536.146.9.12.826.284,1.957.486,3.339.388,2.855.915,6.739,1.5,11.032.141,1.076.279,2.128.412,3.145.174,1.008.341,1.982.5,2.912.313,1.849.6,3.518.835,4.933.223,1.379.406,2.507.54,3.331.054.37.1.671.133.908A1.371,1.371,0,0,1,453.861,6953.151Z" transform="translate(-449.208 -6922.013)" fill="#1a2e35"/>
        </g>
        <g id="Group_94233" data-name="Group 94233" transform="translate(61.864 54.84)">
          <path id="Path_193467" data-name="Path 193467" d="M466.417,6960.034a.877.877,0,0,1-.083-.121l-.223-.365-.848-1.431-3.14-5.388-.052-.089.1-.036a50.528,50.528,0,0,0,9.367-5.1c3.468-2.247,7.208-5.028,11.6-7.354l-.056.192a1.852,1.852,0,0,1,1.356-2.651l-.124.12.224-1.7a88.425,88.425,0,0,0,.581-14.673c-.092-2.258-.311-4.4-.438-6.406a28.114,28.114,0,0,1,.114-5.608,13.906,13.906,0,0,1,1.352-4.424,10.431,10.431,0,0,1,2.062-2.818,7.97,7.97,0,0,1,1.784-1.3c.221-.124.4-.189.52-.245a.983.983,0,0,1,.183-.071,9.182,9.182,0,0,0-2.411,1.693,10.459,10.459,0,0,0-2,2.811,13.88,13.88,0,0,0-1.3,4.379,28.26,28.26,0,0,0-.078,5.566c.137,2,.365,4.146.464,6.41a87.029,87.029,0,0,1-.56,14.718l-.225,1.7-.014.107-.11.01a1.582,1.582,0,0,0-1.145,2.234l.075.123-.131.07c-4.364,2.305-8.111,5.074-11.593,7.311a49.454,49.454,0,0,1-9.438,5.06l.045-.126,3.07,5.43c.346.622.616,1.108.808,1.453l.2.376A.592.592,0,0,1,466.417,6960.034Z" transform="translate(-462.071 -6900.57)" fill="#1a2e35" stroke="#000" stroke-width="0.2"/>
        </g>
        <g id="Group_94234" data-name="Group 94234" transform="translate(82.886 94.258)">
          <path id="Path_193468" data-name="Path 193468" d="M505.167,6978.125a7.116,7.116,0,0,0-3.839-3.934,1.868,1.868,0,0,1,.822.218,5.356,5.356,0,0,1,2.818,2.888A1.868,1.868,0,0,1,505.167,6978.125Z" transform="translate(-501.328 -6974.182)" fill="#1a2e35"/>
        </g>
        <g id="Group_94235" data-name="Group 94235" transform="translate(84.076 92.213)">
          <path id="Path_193469" data-name="Path 193469" d="M507.273,6974.522a8.488,8.488,0,0,0-3.721-4.152,5.558,5.558,0,0,1,3.721,4.152Z" transform="translate(-503.551 -6970.363)" fill="#1a2e35"/>
        </g>
        <g id="Group_94236" data-name="Group 94236" transform="translate(66.677 104.806)">
          <path id="Path_193470" data-name="Path 193470" d="M499.09,6993.882a1.317,1.317,0,0,1-.262.151l-.776.383c-.677.324-1.663.782-2.892,1.325-2.456,1.087-5.881,2.522-9.739,3.912a80.715,80.715,0,0,1-10.058,3.016c-1.32.261-2.388.472-3.14.532l-.861.088a1.334,1.334,0,0,1-.3.012,1.251,1.251,0,0,1,.3-.068l.852-.14c.743-.092,1.8-.332,3.111-.616a93.368,93.368,0,0,0,10.006-3.086c3.85-1.387,7.282-2.792,9.755-3.832l2.926-1.243.8-.334A1.186,1.186,0,0,1,499.09,6993.882Z" transform="translate(-471.06 -6993.88)" fill="#1a2e35"/>
        </g>
        <g id="Group_94237" data-name="Group 94237" transform="translate(64.059 54.911)">
          <path id="Path_193471" data-name="Path 193471" d="M469.735,6900.7c.014.018-.063.1-.158.269a5.173,5.173,0,0,0-.312.791,14.867,14.867,0,0,0-.569,2.773l-.043.4-.214-.342-.06-.1c-.607-.989-1.061-1.92-1.491-2.528s-.748-.946-.717-.979a3.018,3.018,0,0,1,.877.863,27.916,27.916,0,0,1,1.568,2.5l.058.094-.256.062a11.394,11.394,0,0,1,.663-2.813,3.488,3.488,0,0,1,.405-.782C469.618,6900.747,469.728,6900.691,469.735,6900.7Z" transform="translate(-466.17 -6900.702)" fill="#1a2e35"/>
        </g>
        <g id="Group_94238" data-name="Group 94238" transform="translate(71.617 53.489)">
          <path id="Path_193472" data-name="Path 193472" d="M488.175,6898.051c.026.039-.628.461-1.588,1.261a21.448,21.448,0,0,0-3.364,3.508,21.065,21.065,0,0,0-1.249,1.848l-.146.242-.092-.265c-.449-1.291-.825-2.4-1.082-3.191a7.664,7.664,0,0,1-.365-1.27,7.79,7.79,0,0,1,.519,1.216c.3.774.709,1.872,1.176,3.156l-.238-.023a18.838,18.838,0,0,1,1.254-1.881,18.577,18.577,0,0,1,3.463-3.494,14.656,14.656,0,0,1,1.226-.852A1.988,1.988,0,0,1,488.175,6898.051Z" transform="translate(-480.285 -6898.049)" fill="#1a2e35"/>
        </g>
        <g id="Group_94239" data-name="Group 94239" transform="translate(69.597 60.499)">
          <path id="Path_193473" data-name="Path 193473" d="M478.518,6944.32a1.531,1.531,0,0,1-.059-.334c-.03-.249-.069-.568-.117-.963-.1-.835-.221-2.046-.363-3.544-.283-3-.62-7.14-.895-11.724s-.434-8.738-.509-11.747c-.038-1.505-.059-2.722-.063-3.564,0-.4,0-.717,0-.968a.17.17,0,1,1,.056,0l.051.968c.037.876.089,2.083.152,3.559.126,3.006.317,7.156.59,11.738s.581,8.725.813,11.723c.114,1.474.207,2.678.274,3.552.027.4.048.716.065.967A1.55,1.55,0,0,1,478.518,6944.32Z" transform="translate(-476.512 -6911.138)" fill="#1a2e35"/>
        </g>
        <g id="Group_94240" data-name="Group 94240" transform="translate(67.172 84.579)">
          <path id="Path_193474" data-name="Path 193474" d="M487.075,6956.106a4.129,4.129,0,0,1-.482.614c-.322.386-.806.925-1.421,1.581a61.541,61.541,0,0,1-10.7,9.021c-.749.494-1.364.879-1.8,1.131a4.24,4.24,0,0,1-.686.372,4.124,4.124,0,0,1,.628-.463l1.745-1.2c1.466-1.026,3.453-2.5,5.542-4.255s3.873-3.469,5.133-4.739l1.482-1.517A4.223,4.223,0,0,1,487.075,6956.106Z" transform="translate(-471.983 -6956.106)" fill="#1a2e35"/>
        </g>
        <g id="Group_94241" data-name="Group 94241" transform="translate(69.73 95.535)">
          <path id="Path_193475" data-name="Path 193475" d="M476.856,6983.418a42.112,42.112,0,0,1,.11-6.851,42.135,42.135,0,0,1-.11,6.851Z" transform="translate(-476.761 -6976.567)" fill="#1a2e35"/>
        </g>
        <g id="Group_94248" data-name="Group 94248" transform="translate(43.534 79.86)">
          <path id="Path_193482" data-name="Path 193482" d="M428.854,6955.344a13.566,13.566,0,0,0-1.008-8.05,3.739,3.739,0,0,1,.609,1.062,10.253,10.253,0,0,1,.727,5.808A3.777,3.777,0,0,1,428.854,6955.344Z" transform="translate(-427.841 -6947.293)" fill="#1a2e35"/>
        </g>
        <path id="Path_193483" data-name="Path 193483" d="M489.221,7043.156c-2.24-10.023,1.587-27.235,8.724-34.62a31.746,31.746,0,0,1,28.176-8.973v44.083Z" transform="translate(-412.522 -6891.477)" fill="#fff"/>
        <g id="Group_94249" data-name="Group 94249" transform="translate(82.031 133.094)">
          <path id="Path_193484" data-name="Path 193484" d="M531.138,7046.708c.016.026-7,4.208-15.673,9.339s-15.716,9.271-15.732,9.245,7-4.207,15.675-9.34S531.122,7046.68,531.138,7046.708Z" transform="translate(-499.733 -7046.708)" fill="#fafafa"/>
        </g>
        <g id="Group_94250" data-name="Group 94250" transform="translate(76.284 118.092)">
          <path id="Path_193485" data-name="Path 193485" d="M526.152,7018.69s-.125.085-.369.237l-1.069.66-3.946,2.4c-3.336,2.023-7.954,4.8-13.074,7.838s-9.779,5.75-13.171,7.678c-1.7.961-3.072,1.737-4.031,2.257-.461.252-.828.452-1.1.6-.253.137-.388.2-.388.2s.128-.08.377-.222l1.093-.619,4.013-2.289c3.382-1.945,8.032-4.669,13.153-7.707l13.09-7.808,3.964-2.374,1.08-.641C526.019,7018.762,526.152,7018.69,526.152,7018.69Z" transform="translate(-489 -7018.69)" fill="#fafafa"/>
        </g>
        <g id="Group_94251" data-name="Group 94251" transform="translate(82.031 108.345)">
          <path id="Path_193486" data-name="Path 193486" d="M526.38,7000.488s-.089.057-.264.157l-.768.43-2.838,1.557c-2.4,1.3-5.736,3.075-9.428,5.014l-13.35,7.061s.089-.058.264-.157l.767-.431,2.838-1.556c2.4-1.3,5.736-3.076,9.429-5.016Z" transform="translate(-499.733 -7000.488)" fill="#fafafa"/>
        </g>
        <g id="Group_94252" data-name="Group 94252" transform="translate(75.777 107.938)">
          <path id="Path_193487" data-name="Path 193487" d="M524.957,7000.173a.794.794,0,0,1-.172-.006l-.5-.045c-.442-.03-1.088-.133-1.927-.171a35.622,35.622,0,0,0-7.09.253c-.371.056-.753.094-1.139.165l-1.179.239c-.808.136-1.619.4-2.473.618a30.082,30.082,0,0,0-5.208,2.1,26.581,26.581,0,0,0-9.646,8.329,36.009,36.009,0,0,0-3.3,5.791,41.006,41.006,0,0,0-2.175,5.822,48.785,48.785,0,0,0-1.273,5.482c-.269,1.745-.47,3.377-.554,4.876a44.249,44.249,0,0,0,.1,7.1c.052.839.179,1.481.22,1.921l.058.5a.087.087,0,1,1-.028,0c-.022-.127-.05-.291-.085-.5-.059-.438-.2-1.079-.273-1.918a41.65,41.65,0,0,1-.186-7.126c.071-1.506.261-3.147.523-4.9a48.068,48.068,0,0,1,1.255-5.518,40.84,40.84,0,0,1,2.172-5.864,35.961,35.961,0,0,1,3.322-5.836,26.64,26.64,0,0,1,9.757-8.4,29.99,29.99,0,0,1,5.26-2.09c.861-.216,1.68-.476,2.494-.608l1.188-.231c.389-.069.774-.1,1.148-.158a33.912,33.912,0,0,1,7.124-.166c.841.055,1.486.175,1.926.224l.5.073A.777.777,0,0,1,524.957,7000.173Z" transform="translate(-488.054 -6999.729)" fill="#1a2e35"/>
        </g>
        <path id="Path_193488" data-name="Path 193488" d="M449.235,6998.4a17.355,17.355,0,0,1-3.551-.465,12.207,12.207,0,0,0-4.295-.543c-1,.156-3.56,1.164-5.189,1.63s-2.948.077-3.026.854.776,1.741,2.405,1.741c0,0-1.784.586-1.474.975s.854,1.318,1.629,1.318a1.653,1.653,0,0,0,1.4,1.552s.465,1.164,2.715,1.706c0,0-.174,1.009,1.543,1.32s11.337-4.035,11.337-4.035Z" transform="translate(-386.782 -6890.687)" fill="#fff" stroke="#000" stroke-width="0.5"/>
        <g id="Group_94371" data-name="Group 94371" transform="translate(11.205 17.806)">
          <g id="Group_94366" data-name="Group 94366" transform="translate(13.545)">
            <g id="Group_94365" data-name="Group 94365">
              <path id="Path_193550" data-name="Path 193550" d="M392.762,6833.079a1.667,1.667,0,1,0,1.667-1.667A1.667,1.667,0,0,0,392.762,6833.079Z" transform="translate(-392.762 -6831.412)" fill="#1a2e35"/>
            </g>
          </g>
          <g id="Group_94368" data-name="Group 94368" transform="translate(6.876)">
            <g id="Group_94367" data-name="Group 94367">
              <circle id="Ellipse_1480" data-name="Ellipse 1480" cx="1.667" cy="1.667" r="1.667" fill="#1a2e35"/>
            </g>
          </g>
          <g id="Group_94370" data-name="Group 94370">
            <g id="Group_94369" data-name="Group 94369">
              <path id="Path_193551" data-name="Path 193551" d="M367.69,6832.247a1.667,1.667,0,1,0,2.277-.609A1.667,1.667,0,0,0,367.69,6832.247Z" transform="translate(-367.467 -6831.414)" fill="#1a2e35"/>
            </g>
          </g>
        </g>
        <g id="Group_94374" data-name="Group 94374">
          <g id="Group_94373" data-name="Group 94373">
            <g id="Group_94372" data-name="Group 94372">
              <path id="Path_193552" data-name="Path 193552" d="M366.187,6798.166a2.006,2.006,0,0,0-.337-.005l-.99.028c-.217.01-.462.01-.73.032l-.873.122-1.02.147-1.139.282a18.442,18.442,0,0,0-5.52,2.407,19.481,19.481,0,0,0-8.949,14.643,20.276,20.276,0,0,0-.054,2.669c.032.451.022.91.088,1.366l.207,1.375a19.6,19.6,0,0,0,1.855,5.433,20.938,20.938,0,0,0,3.548,4.882,20.463,20.463,0,0,0,5.112,3.672,18.584,18.584,0,0,0,6.231,1.913,12.479,12.479,0,0,0,1.662.142,15.285,15.285,0,0,0,1.68.03,20.093,20.093,0,0,0,3.365-.424,19.654,19.654,0,0,0,6.7-2.82l-.2.022q3.484,1.4,6.824,2.738l.4.162-.115-.419q-1.033-3.757-2.006-7.3l-.035.181a19.576,19.576,0,0,0,3.641-8.336,17.715,17.715,0,0,0,.266-4.271,13.733,13.733,0,0,0-.194-2.053c-.052-.334-.1-.667-.155-1s-.161-.646-.239-.967a19.516,19.516,0,0,0-7.613-11.1,18.642,18.642,0,0,0-4.531-2.391l-1.021-.365-.969-.246-.887-.22c-.284-.055-.559-.083-.816-.123-.516-.066-.969-.155-1.367-.175s-.724-.024-1-.034c-.254,0-.456-.008-.612-.013a.953.953,0,0,0-.207.007.91.91,0,0,0,.207.029l.61.048,1,.067c.394.03.843.13,1.354.206a19.408,19.408,0,0,1,15.517,14.394c.074.314.171.628.23.95s.1.651.147.98a13.424,13.424,0,0,1,.181,2.015,17.414,17.414,0,0,1-.277,4.187,19.222,19.222,0,0,1-3.591,8.155l-.061.081.027.1,1.991,7.3.289-.257-6.82-2.746-.107-.043-.1.063a19.263,19.263,0,0,1-6.55,2.754,19.5,19.5,0,0,1-3.29.417,14.978,14.978,0,0,1-1.643-.029,12.08,12.08,0,0,1-1.625-.138,18.148,18.148,0,0,1-6.094-1.863,20.149,20.149,0,0,1-5.007-3.583,20.571,20.571,0,0,1-3.485-4.771,19.248,19.248,0,0,1-1.835-5.315q-.1-.679-.208-1.347c-.066-.447-.059-.9-.092-1.34a19.235,19.235,0,0,1,8.758-17.087,18.538,18.538,0,0,1,5.431-2.448l1.125-.3,1.008-.165.865-.143c.266-.03.509-.037.724-.054l.985-.072A1.807,1.807,0,0,0,366.187,6798.166Z" transform="translate(-346.543 -6798.159)" fill="#1a2e35"/>
            </g>
          </g>
        </g>
      </g>
    </g>
    <g id="Group_94435" data-name="Group 94435" transform="translate(0 141.903)">
      <g id="Group_94434" data-name="Group 94434" transform="translate(0 0)">
        <path id="Path_193620" data-name="Path 193620" d="M240.708,5188.1c0,.094-58.328.169-130.262.169-71.959,0-130.275-.075-130.275-.169s58.315-.169,130.275-.169C182.38,5187.935,240.708,5188.011,240.708,5188.1Z" transform="translate(19.829 -5187.935)" fill="#1a2e35"/>
      </g>
    </g>
  </g>
</svg>
