<svg xmlns="http://www.w3.org/2000/svg" width="190.526" height="175.13" viewBox="0 0 190.526 175.13">
  <g id="Group_103038" data-name="Group 103038" transform="translate(-297.773 6223.201)">
    <g id="Group_96555" data-name="Group 96555" transform="translate(297.957 -6223.201)">
      <g id="Group_96319" data-name="Group 96319" transform="translate(0 125.491)">
        <g id="Group_96309" data-name="Group 96309">
          <g id="Group_96308" data-name="Group 96308">
            <g id="Group_96307" data-name="Group 96307">
              <path id="Path_194812" data-name="Path 194812" d="M897.671,522.666a11.572,11.572,0,0,0-5.649-3.688c-3.227-.691-7.147,1.153-8.646,0s-6.34-1.819-6.917-.16.23,3.618,3.458,3.849a37.483,37.483,0,0,1,6.225,1.038s-17.176,10.606-18.1,11.759-1.844,2.306-1.037,3.228,3.919-1.384,3.919-1.384l7.839-.922a27.41,27.41,0,0,0,7.493.577c3.458-.346,7.148-2.883,7.148-2.883l8.069-1.268S903.2,524.626,897.671,522.666Z" transform="translate(-866.698 -517.821)" fill="#fff" stroke="#000" stroke-width="0.5"/>
            </g>
          </g>
        </g>
        <g id="Group_96312" data-name="Group 96312" transform="translate(4.421 15.174)">
          <g id="Group_96311" data-name="Group 96311">
            <g id="Group_96310" data-name="Group 96310">
              <path id="Path_194813" data-name="Path 194813" d="M872.751,542.166c.037-.011-.01-.19.019-.5a2.135,2.135,0,0,1,.518-1.172,7.15,7.15,0,0,1,3.948-1.844,18.965,18.965,0,0,1,4.509-.127,8.136,8.136,0,0,0,1.9.05,6.766,6.766,0,0,0-1.869-.4,14.983,14.983,0,0,0-4.631-.01,6.8,6.8,0,0,0-4.135,2.112,2.11,2.11,0,0,0-.436,1.386C872.61,542.014,872.726,542.178,872.751,542.166Z" transform="translate(-872.573 -537.988)" fill="#313131"/>
            </g>
          </g>
        </g>
        <g id="Group_96315" data-name="Group 96315" transform="translate(9.968 11.846)">
          <g id="Group_96314" data-name="Group 96314">
            <g id="Group_96313" data-name="Group 96313">
              <path id="Path_194814" data-name="Path 194814" d="M879.948,536.634a19.8,19.8,0,0,0,5.421-3.055,19.834,19.834,0,0,0-5.421,3.055Z" transform="translate(-879.945 -533.564)" fill="#313131"/>
            </g>
          </g>
        </g>
        <g id="Group_96318" data-name="Group 96318" transform="translate(16.6 8.817)">
          <g id="Group_96317" data-name="Group 96317">
            <g id="Group_96316" data-name="Group 96316">
              <path id="Path_194815" data-name="Path 194815" d="M890.444,529.547a4.6,4.6,0,0,0-1.2,5.56,8.449,8.449,0,0,1,1.2-5.56Z" transform="translate(-888.759 -529.539)" fill="#313131"/>
            </g>
          </g>
        </g>
      </g>
      <g id="Group_96360" data-name="Group 96360" transform="translate(28.801 67.104)">
        <g id="Group_96323" data-name="Group 96323" transform="translate(62.233 0.77)">
          <g id="Group_96322" data-name="Group 96322">
            <g id="Group_96321" data-name="Group 96321">
              <g id="Group_96320" data-name="Group 96320">
                <path id="Path_194816" data-name="Path 194816" d="M1062.125,451.034,1037.3,445.2l-2.343-3.955-24.9.4-5.785,6.191-16.6,8.145,13.929,58.476,46.733,2.4Z" transform="translate(-987.682 -441.248)" fill="#263238"/>
              </g>
            </g>
          </g>
        </g>
        <g id="Group_96326" data-name="Group 96326" transform="translate(0 13.646)">
          <g id="Group_96325" data-name="Group 96325">
            <g id="Group_96324" data-name="Group 96324">
              <path id="Path_194817" data-name="Path 194817" d="M910.543,502.412l18.8,1.8a13.657,13.657,0,0,1,7.372,0c3.608,1.172,9.411-3.063,9.411-3.063l8.157-12.235s3.607-25.1,7.843-27.764,4.611-2.786,4.611-2.786l7.444,46.21-9.859,16.183s-8.785,8.156-12.392,7.843-46.957-6.219-46.957-6.219Z" transform="translate(-904.974 -458.361)" fill="#fff" stroke="#000" stroke-width="0.5"/>
            </g>
          </g>
        </g>
        <g id="Group_96329" data-name="Group 96329" transform="translate(98.722)">
          <g id="Group_96328" data-name="Group 96328">
            <g id="Group_96327" data-name="Group 96327">
              <path id="Path_194818" data-name="Path 194818" d="M1055.015,445.993l-8.271-5.768,2.142,8.974-12.711,47.47s1.223,35.549.733,51.331h42.826l-11.382-19.414,6.18-78.354Z" transform="translate(-1036.175 -440.225)" fill="#fff" stroke="#000" stroke-width="0.5"/>
            </g>
          </g>
        </g>
        <g id="Group_96332" data-name="Group 96332" transform="translate(60.957 0.447)">
          <g id="Group_96331" data-name="Group 96331">
            <g id="Group_96330" data-name="Group 96330">
              <path id="Path_194819" data-name="Path 194819" d="M1026.041,548.148l-1.9-52.859s-11.7-13.817-13.652-27.718-2.584-21.4-2.584-21.4l1.737-5.351-6.483,6.528s-3.846,1.335-4.67,1.641a134.982,134.982,0,0,0-12.5,5.5l9.386,72.815s-5.553,11.608-9.386,20.848Z" transform="translate(-985.985 -440.819)" fill="#fff" stroke="#000" stroke-width="0.5"/>
            </g>
          </g>
        </g>
        <g id="Group_96335" data-name="Group 96335" transform="translate(62.233 35.839)">
          <g id="Group_96334" data-name="Group 96334">
            <g id="Group_96333" data-name="Group 96333">
              <path id="Path_194820" data-name="Path 194820" d="M995.157,531.937c.434,2.33.8,4.214,1.063,5.512.129.612.233,1.106.315,1.494a.268.268,0,1,0,.087-.017c-.061-.39-.139-.89-.235-1.508-.228-1.362-.542-3.239-.926-5.536-.793-4.723-1.873-11.155-3.066-18.264-1.2-7.131-2.324-13.582-3.193-18.242-.433-2.33-.8-4.214-1.062-5.512l-.316-1.494a.268.268,0,1,0-.087.017l.235,1.508c.227,1.363.541,3.24.926,5.536.792,4.722,1.872,11.154,3.065,18.26" transform="translate(-987.681 -487.855)" fill="#263238"/>
            </g>
          </g>
        </g>
        <g id="Group_96338" data-name="Group 96338" transform="translate(99.708 5.767)">
          <g id="Group_96337" data-name="Group 96337">
            <g id="Group_96336" data-name="Group 96336">
              <path id="Path_194821" data-name="Path 194821" d="M1037.486,508.033a3.138,3.138,0,0,0,.432-.422l1.181-1.277,4.338-4.812L1058.114,485l.09-.1-.037-.131c-.746-2.687-1.529-5.509-2.333-8.406l-1.035-3.715-.236.323,9.736-.375.332-.013-.115-.31c-2.64-7.107-4.9-13.2-6.524-17.562l-1.915-5.034c-.218-.55-.393-.991-.529-1.333a2.365,2.365,0,0,0-.207-.451,2.294,2.294,0,0,0,.131.479l.457,1.36,1.786,5.081,6.351,17.625.217-.322-9.737.346-.322.011.086.311,1.033,3.715,2.345,8.4.053-.232L1043.2,501.309c-1.774,2.062-3.2,3.722-4.227,4.91l-1.118,1.333A3.1,3.1,0,0,0,1037.486,508.033Z" transform="translate(-1037.485 -447.89)" fill="#263238"/>
            </g>
          </g>
        </g>
        <g id="Group_96341" data-name="Group 96341" transform="translate(99.194 54.134)">
          <g id="Group_96340" data-name="Group 96340">
            <g id="Group_96339" data-name="Group 96339">
              <path id="Path_194822" data-name="Path 194822" d="M1038.5,565.815c.141-.005-.115-12.019-.573-26.831s-.944-26.82-1.086-26.815.116,12.017.574,26.833S1038.359,565.819,1038.5,565.815Z" transform="translate(-1036.802 -512.169)" fill="#263238"/>
            </g>
          </g>
        </g>
        <g id="Group_96344" data-name="Group 96344" transform="translate(74.454 6.716)">
          <g id="Group_96343" data-name="Group 96343">
            <g id="Group_96342" data-name="Group 96342">
              <path id="Path_194823" data-name="Path 194823" d="M1007.658,449.15a2.765,2.765,0,0,0-.111.557c-.06.415-.139.951-.236,1.621l-.8,6.048c-.643,5.208-1.533,12.416-2.552,20.671l-.041.333.331-.057,5.4-.929-.276-.355c-.327.731-.677,1.512-1.029,2.3-.692,1.552-1.374,3.078-2.022,4.529l-.065.147.1.121,14.961,17.345,4.478,5.112,1.225,1.363c.284.308,2.139,1.7,2.151,1.691s-1.819-1.425-2.079-1.753l-1.158-1.421-4.361-5.212-14.832-17.455.038.269c.649-1.45,1.333-2.977,2.026-4.527l1.028-2.3.2-.438-.472.082-5.394.94.291.275c.949-8.263,1.777-15.479,2.376-20.691.272-2.542.491-4.594.648-6.066.063-.673.113-1.214.152-1.63A2.766,2.766,0,0,0,1007.658,449.15Z" transform="translate(-1003.923 -449.15)" fill="#263238"/>
            </g>
          </g>
        </g>
        <g id="Group_96347" data-name="Group 96347" transform="translate(99.708 30.178)" opacity="0.3">
          <g id="Group_96346" data-name="Group 96346">
            <g id="Group_96345" data-name="Group 96345">
              <path id="Path_194824" data-name="Path 194824" d="M1064.291,480.384c-.166.532-3.66,1.065-4.271,2.541a7.265,7.265,0,0,0,.122,4.7,14.068,14.068,0,0,1,.89,4.682c-.193,2.859-2.448,5.09-4.558,7.029-5.9,5.423-13.093,11.307-18.989,16.729,5.223-6.661,12.034-13.561,17.807-19.751a8.267,8.267,0,0,0,2.1-3.069,8.174,8.174,0,0,0-.441-4.62l-1.774-5.983c-.152-.512-.482-1.377-.561-1.66a12.75,12.75,0,0,1,2.193-.266,54.83,54.83,0,0,1,7.479-.331" transform="translate(-1037.486 -480.331)"/>
            </g>
          </g>
        </g>
        <g id="Group_96350" data-name="Group 96350" transform="translate(128.878 10.008)">
          <g id="Group_96349" data-name="Group 96349">
            <g id="Group_96348" data-name="Group 96348">
              <path id="Path_194825" data-name="Path 194825" d="M1084.453,453.525a18.508,18.508,0,0,1,10.73,11.625c2.553,8.746,4.539,20.946,7.093,28.607s.568,8.228,1.987,11.349,7.377,12.509,2.838,19.447-9.08,10.911-17.592,7.506a38.023,38.023,0,0,1-13.256-8.721Z" transform="translate(-1076.252 -453.525)" fill="#fff" stroke="#000" stroke-width="0.5"/>
            </g>
          </g>
        </g>
        <g id="Group_96353" data-name="Group 96353" transform="translate(131.323 26.027)">
          <g id="Group_96352" data-name="Group 96352">
            <g id="Group_96351" data-name="Group 96351">
              <path id="Path_194826" data-name="Path 194826" d="M1090.33,474.815a3.418,3.418,0,0,0-.047.658c-.01.476-.022,1.1-.039,1.881q-.007.62-.017,1.358c-.023.5-.078,1.034-.12,1.612-.1,1.156-.154,2.476-.388,3.92q-.148,1.086-.309,2.27c-.116.788-.29,1.6-.44,2.446-.282,1.694-.717,3.482-1.135,5.369-.909,3.761-2.041,7.866-3.258,12.171s-2.314,8.431-3.166,12.217c-.383,1.9-.788,3.7-1.026,5.411-.129.852-.279,1.673-.375,2.467l-.234,2.29c-.186,1.456-.184,2.785-.232,3.948-.015.582-.045,1.123-.042,1.621q.034.741.063,1.363c.042.781.077,1.407.1,1.883a3.308,3.308,0,0,0,.069.654,3.4,3.4,0,0,0,.028-.659c0-.476-.006-1.1-.012-1.881q-.009-.62-.019-1.358c.01-.5.054-1.035.082-1.614.074-1.157.094-2.478.3-3.925q.127-1.089.264-2.275c.105-.789.265-1.6.4-2.452.253-1.7.672-3.49,1.066-5.382.873-3.768,1.98-7.88,3.2-12.186s2.338-8.421,3.226-12.2c.408-1.9.829-3.691,1.1-5.4.142-.851.306-1.668.414-2.461s.19-1.555.279-2.284c.213-1.452.242-2.781.318-3.942.029-.582.071-1.122.08-1.62q-.013-.742-.026-1.363c-.021-.783-.038-1.409-.052-1.886A3.319,3.319,0,0,0,1090.33,474.815Z" transform="translate(-1079.502 -474.815)" fill="#263238"/>
            </g>
          </g>
        </g>
        <g id="Group_96356" data-name="Group 96356" transform="translate(134.799 56.693)">
          <g id="Group_96355" data-name="Group 96355">
            <g id="Group_96354" data-name="Group 96354">
              <path id="Path_194827" data-name="Path 194827" d="M1084.121,516.549c.022.087,1.213-.228,3.174-.425a24.8,24.8,0,0,1,14.786,3.164c1.709.982,2.667,1.756,2.722,1.686.022-.026-.2-.238-.627-.6a16.124,16.124,0,0,0-1.916-1.384,22.591,22.591,0,0,0-15.007-3.211,16.2,16.2,0,0,0-2.315.479A2.955,2.955,0,0,0,1084.121,516.549Z" transform="translate(-1084.121 -515.569)" fill="#263238"/>
            </g>
          </g>
        </g>
        <g id="Group_96359" data-name="Group 96359" transform="translate(39.818 57.561)">
          <g id="Group_96358" data-name="Group 96358">
            <g id="Group_96357" data-name="Group 96357">
              <path id="Path_194828" data-name="Path 194828" d="M957.893,516.728c-.04.073.844.57,2.148,1.536a24.347,24.347,0,0,1,7.82,9.772c.656,1.485.948,2.456,1.028,2.433a2.034,2.034,0,0,0-.116-.707,14.548,14.548,0,0,0-.591-1.859,21.169,21.169,0,0,0-7.941-9.923,14.376,14.376,0,0,0-1.683-.983C958.144,516.794,957.909,516.7,957.893,516.728Z" transform="translate(-957.891 -516.723)" fill="#263238"/>
            </g>
          </g>
        </g>
      </g>
      <g id="Group_96541" data-name="Group 96541" transform="translate(81.602 0)">
        <g id="Group_96363" data-name="Group 96363">
          <g id="Group_96362" data-name="Group 96362">
            <g id="Group_96361" data-name="Group 96361">
              <path id="Path_194829" data-name="Path 194829" d="M1025.943,364.11c2.558-1.624,3.176-5.391,1.79-8.085a9.88,9.88,0,0,0-7.32-4.813,13.948,13.948,0,0,0-12.016,3.981c-1.651,1.7-2.989,3.918-5.227,4.7-1.968.685-4.145.066-6.211.334a9.371,9.371,0,0,0-6.563,4.733,20.24,20.24,0,0,0-2.335,7.983c-.3,2.546-.5,5.339-2.266,7.2-1.722,1.811-4.442,2.195-6.584,3.484a9.012,9.012,0,0,0-2.677,12.31c.848,1.237,2.065,2.371,2.163,3.868.089,1.366-.793,2.582-1.207,3.887a6.083,6.083,0,0,0,5.2,7.554c1.776.1,3.68-.591,5.272.2s2.17,2.7,3.182,4.146a7.606,7.606,0,0,0,9.275,2.4c1.307-.64,2.54-1.7,3.992-1.6s2.59,1.335,4.016,1.61c1.867.361,3.639-1.014,4.749-2.557s1.883-3.363,3.3-4.626c1.86-1.655,4.473-2.063,6.827-2.874a19.257,19.257,0,0,0,10.875-26.977" transform="translate(-975.146 -351.045)" fill="#263238"/>
            </g>
          </g>
        </g>
        <g id="Group_96370" data-name="Group 96370" transform="translate(20.45 13.026)">
          <g id="Group_96369" data-name="Group 96369">
            <g id="Group_96368" data-name="Group 96368">
              <g id="Group_96367" data-name="Group 96367">
                <g id="Group_96366" data-name="Group 96366">
                  <g id="Group_96365" data-name="Group 96365">
                    <g id="Group_96364" data-name="Group 96364">
                      <path id="Path_194830" data-name="Path 194830" d="M1038.248,428.2l.366-18.257,3.465-30.792a4.237,4.237,0,0,0-3.668-4.4L1016.1,368.43c-7.175-.965-12.212,7.761-12.872,14.97-.734,8.011-1.314,17.819-.533,23.833,1.57,12.094,10.754,13.888,10.754,13.888,0-.041-.319,7.667-.319,7.667l13.883,11.134Z" transform="translate(-1002.325 -368.356)" fill="#fff"/>
                    </g>
                  </g>
                </g>
              </g>
            </g>
          </g>
        </g>
        <g id="Group_96511" data-name="Group 96511" transform="translate(12.407 6.919)">
          <g id="Group_96510" data-name="Group 96510">
            <g id="Group_96509" data-name="Group 96509">
              <path id="Path_194841" data-name="Path 194841" d="M992.466,378.862a8.269,8.269,0,0,1,3.176-4.556,30.562,30.562,0,0,0,2.68-1.56c1.74-1.4,2.143-3.849,3.218-5.81a9.093,9.093,0,0,1,6.927-4.6c2.386-.244,4.844.472,7.169-.114,1.719-.433,3.22-1.549,4.962-1.88,3.391-.644,6.544,1.789,9,4.213.009,2.427-1.925,4.051-3.786,5.61a8.42,8.42,0,0,1-6.818,1.8c-1.852-.339-3.883-1.275-5.487-.287-1.687,1.038-1.756,3.581-3.253,4.88-2.138,1.856-5.537.114-8.251.919-2.1.622-3.4,2.625-4.8,4.311s-3.478,3.287-5.573,2.666A24.607,24.607,0,0,1,992.466,378.862Z" transform="translate(-991.635 -360.241)" fill="#263238"/>
            </g>
          </g>
        </g>
        <g id="Group_96514" data-name="Group 96514" transform="translate(38.654 7.885)">
          <g id="Group_96513" data-name="Group 96513">
            <g id="Group_96512" data-name="Group 96512">
              <path id="Path_194842" data-name="Path 194842" d="M1026.567,368.918c1.521-.435,4.631-1.42,5.447-2.738a9.294,9.294,0,0,1,8.084-4.646A7.67,7.67,0,0,1,1047,367.6a11.03,11.03,0,0,1,9.479,6.1,11.394,11.394,0,0,1,.6,1.415,8.39,8.39,0,0,1,.561,7.044c-.526,1.373-1.422,2.9-.716,4.191.719,1.312,2.536,1.354,3.951,1.841a5.572,5.572,0,0,1,3.509,6.223,6.8,6.8,0,0,0-.443,2.74,5.966,5.966,0,0,0,1.64,2.37,6.934,6.934,0,0,1-4.066,11.286,8.933,8.933,0,0,0-3.19.728c-1.074.661-1.543,1.952-2.3,2.959a5.982,5.982,0,0,1-6.482,2.029,5.474,5.474,0,0,1-1.3-.655,4.292,4.292,0,0,1-3.8,1.685l.446-25.386a2.1,2.1,0,0,1-1.538,1.205c-4.074.922-4.67-7.474-3.76-9.75a23.668,23.668,0,0,1-4.089-4.3,17.075,17.075,0,0,1-1.875-8.237C1032.155,371.175,1025.9,369.109,1026.567,368.918Z" transform="translate(-1026.517 -361.524)" fill="#263238"/>
            </g>
          </g>
        </g>
        <g id="Group_96525" data-name="Group 96525" transform="translate(55.834 38.085)">
          <g id="Group_96524" data-name="Group 96524">
            <g id="Group_96523" data-name="Group 96523">
              <g id="Group_96522" data-name="Group 96522">
                <g id="Group_96521" data-name="Group 96521">
                  <g id="Group_96520" data-name="Group 96520">
                    <g id="Group_96519" data-name="Group 96519">
                      <g id="Group_96518" data-name="Group 96518">
                        <g id="Group_96517" data-name="Group 96517">
                          <g id="Group_96516" data-name="Group 96516">
                            <g id="Group_96515" data-name="Group 96515">
                              <path id="Path_194843" data-name="Path 194843" d="M1049.417,404.17c.129-2.58,3.287-3.132,5.523-1.839,1.228.71,2.167,2.137,2.054,4.876-.3,7.305-7.573,5.5-7.577,5.287C1049.415,412.363,1049.266,407.192,1049.417,404.17Z" transform="translate(-1049.349 -401.659)" fill="#fff"/>
                            </g>
                          </g>
                        </g>
                      </g>
                    </g>
                  </g>
                </g>
              </g>
            </g>
          </g>
        </g>
        <g id="Group_96537" data-name="Group 96537" transform="translate(58.239 40.519)">
          <g id="Group_96536" data-name="Group 96536">
            <g id="Group_96535" data-name="Group 96535">
              <g id="Group_96534" data-name="Group 96534">
                <g id="Group_96533" data-name="Group 96533">
                  <g id="Group_96532" data-name="Group 96532">
                    <g id="Group_96531" data-name="Group 96531">
                      <g id="Group_96530" data-name="Group 96530">
                        <g id="Group_96529" data-name="Group 96529">
                          <g id="Group_96528" data-name="Group 96528">
                            <g id="Group_96527" data-name="Group 96527">
                              <g id="Group_96526" data-name="Group 96526">
                                <path id="Path_194844" data-name="Path 194844" d="M1052.553,410.619c.033-.022.124.094.335.2a1.272,1.272,0,0,0,.95.059,3.15,3.15,0,0,0,1.573-2.765,4.208,4.208,0,0,0-.281-1.837,1.471,1.471,0,0,0-.917-1.016.648.648,0,0,0-.765.318c-.106.2-.066.348-.105.359-.021.017-.151-.129-.08-.428a.818.818,0,0,1,.306-.446.963.963,0,0,1,.712-.156,1.789,1.789,0,0,1,1.282,1.187,4.321,4.321,0,0,1,.358,2.054c-.107,1.47-.917,2.816-1.987,3.078a1.362,1.362,0,0,1-1.156-.242C1052.56,410.8,1052.528,410.631,1052.553,410.619Z" transform="translate(-1052.546 -404.895)"/>
                              </g>
                            </g>
                          </g>
                        </g>
                      </g>
                    </g>
                  </g>
                </g>
              </g>
            </g>
          </g>
        </g>
        <g id="Group_96540" data-name="Group 96540" transform="translate(48.76 13.304)">
          <g id="Group_96539" data-name="Group 96539">
            <g id="Group_96538" data-name="Group 96538">
              <path id="Path_194845" data-name="Path 194845" d="M1039.95,368.729a4.367,4.367,0,0,1,1.457,1.22,6.741,6.741,0,0,1,.538,5.052l-.04.184.18.045a7.062,7.062,0,0,1,4.706,4.146,5.477,5.477,0,0,1,.378,1.783,10.776,10.776,0,0,1-.229,1.93,14.533,14.533,0,0,0-.279,2.078,3.438,3.438,0,0,0,.58,2.156,8.857,8.857,0,0,0,3.624,2.723,12.308,12.308,0,0,1,3.392,2.221,9.134,9.134,0,0,1,2.728,6.121,9.526,9.526,0,0,1-.963,4.515c-.484,1-.892,1.473-.851,1.5.014.011.12-.1.312-.329A7.674,7.674,0,0,0,1056.2,403a9.273,9.273,0,0,0,1.149-4.616,9.4,9.4,0,0,0-2.758-6.448,12.583,12.583,0,0,0-3.5-2.335,8.483,8.483,0,0,1-3.421-2.554c-.81-1.108-.448-2.557-.235-3.865a11.023,11.023,0,0,0,.225-2.027,5.918,5.918,0,0,0-.427-1.95,7.4,7.4,0,0,0-5.062-4.341l.14.229c.433-2.252.09-4.227-.736-5.263a3.074,3.074,0,0,0-1.143-.931A1.755,1.755,0,0,0,1039.95,368.729Z" transform="translate(-1039.948 -368.726)" fill="#effaff"/>
            </g>
          </g>
        </g>
      </g>
      <g id="Group_96554" data-name="Group 96554" transform="translate(146.338 113.382)">
        <g id="Group_96544" data-name="Group 96544">
          <g id="Group_96543" data-name="Group 96543">
            <g id="Group_96542" data-name="Group 96542">
              <path id="Path_194846" data-name="Path 194846" d="M1080,506.952a55.742,55.742,0,0,1-5.21,3.446,11.664,11.664,0,0,0-5.041,6.133c-.757,2.857-2.773,4.286-3.445,5.63s-.672,6.89-.588,8.235-4.034,4.537-4.286,5.126-.588,2.017.5,2.353a2.978,2.978,0,0,0,2.857-.421c.589-.588,3.025-2.689,3.025-2.689s-.252,2.6.589,2.773a8.725,8.725,0,0,0,2.183,0l3.11-4.622s.756,3.277,2.1,2.941,2.184-.673,2.353-2.689a19.786,19.786,0,0,1,1.093-4.453v-1.681s1.765,2.185,3.108,1.849,1.933-1.008,2.017-1.512a27.607,27.607,0,0,0-.84-5.294,37.239,37.239,0,0,0-1.681-4.2s-.756-3.7.084-5.126,5.546-5.461,6.134-6.806,1.428-3.361-.588-4.117S1082.9,504.915,1080,506.952Z" transform="translate(-1061.18 -501.729)" fill="#fff" stroke="#000" stroke-width="0.5"/>
            </g>
          </g>
        </g>
        <g id="Group_96547" data-name="Group 96547" transform="translate(8.966 16.652)">
          <g id="Group_96546" data-name="Group 96546">
            <g id="Group_96545" data-name="Group 96545">
              <path id="Path_194847" data-name="Path 194847" d="M1073.1,523.872c-.034.05.28.351.9.675a6.733,6.733,0,0,0,5.307.315c.653-.249,1-.511.972-.564a9.9,9.9,0,0,1-7.178-.427Z" transform="translate(-1073.096 -523.859)"/>
            </g>
          </g>
        </g>
        <g id="Group_96550" data-name="Group 96550" transform="translate(6.902 29.165)">
          <g id="Group_96549" data-name="Group 96549">
            <g id="Group_96548" data-name="Group 96548">
              <path id="Path_194848" data-name="Path 194848" d="M1070.371,544.7c.106.075.783-.733,1.223-1.938a3.732,3.732,0,0,0,.326-2.268,174.977,174.977,0,0,0-1.549,4.206Z" transform="translate(-1070.352 -540.49)"/>
            </g>
          </g>
        </g>
        <g id="Group_96553" data-name="Group 96553" transform="translate(12.4 27.006)">
          <g id="Group_96552" data-name="Group 96552">
            <g id="Group_96551" data-name="Group 96551">
              <path id="Path_194849" data-name="Path 194849" d="M1077.691,541.94a5.444,5.444,0,0,0,.84-4.32,87.706,87.706,0,0,0-.84,4.32Z" transform="translate(-1077.659 -537.62)"/>
            </g>
          </g>
        </g>
      </g>
    </g>
  </g>
</svg>
