<svg width="38" height="37" viewBox="0 0 38 37" fill="none" xmlns="http://www.w3.org/2000/svg">
<rect x="0.741211" width="36.2749" height="36.2749" rx="5" fill="white"/>
<g clip-path="url(#clip0_46_346)">
<path d="M28.709 17.6543C28.709 22.6457 25.052 26.7828 20.2715 27.5328V20.5449H22.6016L23.0449 17.6543H20.2715V15.7785C20.2715 14.9875 20.659 14.2168 21.9012 14.2168H23.1621V11.7559C23.1621 11.7559 22.0176 11.5605 20.9234 11.5605C18.6395 11.5605 17.1465 12.9449 17.1465 15.4512V17.6543H14.6074V20.5449H17.1465V27.5328C12.366 26.7828 8.70898 22.6457 8.70898 17.6543C8.70898 12.1316 13.1863 7.6543 18.709 7.6543C24.2316 7.6543 28.709 12.1316 28.709 17.6543Z" fill="#1877F2"/>
<path d="M22.6016 20.5449L23.0449 17.6543H20.2715V15.7785C20.2715 14.9877 20.6589 14.2168 21.9011 14.2168H23.1621V11.7559C23.1621 11.7559 22.0177 11.5605 20.9236 11.5605C18.6394 11.5605 17.1465 12.9449 17.1465 15.4512V17.6543H14.6074V20.5449H17.1465V27.5328C17.6556 27.6127 18.1774 27.6543 18.709 27.6543C19.2405 27.6543 19.7623 27.6127 20.2715 27.5328V20.5449H22.6016Z" fill="white"/>
</g>
<defs>
<clipPath id="clip0_46_346">
<rect width="20" height="20" fill="white" transform="translate(8.70898 7.6543)"/>
</clipPath>
</defs>
</svg>
