<svg width="98" height="98" viewBox="0 0 98 98" fill="none" xmlns="http://www.w3.org/2000/svg">
<rect opacity="0.1" x="0.71875" y="0.135742" width="97.2119" height="97.2119" rx="5" fill="#0B96F3"/>
<g clip-path="url(#clip0_42_1439)">
<path d="M56.1749 26.5982C54.3757 24.782 51.9777 23.7678 49.4225 23.7423C46.8479 23.7127 44.4135 24.7048 42.5661 26.5248C40.7197 28.3438 39.6956 30.7622 39.6827 33.3344C39.6696 35.9618 40.6947 38.4227 42.5693 40.2635C43.3696 41.0494 43.8286 42.1687 43.8286 43.3344V47.6371C43.8286 49.2609 45.1497 50.582 46.7736 50.582H51.8758C53.4997 50.582 54.8208 49.2609 54.8208 47.6371V43.3089C54.8208 43.3087 54.8208 43.3085 54.8208 43.3083C54.8208 43.3081 54.8208 43.3079 54.8208 43.3077C54.8208 42.1609 55.2827 41.0484 56.088 40.2558C57.9445 38.4287 58.9668 35.9883 58.9668 33.384C58.9668 30.8255 57.9753 28.4156 56.1749 26.5982ZM52.6724 47.6371C52.6724 48.0762 52.3151 48.4336 51.8759 48.4336H46.7737C46.3345 48.4336 45.9772 48.0762 45.9772 47.6371V44.3831H52.6725V47.6371H52.6724ZM49.3248 35.8019C48.4449 35.8019 47.7291 35.0861 47.7291 34.2063C47.7291 33.3264 48.4449 32.6106 49.3248 32.6106C50.2047 32.6106 50.9205 33.3264 50.9205 34.2063C50.9205 35.0861 50.2047 35.8019 49.3248 35.8019ZM54.581 38.7245C53.623 39.6675 52.9879 40.9076 52.7631 42.2347H50.399V37.7925C51.9415 37.3296 53.0689 35.8975 53.0689 34.2063C53.0689 32.1417 51.3893 30.4621 49.3248 30.4621C47.2603 30.4621 45.5807 32.1417 45.5807 34.2063C45.5807 35.8974 46.7081 37.3296 48.2506 37.7925V42.2347H45.8843C45.658 40.9025 45.0259 39.6647 44.0746 38.7306C42.6177 37.2999 41.821 35.3873 41.8313 33.3452C41.8413 31.3488 42.6378 29.4701 44.074 28.0552C45.5112 26.6394 47.4016 25.8722 49.4014 25.8905C53.4912 25.9313 56.8185 29.2928 56.8185 33.3838C56.8184 35.4079 56.0238 37.3046 54.581 38.7245Z" fill="#33CCCC"/>
<path d="M59.9477 55.0608L57.6414 54.8263L53.4527 52.8346C52.987 52.6132 52.4292 52.7539 52.1245 53.1703L49.3243 56.9961L46.5242 53.1703C46.2197 52.7541 45.6622 52.6132 45.196 52.8346L41.0073 54.8263L38.701 55.0608C35.1274 55.4241 32.4326 58.4068 32.4326 61.9987V72.6675C32.4326 73.2608 32.9136 73.7417 33.5068 73.7417H65.142C65.7352 73.7417 66.2162 73.2608 66.2162 72.6675V61.9987C66.2163 58.4067 63.5214 55.424 59.9477 55.0608ZM53.3331 55.1567L55.6952 56.2798L53.0337 60.4349L50.7957 58.6235L53.3331 55.1567ZM45.3158 55.1567L47.8532 58.6235L45.6152 60.4349L42.9537 56.2798L45.3158 55.1567ZM64.0678 71.5933H60.137V66.0725C60.137 65.4793 59.656 64.9983 59.0628 64.9983C58.4695 64.9983 57.9886 65.4793 57.9886 66.0725V71.5933H40.6603V66.0725C40.6603 65.4793 40.1794 64.9983 39.5861 64.9983C38.9928 64.9983 38.5119 65.4793 38.5119 66.0725V71.5933H34.581V61.9987C34.581 59.5134 36.4457 57.4496 38.9183 57.1982L40.8637 57.0004L44.4535 62.6045C44.6183 62.8618 44.8849 63.0367 45.1866 63.0855C45.2437 63.0947 45.301 63.0993 45.3581 63.0993C45.6023 63.0993 45.8414 63.0159 46.0338 62.8601L49.3243 60.197L52.6149 62.8601C52.8074 63.016 53.0463 63.0993 53.2906 63.0993C53.3477 63.0993 53.405 63.0947 53.4621 63.0855C53.7638 63.0367 54.0304 62.8618 54.1952 62.6045L57.785 57.0004L59.7304 57.1982C62.203 57.4496 64.0676 59.5134 64.0676 61.9987V71.5933H64.0678Z" fill="black"/>
<path d="M34.4893 34.4502H35.8119C36.4052 34.4502 36.8861 33.9692 36.8861 33.376C36.8861 32.7827 36.4052 32.3018 35.8119 32.3018H34.4893C33.896 32.3018 33.415 32.7827 33.415 33.376C33.415 33.9692 33.8959 34.4502 34.4893 34.4502Z" fill="black"/>
<path d="M35.9405 26.8888L37.0859 27.5502C37.2551 27.6479 37.4398 27.6943 37.622 27.6943C37.9933 27.6943 38.3543 27.5017 38.5534 27.1571C38.8499 26.6433 38.674 25.9863 38.1603 25.6897L37.0149 25.0283C36.5009 24.7318 35.8442 24.9078 35.5474 25.4214C35.2508 25.9352 35.4267 26.5921 35.9405 26.8888Z" fill="black"/>
<path d="M37.086 39.2018L35.9406 39.863C35.4267 40.1597 35.2508 40.8167 35.5474 41.3304C35.7464 41.675 36.1074 41.8677 36.4788 41.8677C36.6609 41.8677 36.8457 41.8212 37.0148 41.7235L38.1602 41.0623C38.6741 40.7656 38.8499 40.1086 38.5534 39.5949C38.2567 39.0812 37.6 38.905 37.086 39.2018Z" fill="black"/>
<path d="M61.7627 33.376C61.7627 33.9692 62.2437 34.4502 62.8369 34.4502H64.1596C64.7528 34.4502 65.2338 33.9692 65.2338 33.376C65.2338 32.7827 64.7528 32.3018 64.1596 32.3018H62.8369C62.2437 32.3018 61.7627 32.7827 61.7627 33.376Z" fill="black"/>
<path d="M61.0276 27.6944C61.2098 27.6944 61.3946 27.6479 61.5637 27.5502L62.7091 26.8889C63.2229 26.5922 63.3988 25.9352 63.1022 25.4214C62.8055 24.9078 62.1485 24.7318 61.6347 25.0284L60.4893 25.6897C59.9755 25.9864 59.7997 26.6434 60.0962 27.1572C60.2953 27.5018 60.6563 27.6944 61.0276 27.6944Z" fill="black"/>
<path d="M60.4894 41.0622L61.6348 41.7234C61.804 41.8211 61.9886 41.8676 62.1708 41.8676C62.5421 41.8676 62.9033 41.6748 63.1022 41.3303C63.3988 40.8165 63.2228 40.1596 62.709 39.8629L61.5636 39.2016C61.0499 38.9051 60.3929 39.0812 60.0962 39.5948C59.7997 40.1085 59.9755 40.7655 60.4894 41.0622Z" fill="black"/>
</g>
<defs>
<clipPath id="clip0_42_1439">
<rect width="50" height="50" fill="white" transform="translate(24.3242 23.7417)"/>
</clipPath>
</defs>
</svg>
