<svg width="98" height="98" viewBox="0 0 98 98" fill="none" xmlns="http://www.w3.org/2000/svg">
<rect opacity="0.1" x="0.455078" y="0.705078" width="97.2119" height="97.2119" rx="5" fill="#0B96F3"/>
<g clip-path="url(#clip0_42_1442)">
<g clip-path="url(#clip1_42_1442)">
<path d="M59.8631 34.7515C59.8631 34.1582 59.3822 33.6772 58.7889 33.6772H41.3194C40.7261 33.6772 40.2451 34.1582 40.2451 34.7515V41.7829C40.2451 42.3762 40.7261 42.8572 41.3194 42.8572H58.7889C59.3822 42.8572 59.8631 42.3762 59.8631 41.7829V34.7515ZM57.7146 40.7087H42.3936V35.8257H57.7146V40.7087Z" fill="black"/>
<path d="M59.8631 54.0318V47.7398C59.8631 47.1465 59.3822 46.6655 58.7889 46.6655H41.3194C40.7261 46.6655 40.2451 47.1465 40.2451 47.7398V54.7712C40.2451 55.3645 40.7261 55.8455 41.3194 55.8455H58.3071L59.8631 54.0318ZM57.7146 53.697H42.3936V48.814H57.7146V53.697Z" fill="black"/>
<path d="M55.4888 61.8028V59.6543H41.3194C40.7261 59.6543 40.2451 60.1353 40.2451 60.7285V67.76C40.2451 68.3533 40.7261 68.8342 41.3194 68.8342H54.7342V66.6857H42.3936V61.8028H55.4888Z" fill="black"/>
<path d="M64.8546 43.1556V27.0362C64.8546 26.4429 64.3736 25.962 63.7803 25.962H52.5068V25.083C52.5068 24.4898 52.0258 24.0088 51.4325 24.0088H39.213C38.6197 24.0088 38.1387 24.4898 38.1387 25.083V25.962H26.8653C26.272 25.962 25.791 26.4429 25.791 27.0362V72.9359C25.791 73.5292 26.272 74.0101 26.8653 74.0101H63.7803C64.3736 74.0101 64.8546 73.5292 64.8546 72.9359V56.493H62.7061V71.8617H27.9395V28.1105H38.1388V29.5753C38.1388 30.1686 38.6198 30.6496 39.2131 30.6496H51.4326C52.0259 30.6496 52.5069 30.1686 52.5069 29.5753V28.1105H62.7061V43.4594L64.8546 43.1556ZM50.3583 28.5011H40.2872V26.1573H50.3583V28.5011Z" fill="black"/>
<path d="M33.2617 35.044H34.0245V42.5637C34.0245 43.157 34.5054 43.638 35.0987 43.638C35.692 43.638 36.173 43.157 36.173 42.5637V33.9698C36.173 33.3765 35.692 32.8955 35.0987 32.8955H33.2617C32.6685 32.8955 32.1875 33.3765 32.1875 33.9698C32.1875 34.563 32.6685 35.044 33.2617 35.044Z" fill="#33CCCC"/>
<path d="M36.504 54.4783H34.269C34.7023 53.8644 35.2889 53.0324 36.082 51.9064C36.6728 51.0678 37.2194 50.1504 37.2194 49.1236C37.2194 47.3678 35.7361 45.8843 33.9802 45.8843C32.4358 45.8843 31.099 46.983 30.8016 48.4968C30.6872 49.079 31.0665 49.6437 31.6487 49.758C32.2306 49.8726 32.7955 49.4931 32.9099 48.9109C33.0098 48.4021 33.46 48.0328 33.9802 48.0328C34.5945 48.0328 35.0709 48.6192 35.0709 49.1236C35.0709 49.5557 34.6726 50.1765 34.3255 50.6691C31.6522 54.4644 31.3339 54.9059 31.3221 54.9222C31.0853 55.2492 31.0517 55.6812 31.2352 56.0408C31.4187 56.4005 31.7883 56.6268 32.1921 56.6268H36.5038C37.0971 56.6268 37.578 56.1458 37.578 55.5525C37.578 54.9592 37.0973 54.4783 36.504 54.4783Z" fill="#33CCCC"/>
<path d="M34.1798 58.8726C32.6432 58.8726 31.3133 59.9657 31.0175 61.4717C30.9031 62.054 31.2824 62.6186 31.8646 62.7329C32.4474 62.8472 33.0114 62.468 33.1257 61.8858C33.2242 61.3846 33.6675 61.0211 34.1798 61.0211C34.7721 61.0211 35.254 61.503 35.254 62.0953C35.254 62.6876 34.7721 63.1696 34.1798 63.1696C33.5865 63.1696 33.1055 63.6505 33.1055 64.2438C33.1055 64.8371 33.5865 65.318 34.1798 65.318C34.7721 65.318 35.254 65.8 35.254 66.3923C35.254 66.9846 34.7721 67.4665 34.1798 67.4665C33.6468 67.4665 33.1893 67.0698 33.1159 66.5439C33.109 66.4941 33.1055 66.4432 33.1055 66.3923C33.1055 65.799 32.6246 65.318 32.0313 65.318C31.438 65.318 30.957 65.799 30.957 66.3923C30.957 66.5419 30.9674 66.6925 30.988 66.8404C31.2088 68.4222 32.581 69.615 34.1798 69.615C35.9568 69.615 37.4025 68.1693 37.4025 66.3923C37.4025 65.5675 37.0907 64.8144 36.5793 64.2438C37.0907 63.6732 37.4025 62.9201 37.4025 62.0953C37.4025 60.3183 35.9568 58.8726 34.1798 58.8726Z" fill="#33CCCC"/>
<path d="M71.6324 39.5364L66.6759 37.2251C66.4177 37.1047 66.1223 37.092 65.8546 37.1892C65.5868 37.2867 65.3688 37.4865 65.2484 37.7447L53.0401 63.9253C52.9372 64.1461 52.9123 64.3952 52.9696 64.632L54.0006 68.8912C54.0774 69.2087 54.2946 69.474 54.5907 69.6121C54.7347 69.6793 54.8898 69.7127 55.0447 69.7127C55.2083 69.7127 55.3719 69.6753 55.5222 69.6008L59.4477 67.6529C59.6659 67.5447 59.8408 67.3653 59.9438 67.1445L72.1521 40.9639C72.4028 40.4262 72.1701 39.7871 71.6324 39.5364ZM66.7416 39.6263L69.7508 41.0296L68.3476 44.0388L65.3383 42.6356L66.7416 39.6263ZM58.1557 65.8956L55.7723 67.0782L55.1464 64.4923L64.4304 44.5828L67.4396 45.9861L58.1557 65.8956Z" fill="#33CCCC"/>
</g>
</g>
<defs>
<clipPath id="clip0_42_1442">
<rect width="50" height="50" fill="white" transform="translate(24.0605 24.311)"/>
</clipPath>
<clipPath id="clip1_42_1442">
<rect width="50.0014" height="50.0014" fill="white" transform="translate(24.0215 24.0088)"/>
</clipPath>
</defs>
</svg>
