<svg width="98" height="98" viewBox="0 0 98 98" fill="none" xmlns="http://www.w3.org/2000/svg">
<rect opacity="0.1" x="0.455078" y="0.705078" width="97.2119" height="97.2119" rx="5" fill="#0B96F3"/>
<g clip-path="url(#clip0_42_1457)">
<path d="M49.8257 56.6613C48.151 53.6894 45.4854 51.5509 42.3165 50.5222C48.037 46.3242 45.0842 37.0899 37.8942 37.0723C30.6831 37.0916 27.7457 46.3676 33.5054 50.5458C28.0222 52.385 24.0605 57.5711 24.0605 63.6657C24.0605 66.0169 25.9734 67.9297 28.3245 67.9297C28.9178 67.9297 29.3987 67.4488 29.3987 66.8556C29.3987 66.2624 28.9178 65.7814 28.3245 65.7814C26.4594 65.7936 25.4989 63.4759 26.8293 62.1695C27.2283 61.77 27.7593 61.55 28.3245 61.55H36.4053C39.3804 61.55 41.7109 63.8157 41.7109 66.708C41.7109 67.3013 42.1918 67.7822 42.785 67.7822C43.3782 67.7822 43.8592 67.3013 43.8592 66.708C43.9355 62.6874 40.4077 59.3228 36.4053 59.4017H28.3245C27.8405 59.4017 27.3691 59.4825 26.925 59.6363C30.1172 50.5605 43.202 49.1826 47.9539 57.7161C48.2451 58.2328 48.9002 58.4158 49.417 58.1245C49.934 57.8332 50.1168 57.1782 49.8257 56.6613ZM32.5886 44.5263C32.5886 41.6008 34.9687 39.2207 37.8942 39.2207C44.9233 39.4874 44.9213 49.5663 37.8941 49.832C34.9687 49.8319 32.5886 47.4518 32.5886 44.5263Z" fill="#33CCCC"/>
<path d="M65.0024 37.7879C67.4389 35.1164 65.4699 30.6624 61.8181 30.692C58.1539 30.6787 56.2006 35.0964 58.6339 37.7879C56.1125 38.9843 54.3643 41.5543 54.3643 44.5258C54.3643 45.119 54.8452 45.6 55.4384 45.6C56.0316 45.6 56.5126 45.119 56.5126 44.5258C56.5126 41.6003 58.8927 39.2202 61.8182 39.2202C64.7437 39.2202 67.1238 41.6002 67.1238 44.5258C67.1238 45.119 67.6047 45.6 68.1979 45.6C68.7912 45.6 69.2721 45.119 69.2721 44.5258C69.2721 41.5543 67.5239 38.9843 65.0024 37.7879ZM59.7024 34.9561C59.7024 33.7895 60.6515 32.8403 61.8182 32.8403C64.6212 32.9467 64.6204 36.966 61.8182 37.0718C60.6515 37.0718 59.7024 36.1227 59.7024 34.9561Z" fill="#33CCCC"/>
<path d="M61.8189 48.79C61.534 48.79 61.2609 48.6768 61.0594 48.4754L58.1841 45.6001H53.8442C52.7046 45.6001 51.6337 45.1563 50.8288 44.3504C50.024 43.5465 49.5801 42.4757 49.5801 41.3361V28.5765C49.5801 27.4368 50.0239 26.366 50.8298 25.5611C51.6337 24.7563 52.7046 24.3125 53.8442 24.3125H69.7936C70.9332 24.3125 72.0041 24.7563 72.809 25.5622C73.6139 26.3661 74.0577 27.4369 74.0577 28.5765V41.3361C74.0577 42.4757 73.6139 43.5465 72.808 44.3514C72.0041 45.1564 70.9333 45.6002 69.7936 45.6002H65.4538L62.5785 48.4755C62.377 48.6768 62.1038 48.79 61.8189 48.79ZM53.8442 26.4608C53.2789 26.4608 52.7479 26.6808 52.3489 27.0803C51.9484 27.4803 51.7284 28.0113 51.7284 28.5766V41.3361C51.7284 41.9013 51.9484 42.4323 52.3479 42.8313C52.7478 43.2319 53.2789 43.4519 53.8441 43.4519H58.6289C58.9139 43.4519 59.187 43.5651 59.3884 43.7665L61.8187 46.1969L64.2492 43.7665C64.4506 43.5651 64.7238 43.4519 65.0087 43.4519H69.7935C70.3588 43.4519 70.8897 43.2319 71.2887 42.8324C71.6892 42.4324 71.9092 41.9013 71.9092 41.3362V28.5765C71.9092 28.0113 71.6892 27.4803 71.2896 27.0813C70.8896 26.6807 70.3587 26.4608 69.7934 26.4608H53.8442Z" fill="black"/>
<path d="M60.2238 60.7523H58.6288C57.2052 60.6995 57.2063 58.6563 58.6288 58.604H60.2238C61.6475 58.6568 61.6464 60.7001 60.2238 60.7523Z" fill="#33CCCC"/>
<path d="M72.9832 65.7812H69.6887L74.0023 52.8405C74.2455 52.1723 73.694 51.4072 72.9833 51.4266H50.6539C50.2065 51.4266 49.8061 51.7039 49.6485 52.1225L44.5084 65.7812H25.1347C24.5415 65.7812 24.0605 66.2621 24.0605 66.8553V73.2351C24.0605 73.8283 24.5415 74.3092 25.1347 74.3092H72.9832C73.5764 74.3092 74.0573 73.8283 74.0573 73.2351V66.8553C74.0573 66.2621 73.5764 65.7812 72.9832 65.7812ZM51.3974 53.5749H71.4929L67.4242 65.7812H46.8038L51.3974 53.5749ZM71.909 72.161H26.2088V67.9296H68.1913C68.1961 67.9299 68.201 67.9299 68.2057 67.9296H71.909V72.161Z" fill="black"/>
</g>
<defs>
<clipPath id="clip0_42_1457">
<rect width="50" height="50" fill="white" transform="translate(24.0605 24.311)"/>
</clipPath>
</defs>
</svg>
