<svg width="37" height="37" viewBox="0 0 37 37" fill="none" xmlns="http://www.w3.org/2000/svg">
<rect x="0.566406" width="36.2749" height="36.2749" rx="5" fill="white"/>
<g clip-path="url(#clip0_46_362)">
<g clip-path="url(#clip1_46_362)">
<path d="M18.4224 27.9307C23.7222 27.9307 28.0186 23.6343 28.0186 18.3345C28.0186 13.0346 23.7222 8.73828 18.4224 8.73828C13.1225 8.73828 8.82617 13.0346 8.82617 18.3345C8.82617 23.6343 13.1225 27.9307 18.4224 27.9307Z" fill="#0B69C7"/>
<path d="M16.1857 14.2951C16.1859 14.5654 16.106 14.8296 15.9561 15.0544C15.8061 15.2792 15.5928 15.4545 15.3432 15.558C15.0935 15.6616 14.8188 15.6887 14.5538 15.6361C14.2887 15.5834 14.0452 15.4533 13.8541 15.2622C13.663 15.0711 13.5329 14.8276 13.4803 14.5626C13.4276 14.2975 13.4548 14.0228 13.5583 13.7732C13.6619 13.5236 13.8371 13.3103 14.0619 13.1603C14.2867 13.0103 14.551 12.9304 14.8212 12.9307C15.183 12.931 15.5298 13.0749 15.7857 13.3307C16.0415 13.5865 16.1853 13.9334 16.1857 14.2951Z" fill="white"/>
<path d="M15.5396 16.2295H14.1028C13.916 16.2295 13.7646 16.3809 13.7646 16.5677V22.5927C13.7646 22.7794 13.916 22.9308 14.1028 22.9308H15.5396C15.7264 22.9308 15.8778 22.7794 15.8778 22.5927V16.5677C15.8778 16.3809 15.7264 16.2295 15.5396 16.2295Z" fill="white"/>
<path d="M23.3896 19.7032V22.6203C23.3896 22.7027 23.3569 22.7817 23.2987 22.8399C23.2404 22.8981 23.1615 22.9309 23.0791 22.9309H21.537C21.4546 22.9309 21.3757 22.8981 21.3174 22.8399C21.2592 22.7817 21.2265 22.7027 21.2265 22.6203V19.794C21.2265 19.3716 21.3488 17.9519 20.1238 17.9519C19.1738 17.9519 18.9804 18.9282 18.9396 19.3664V22.6269C18.9379 22.7077 18.9048 22.7846 18.8473 22.8413C18.7898 22.8981 18.7125 22.9302 18.6317 22.9309H17.1396C17.0988 22.931 17.0583 22.9231 17.0206 22.9076C16.9828 22.892 16.9485 22.8692 16.9197 22.8403C16.8908 22.8114 16.8679 22.7771 16.8524 22.7394C16.8368 22.7016 16.8289 22.6612 16.8291 22.6203V16.5414C16.8289 16.5005 16.8368 16.46 16.8524 16.4221C16.8679 16.3843 16.8907 16.3499 16.9196 16.321C16.9484 16.292 16.9827 16.269 17.0205 16.2533C17.0583 16.2376 17.0987 16.2295 17.1396 16.2295H18.6317C18.6731 16.2288 18.7142 16.2364 18.7527 16.2518C18.7911 16.2671 18.8261 16.29 18.8557 16.319C18.8852 16.348 18.9086 16.3826 18.9246 16.4208C18.9406 16.459 18.9488 16.5 18.9488 16.5414V17.0677C19.3015 16.5414 19.8252 16.1309 20.9396 16.1309C23.4041 16.1295 23.3896 18.4361 23.3896 19.7032Z" fill="white"/>
</g>
</g>
<defs>
<clipPath id="clip0_46_362">
<rect width="21" height="22" fill="white" transform="translate(8.56641 7.1377)"/>
</clipPath>
<clipPath id="clip1_46_362">
<rect width="21" height="20" fill="white" transform="translate(8.42285 8.27539)"/>
</clipPath>
</defs>
</svg>
