<svg width="37" height="37" viewBox="0 0 37 37" fill="none" xmlns="http://www.w3.org/2000/svg">
<rect x="0.015625" width="36.2749" height="36.2749" rx="5" fill="white"/>
<g clip-path="url(#clip0_46_352)">
<path d="M22.9104 9.05469H13.1213C10.8079 9.05469 8.93262 10.93 8.93262 13.2434V23.0324C8.93262 25.3458 10.8079 27.2211 13.1213 27.2211H22.9104C25.2237 27.2211 27.099 25.3458 27.099 23.0324V13.2434C27.099 10.93 25.2237 9.05469 22.9104 9.05469Z" fill="url(#paint0_linear_46_352)"/>
<path d="M20.9457 12.6381C21.6353 12.6409 22.2959 12.9161 22.7836 13.4037C23.2713 13.8914 23.5464 14.552 23.5492 15.2416V21.033C23.5464 21.7226 23.2713 22.3833 22.7836 22.8709C22.2959 23.3586 21.6353 23.6337 20.9457 23.6365H15.0863C14.3967 23.6337 13.7361 23.3586 13.2484 22.8709C12.7608 22.3833 12.4856 21.7226 12.4828 21.033V15.2416C12.4856 14.552 12.7608 13.8914 13.2484 13.4037C13.7361 12.9161 14.3967 12.6409 15.0863 12.6381H20.9457ZM20.9457 11.4271H15.0863C12.9883 11.4271 11.2715 13.1459 11.2715 15.242V21.033C11.2715 23.1311 12.9902 24.8479 15.0863 24.8479H20.9457C23.0437 24.8479 24.7605 23.1291 24.7605 21.033V15.2416C24.7605 13.1436 23.0437 11.4268 20.9457 11.4268V11.4271Z" fill="white"/>
<path d="M18.0154 15.877C18.4625 15.877 18.8996 16.0095 19.2713 16.2579C19.6431 16.5063 19.9328 16.8594 20.1039 17.2724C20.275 17.6855 20.3198 18.14 20.2325 18.5785C20.1453 19.017 19.93 19.4198 19.6139 19.7359C19.2977 20.0521 18.8949 20.2674 18.4564 20.3546C18.0179 20.4418 17.5634 20.3971 17.1504 20.226C16.7373 20.0549 16.3842 19.7651 16.1359 19.3934C15.8875 19.0216 15.7549 18.5846 15.7549 18.1375C15.7556 17.5382 15.994 16.9636 16.4178 16.5399C16.8416 16.1161 17.4161 15.8777 18.0154 15.877ZM18.0154 14.666C17.3288 14.666 16.6577 14.8696 16.0868 15.2511C15.5159 15.6325 15.0709 16.1747 14.8082 16.809C14.5454 17.4434 14.4767 18.1414 14.6107 18.8148C14.7446 19.4882 15.0752 20.1067 15.5607 20.5922C16.0462 21.0777 16.6648 21.4083 17.3382 21.5423C18.0116 21.6762 18.7096 21.6075 19.3439 21.3447C19.9782 21.082 20.5204 20.637 20.9019 20.0662C21.2833 19.4953 21.4869 18.8241 21.4869 18.1375C21.4869 17.2168 21.1212 16.3338 20.4701 15.6828C19.8191 15.0318 18.9361 14.666 18.0154 14.666Z" fill="white"/>
<path d="M21.5633 15.3365C22.0178 15.3365 22.3863 14.968 22.3863 14.5135C22.3863 14.0589 22.0178 13.6904 21.5633 13.6904C21.1087 13.6904 20.7402 14.0589 20.7402 14.5135C20.7402 14.968 21.1087 15.3365 21.5633 15.3365Z" fill="white"/>
</g>
<defs>
<linearGradient id="paint0_linear_46_352" x1="20.8389" y1="27.9836" x2="15.1928" y2="8.29219" gradientUnits="userSpaceOnUse">
<stop stop-color="#FFDB73"/>
<stop offset="0.08" stop-color="#FDAD4E"/>
<stop offset="0.15" stop-color="#FB832E"/>
<stop offset="0.19" stop-color="#FA7321"/>
<stop offset="0.23" stop-color="#F6692F"/>
<stop offset="0.37" stop-color="#E84A5A"/>
<stop offset="0.48" stop-color="#E03675"/>
<stop offset="0.55" stop-color="#DD2F7F"/>
<stop offset="0.68" stop-color="#B43D97"/>
<stop offset="0.97" stop-color="#4D60D4"/>
<stop offset="1" stop-color="#4264DB"/>
</linearGradient>
<clipPath id="clip0_46_352">
<rect width="20" height="20" fill="white" transform="translate(8.01562 8.1377)"/>
</clipPath>
</defs>
</svg>
