<svg width="37" height="37" viewBox="0 0 37 37" fill="none" xmlns="http://www.w3.org/2000/svg">
<rect x="0.266602" y="0.345703" width="36.2749" height="36.2749" rx="5" fill="white"/>
<g clip-path="url(#clip0_46_308)">
<path d="M18.4046 8.4834C16.1952 8.48582 14.077 9.36458 12.5147 10.9269C10.9525 12.4891 10.0737 14.6073 10.0713 16.8167C10.0713 21.2184 17.0713 27.2609 17.8663 27.9359L18.4046 28.3909L18.943 27.9359C19.738 27.2609 26.738 21.2184 26.738 16.8167C26.7355 14.6073 25.8568 12.4891 24.2945 10.9269C22.7322 9.36458 20.614 8.48582 18.4046 8.4834ZM18.4046 20.9834C17.5805 20.9834 16.775 20.739 16.0897 20.2812C15.4045 19.8233 14.8705 19.1726 14.5551 18.4112C14.2398 17.6499 14.1572 16.8121 14.318 16.0039C14.4788 15.1956 14.8756 14.4532 15.4583 13.8705C16.0411 13.2877 16.7835 12.8909 17.5917 12.7301C18.4 12.5694 19.2378 12.6519 19.9991 12.9672C20.7605 13.2826 21.4112 13.8167 21.8691 14.5019C22.3269 15.1871 22.5713 15.9926 22.5713 16.8167C22.57 17.9214 22.1306 18.9804 21.3494 19.7615C20.5683 20.5427 19.5093 20.9821 18.4046 20.9834Z" fill="#0B96F3"/>
<path d="M18.4043 19.3164C19.785 19.3164 20.9043 18.1971 20.9043 16.8164C20.9043 15.4357 19.785 14.3164 18.4043 14.3164C17.0236 14.3164 15.9043 15.4357 15.9043 16.8164C15.9043 18.1971 17.0236 19.3164 18.4043 19.3164Z" fill="#0B96F3"/>
</g>
<defs>
<clipPath id="clip0_46_308">
<rect width="20" height="20" fill="white" transform="translate(8.4043 8.4834)"/>
</clipPath>
</defs>
</svg>
