<?xml version="1.0" encoding="utf-8"?>
<!-- Generator: Adobe Illustrator 24.0.2, SVG Export Plug-In . SVG Version: 6.00 Build 0)  -->
<svg version="1.1" id="Layer_1" xmlns="http://www.w3.org/2000/svg" xmlns:xlink="http://www.w3.org/1999/xlink" x="0px" y="0px"
	 viewBox="0 0 187.3 44.9" style="enable-background:new 0 0 187.3 44.9;" xml:space="preserve">
<style type="text/css">
	.st0{fill:#333E48;}
</style>
<g>
	<title>VTOOL_WEB_SVG_L2</title>
	<g id="_Group_2">
		<g id="_Group_3">
			<path id="_Compound_Path_" class="st0" d="M117.6,19.4c-0.1-0.4-0.5-0.6-0.9-0.7c-0.4,0-0.8,0.3-0.8,0.7c0,0.6,0.7,0.8,1.5,1.1
				c0.9,0.2,1.5,1,1.5,1.9c0,1.2-0.9,2.1-2.1,2.1c0,0-0.1,0-0.1,0c-1,0-2-0.6-2.3-1.6l1-0.4c0.2,0.6,0.7,1,1.3,1c0.6,0,1-0.4,1-0.9
				c0,0,0,0,0-0.1c0-1.5-2.9-1-2.9-3c0-1,0.8-1.8,1.9-1.8c0,0,0,0,0.1,0c0.8,0,1.4,0.5,1.7,1.2L117.6,19.4z"/>
			<path id="_Compound_Path_2" class="st0" d="M121.9,18.5L121.9,18.5c0.3-0.5,0.9-0.9,1.6-0.9c0.8,0,1.4,0.4,1.8,1.1
				c0.4-0.7,1.2-1.1,2-1.1c1.7,0,2.1,1.4,2.1,2.7v4h-1.1v-3.8c0-0.8,0-1.9-1.2-1.9c-1.1,0-1.4,1.2-1.4,2.2v3.4h-1.1v-3.7
				c0-0.8-0.1-2-1.2-2c-1.3,0-1.4,1.3-1.4,2.3v3.4h-1.1v-6.5h1.1L121.9,18.5L121.9,18.5z"/>
			<path id="_Compound_Path_3" class="st0" d="M137.3,24.3h-1.1v-0.9l0,0c-0.5,0.7-1.4,1.1-2.2,1.1c-1.9-0.1-3.3-1.8-3.2-3.7
				c0.1-1.7,1.5-3,3.2-3.2c0.9,0,1.7,0.4,2.2,1.1l0,0v-0.9h1.1L137.3,24.3L137.3,24.3z M132,21c-0.1,1.2,0.8,2.3,2,2.5
				c0,0,0.1,0,0.1,0c1.2,0,2.2-1,2.2-2.2c0-0.1,0-0.1,0-0.2c0.1-1.2-0.8-2.2-2-2.3c-0.1,0-0.1,0-0.2,0C132.9,18.7,131.9,19.8,132,21
				C132,21,132,21,132,21L132,21z"/>
			<path id="_Compound_Path_4" class="st0" d="M140.7,18.5L140.7,18.5c0.3-0.5,0.8-0.9,1.4-0.9c0.4,0,0.7,0.1,1,0.3l-0.5,1
				c-0.2-0.2-0.4-0.3-0.7-0.3c-1.2,0-1.3,1.6-1.3,2.4v3.2h-1.1v-6.5h1.1L140.7,18.5L140.7,18.5z"/>
			<path id="_Compound_Path_5" class="st0" d="M146,24.3h-1.1v-5.5h-0.7v-1h0.7v-2.3h1.1v2.3h1.2v1H146V24.3L146,24.3z"/>
			<path id="_Compound_Path_6" class="st0" d="M117.2,36.8l1.9-4.4h1.2l-3.2,6.9l-3.2-6.9h1.3L117.2,36.8z"/>
			<path id="_Compound_Path_7" class="st0" d="M122.3,35.9c0,1.2,0.9,2.1,2,2.2c0,0,0.1,0,0.1,0c0.9,0,1.7-0.5,2-1.3l0.9,0.5
				c-0.6,1.1-1.7,1.8-3,1.8c-1.7,0-3.2-1.4-3.2-3.1c0-0.1,0-0.2,0-0.3c0-1.9,1.1-3.5,3.1-3.5s3.2,1.7,3.1,3.7L122.3,35.9L122.3,35.9
				z M126.2,35c-0.1-0.9-0.9-1.7-1.9-1.7c-1,0-1.8,0.7-2,1.7H126.2L126.2,35z"/>
			<path id="_Compound_Path_8" class="st0" d="M130.2,33.1L130.2,33.1c0.3-0.5,0.8-0.9,1.4-0.9c0.4,0,0.7,0.1,1,0.3l-0.5,1
				c-0.2-0.2-0.4-0.3-0.7-0.3c-1.2,0-1.3,1.6-1.3,2.4v3.2H129v-6.5h1.1L130.2,33.1L130.2,33.1z"/>
			<path id="_Compound_Path_9" class="st0" d="M135.6,30c0,0.4-0.4,0.8-0.8,0.8S134,30.4,134,30l0,0c0-0.4,0.4-0.8,0.8-0.8
				S135.6,29.6,135.6,30z M135.3,38.9h-1.1v-6.5h1.1L135.3,38.9L135.3,38.9z"/>
			<path id="_Compound_Path_10" class="st0" d="M139.1,38.9H138v-5.5h-0.6v-1h0.6v-2.6c-0.1-0.6,0-1.2,0.3-1.7
				c0.4-0.5,1-0.9,1.7-0.8c0.3,0,0.5,0.1,0.8,0.1v1.1c-0.2-0.1-0.5-0.1-0.8-0.1c-0.9,0-0.9,0.6-0.9,1.8v2.2h1.6v1h-1.6L139.1,38.9
				L139.1,38.9z"/>
			<path id="_Compound_Path_11" class="st0" d="M143.8,30c0,0.4-0.4,0.8-0.8,0.8s-0.8-0.4-0.8-0.8l0,0c0-0.4,0.4-0.8,0.8-0.8
				S143.8,29.6,143.8,30z M143.6,38.9h-1.1v-6.5h1.1V38.9z"/>
			<path id="_Compound_Path_12" class="st0" d="M150.7,34.4L150.7,34.4c-0.5-0.7-1.2-1.1-2-1.1c-1.3,0-2.3,1.1-2.3,2.3
				c0,0,0,0,0,0.1c-0.1,1.3,0.9,2.3,2.2,2.4c0,0,0,0,0.1,0c0.9,0,1.6-0.4,2.1-1.1l0,0v1.5c-0.6,0.4-1.3,0.7-2.1,0.7
				c-1.9,0-3.4-1.4-3.5-3.3c0-0.1,0-0.1,0-0.2c0-1.9,1.5-3.4,3.4-3.4c0,0,0,0,0,0c0.7,0,1.4,0.2,2,0.6L150.7,34.4L150.7,34.4z"/>
			<path id="_Compound_Path_13" class="st0" d="M158.7,38.9h-1.1V38l0,0c-0.5,0.7-1.4,1.1-2.2,1.1c-1.9-0.2-3.3-1.9-3.1-3.7
				c0.2-1.6,1.5-3,3.1-3.1c0.9,0,1.7,0.4,2.2,1.1l0,0v-0.9h1.1L158.7,38.9L158.7,38.9z M153.3,35.6c-0.1,1.2,0.8,2.3,2,2.5
				c0,0,0.1,0,0.1,0c1.2,0,2.2-1,2.2-2.2c0-0.1,0-0.1,0-0.2c0.1-1.2-0.8-2.2-2-2.3c-0.1,0-0.1,0-0.2,0
				C154.2,33.3,153.2,34.3,153.3,35.6C153.3,35.6,153.3,35.6,153.3,35.6L153.3,35.6z"/>
			<path id="_Compound_Path_14" class="st0" d="M162.1,38.9H161v-5.5h-0.7v-1h0.7v-2.3h1.1v2.3h1.1v1h-1.2L162.1,38.9L162.1,38.9z"
				/>
			<path id="_Compound_Path_15" class="st0" d="M166.1,30c0,0.4-0.4,0.7-0.9,0.7c-0.4,0-0.7-0.3-0.7-0.7c0-0.4,0.3-0.8,0.7-0.9
				s0.8,0.3,0.9,0.7C166.1,29.9,166.1,29.9,166.1,30z M165.9,38.9h-1.1v-6.5h1.1V38.9z"/>
			<path id="_Compound_Path_16" class="st0" d="M167.6,35.7c0-1.9,1.5-3.4,3.4-3.4c1.9,0,3.4,1.5,3.4,3.4c0,1.9-1.5,3.4-3.4,3.4
				S167.6,37.6,167.6,35.7C167.6,35.7,167.6,35.7,167.6,35.7z M168.7,35.7c0,1.3,1.1,2.3,2.4,2.2c1.3,0,2.3-1.1,2.2-2.4
				c0-1.2-1.1-2.2-2.3-2.2c-1.3,0-2.3,1-2.3,2.3C168.7,35.6,168.7,35.7,168.7,35.7L168.7,35.7z"/>
			<path id="_Compound_Path_17" class="st0" d="M177,33.2L177,33.2c0.4-0.6,1.1-1,1.9-1c1.8,0,2.2,1.3,2.2,2.8v3.9H180v-3.7
				c0-1-0.1-2-1.4-2c-1.5,0-1.6,1.4-1.6,2.6v3.1h-1.1v-6.5h1.1L177,33.2L177,33.2z"/>
		</g>
	</g>
	<g id="_Group_4">
		<path id="_Compound_Path_18" class="st0" d="M20,39.1c-0.4,0.9-1,0.9-1.5,0l-11-23.8c-0.2-0.2-0.1-0.6,0.2-0.7
			c0.1-0.1,0.2-0.1,0.3-0.1h3.5c0.3,0,0.5,0.2,0.6,0.4l7,15.7c0.1,0.2,0.3,0.2,0.4,0l7-15.7c0.1-0.2,0.3-0.4,0.6-0.4h3.4
			c0.3,0,0.5,0.2,0.6,0.4c0,0.1,0,0.2-0.1,0.3L20,39.1z"/>
		<path id="_Compound_Path_19" class="st0" d="M46.2,26.9c0-7.2,4.5-13,11.7-13s11.7,5.8,11.7,13S65,39.8,57.9,39.8
			S46.2,34.1,46.2,26.9z M50.4,26.9c0,5,2.4,9.1,7.5,9.1s7.5-4.1,7.5-9.1s-2.4-9.1-7.5-9.1S50.3,21.9,50.4,26.9L50.4,26.9z"/>
		<path id="_Compound_Path_20" class="st0" d="M72.6,26.9c0-7.2,4.5-13,11.7-13S96,19.7,96,26.9s-4.5,12.9-11.7,12.9
			S72.6,34.1,72.6,26.9z M76.8,26.9c0,5,2.4,9.1,7.5,9.1s7.5-4.1,7.5-9.1s-2.4-9.1-7.5-9.1S76.8,21.9,76.8,26.9L76.8,26.9z"/>
	</g>
	<path id="_Path_2" class="st0" d="M42.3,18.3c0.5,0,0.9-0.4,0.9-0.9l0,0v-2.1c0-0.5-0.4-0.9-0.9-0.9l0,0h-3.5v-8
		c0-0.5-0.4-0.9-0.9-0.9l0,0h-2.4c-0.5,0-0.9,0.4-0.9,0.9l0,0v31.6c0,0.5,0.4,0.9,0.9,0.9l0,0h6.8c0.5,0,0.9-0.4,0.9-0.9l0,0v-2.1
		c0-0.5-0.4-0.9-0.9-0.9l0,0h-3.5V18.3L42.3,18.3L42.3,18.3z"/>
	<path id="_Path_3" class="st0" d="M106.3,35.1H104V6.5c0-0.5-0.4-0.9-0.9-0.9l0,0h-2.4c-0.5,0-0.9,0.4-0.9,0.9l0,0v31.6
		c0,0.5,0.4,0.9,0.9,0.9l0,0h5.6c0.5,0,0.9-0.4,0.9-0.9l0,0V36C107.1,35.5,106.8,35.1,106.3,35.1C106.3,35.1,106.3,35.1,106.3,35.1z
		"/>
</g>
</svg>
