<svg xmlns="http://www.w3.org/2000/svg" xmlns:xlink="http://www.w3.org/1999/xlink" width="155.251" height="137.916" viewBox="0 0 155.251 137.916">
  <defs>
    <filter id="Path_193590" x="64.264" y="0.001" width="90.988" height="118.596" filterUnits="userSpaceOnUse">
      <feOffset dy="12" input="SourceAlpha"/>
      <feGaussianBlur stdDeviation="3" result="blur"/>
      <feFlood flood-color="#8a959e" flood-opacity="0.157"/>
      <feComposite operator="in" in2="blur"/>
      <feComposite in="SourceGraphic"/>
    </filter>
    <filter id="Path_193742" x="24.13" y="53.139" width="70.838" height="66.863" filterUnits="userSpaceOnUse">
      <feOffset dx="6" dy="3" input="SourceAlpha"/>
      <feGaussianBlur stdDeviation="3" result="blur-2"/>
      <feFlood flood-color="#8a959e" flood-opacity="0.157"/>
      <feComposite operator="in" in2="blur-2"/>
      <feComposite in="SourceGraphic"/>
    </filter>
    <clipPath id="clip-path">
      <path id="Path_193736" data-name="Path 193736" d="M1001.272,531.987A37.573,37.573,0,1,1,963.7,494.414,37.572,37.572,0,0,1,1001.272,531.987Z" transform="translate(-926.127 -494.414)" fill="none"/>
    </clipPath>
  </defs>
  <g id="Group_101806" data-name="Group 101806" transform="translate(5866.258 10099.907)">
    <g id="Group_94576" data-name="Group 94576" transform="translate(-5792.994 -10099.907)">
      <path id="Path_193575" data-name="Path 193575" d="M944.189,6990.832,923.3,6988.69a.957.957,0,0,1-.854-1.049h0a.956.956,0,0,1,1.049-.854l20.892,2.142a.956.956,0,0,1,.854,1.049h0A.957.957,0,0,1,944.189,6990.832Z" transform="translate(-875.638 -6929.477)" fill="#a3bbc4"/>
      <path id="Path_193576" data-name="Path 193576" d="M942.36,7040.031l-24.073-2.468a.956.956,0,0,1-.854-1.048h0a.957.957,0,0,1,1.049-.854l24.073,2.469a.955.955,0,0,1,.854,1.048h0A.956.956,0,0,1,942.36,7040.031Z" transform="translate(-872.395 -6961.12)" fill="#a3bbc4"/>
      <g id="Group_94385" data-name="Group 94385" transform="translate(27.667 23.513)">
        <g id="Group_94382" data-name="Group 94382" transform="translate(4.473 0)">
          <path id="Path_193580" data-name="Path 193580" d="M891.986,6903.209l-11.129-1.14L882,6890.94l11.129,1.14Zm-9.655-2.341,8.455.867.867-8.454-8.455-.868Z" transform="translate(-880.857 -6890.94)" fill="#a3bbc4"/>
          <path id="Path_193581" data-name="Path 193581" d="M892.069,6906.631l-2.523-2.506,1.136-1.005,1.447,1.438,3.071-2.716,1.076,1.07Z" transform="translate(-886.483 -6897.998)" fill="#5fb858"/>
        </g>
        <g id="Group_94383" data-name="Group 94383" transform="translate(0 43.635)">
          <path id="Path_193582" data-name="Path 193582" d="M879.3,7026.967l-11.129-1.14,1.141-11.13,11.129,1.142Zm-9.655-2.341,8.455.868.867-8.455-8.455-.867Z" transform="translate(-868.17 -7014.697)" fill="#a3bbc4"/>
          <path id="Path_193583" data-name="Path 193583" d="M879.382,7030.391l-2.523-2.507,1.136-1,1.447,1.438,3.071-2.716,1.076,1.07Z" transform="translate(-873.796 -7021.756)" fill="#5fb858"/>
        </g>
        <g id="Group_94384" data-name="Group 94384" transform="translate(2.283 21.367)">
          <path id="Path_193584" data-name="Path 193584" d="M885.773,6963.81l-11.129-1.14,1.141-11.129,11.129,1.14Zm-9.655-2.341,8.455.867.867-8.454-8.455-.868Z" transform="translate(-874.644 -6951.541)" fill="#a3bbc4"/>
          <path id="Path_193585" data-name="Path 193585" d="M885.857,6967.233l-2.523-2.507,1.136-1.006,1.447,1.438,3.071-2.716,1.076,1.069Z" transform="translate(-880.27 -6958.599)" fill="#5fb858"/>
        </g>
      </g>
      <path id="Path_193589" data-name="Path 193589" d="M866.654,6928.468H843.245l-35.748.092h0l-13.978-.972,1.358-94.521h72.988l-.092,8.406-1.9-.2,1.222,62.447Z" transform="translate(-792.078 -6829.958)" fill="#0e4744" opacity="0.18" style="mix-blend-mode: multiply;isolation: isolate"/>
      <g transform="matrix(1, 0, 0, 1, -73.26, 0)" filter="url(#Path_193590)">
        <path id="Path_193590-2" data-name="Path 193590" d="M861.536,6920.786l-23.617,1.06H789.7v-97.6H862.69v72.187Z" transform="translate(-716.44 -6824.25)" fill="#fff"/>
      </g>
      <path id="Path_193591" data-name="Path 193591" d="M903.019,6933.683h-35.5a.956.956,0,0,1-.957-.957h0a.957.957,0,0,1,.957-.957h35.5a.957.957,0,0,1,.956.957h0A.956.956,0,0,1,903.019,6933.683Z" transform="translate(-839.463 -6893.86)" fill="#e1e1e1"/>
      <path id="Path_193592" data-name="Path 193592" d="M867.519,6946.641h35.5a.957.957,0,0,1,.956.957h0a.956.956,0,0,1-.956.957h-35.5a.956.956,0,0,1-.957-.957h0a.957.957,0,0,1,.957-.957" transform="translate(-839.463 -6903.487)" fill="#e1e1e1"/>
      <path id="Path_193593" data-name="Path 193593" d="M888.52,6963.426h-21a.956.956,0,0,1-.957-.956h0a.956.956,0,0,1,.957-.957h21a.957.957,0,0,1,.957.957h0A.956.956,0,0,1,888.52,6963.426Z" transform="translate(-839.463 -6913.118)" fill="#e1e1e1"/>
      <path id="Path_193594" data-name="Path 193594" d="M891.717,7012.555h-24.2a.956.956,0,0,1-.957-.956h0a.956.956,0,0,1,.957-.957h24.2a.956.956,0,0,1,.957.957h0A.957.957,0,0,1,891.717,7012.555Z" transform="translate(-839.463 -6944.925)" fill="#e1e1e1"/>
      <path id="Path_193595" data-name="Path 193595" d="M887.122,6995.771h15.9a.956.956,0,0,1,.956.958h0a.956.956,0,0,1-.956.955h-35.5a.956.956,0,0,1-.957-.955h0a.956.956,0,0,1,.957-.958h19.6" transform="translate(-839.463 -6935.294)" fill="#e1e1e1"/>
      <path id="Path_193596" data-name="Path 193596" d="M903.019,6888.052h-35.5a.956.956,0,0,1-.957-.956h0a.956.956,0,0,1,.957-.957h35.5a.956.956,0,0,1,.956.957h0A.956.956,0,0,1,903.019,6888.052Z" transform="translate(-839.463 -6864.318)" fill="#e1e1e1"/>
      <rect id="Rectangle_123362" data-name="Rectangle 123362" width="37.413" height="1.913" rx="0.956" transform="translate(27.099 16.578)" fill="#e1e1e1"/>
      <g id="Group_94387" data-name="Group 94387" transform="translate(10.111 16.262)">
        <path id="Path_193597" data-name="Path 193597" d="M829.567,6881.559H818.38v-11.187h11.187Zm-9.843-1.344h8.5v-8.5h-8.5Z" transform="translate(-818.38 -6870.371)" fill="#a3bbc4"/>
        <path id="Path_193598" data-name="Path 193598" d="M828.342,6884.11l-2.766-2.237,1.028-1.116,1.586,1.283,2.778-3.014,1.18.954Z" transform="translate(-823.039 -6875.975)" fill="#5fb858"/>
      </g>
      <g id="Group_94388" data-name="Group 94388" transform="translate(10.111 60.125)">
        <path id="Path_193599" data-name="Path 193599" d="M829.567,7005.965H818.38v-11.187h11.187Zm-9.843-1.344h8.5v-8.5h-8.5Z" transform="translate(-818.38 -6994.777)" fill="#a3bbc4"/>
        <path id="Path_193600" data-name="Path 193600" d="M828.342,7008.517l-2.766-2.236,1.028-1.116,1.586,1.283,2.778-3.015,1.18.954Z" transform="translate(-823.039 -7000.381)" fill="#5fb858"/>
      </g>
      <g id="Group_94389" data-name="Group 94389" transform="translate(10.111 37.74)">
        <path id="Path_193601" data-name="Path 193601" d="M829.567,6942.477H818.38V6931.29h11.187Zm-9.843-1.344h8.5v-8.5h-8.5Z" transform="translate(-818.38 -6931.29)" fill="#a3bbc4"/>
        <path id="Path_193602" data-name="Path 193602" d="M828.342,6945.028l-2.766-2.236,1.028-1.115,1.586,1.283,2.778-3.015,1.18.954Z" transform="translate(-823.039 -6936.893)" fill="#5fb858"/>
      </g>
      <path id="Path_193603" data-name="Path 193603" d="M935.248,7023.055a9.668,9.668,0,1,0,9.369,9.958A9.668,9.668,0,0,0,935.248,7023.055Zm6.736,9.878a7.034,7.034,0,1,1-6.816-7.246A7.034,7.034,0,0,1,941.984,7032.934Z" transform="translate(-877.481 -6952.958)" fill="#d6f2f5" style="mix-blend-mode: multiply;isolation: isolate"/>
      <g id="Group_94390" data-name="Group 94390" transform="translate(45.655 67.943)">
        <path id="Path_193604" data-name="Path 193604" d="M931.013,7040.588c-.122,0-.244,0-.367,0a11.838,11.838,0,1,1,.367,0Zm-.013-22.7a10.873,10.873,0,1,0,.338,0C931.225,7017.887,931.112,7017.886,931,7017.886Z" transform="translate(-919.188 -7016.953)" fill="#d6f2f5" style="mix-blend-mode: multiply;isolation: isolate"/>
      </g>
      <path id="Path_193605" data-name="Path 193605" d="M942.3,7049.07l-3.748-3.735,1.693-1.492,2.149,2.141,4.574-4.032,1.6,1.593Z" transform="translate(-886.068 -6965.195)" fill="#5fb858"/>
    </g>
    <g id="Group_94594" data-name="Group 94594" transform="translate(-5866.258 -10076.563)">
      <g transform="matrix(1, 0, 0, 1, 0, -23.34)" filter="url(#Path_193742)">
        <path id="Path_193742-2" data-name="Path 193742" d="M0,0H52.838V48.864H0Z" transform="translate(27.13 59.14)" fill="#fff"/>
      </g>
      <g id="Group_94584" data-name="Group 94584" transform="translate(0 0)">
        <circle id="Ellipse_1502" data-name="Ellipse 1502" cx="40.507" cy="40.507" r="40.507" transform="translate(0 57.286) rotate(-45)" fill="#d6f2f5"/>
        <g id="Group_94583" data-name="Group 94583" transform="translate(19.713 23.57)">
          <g id="Group_94582" data-name="Group 94582" clip-path="url(#clip-path)">
            <g id="Group_94581" data-name="Group 94581" transform="translate(9.945 11.211)">
              <path id="Path_193723" data-name="Path 193723" d="M988.725,558.261V539.341a9.954,9.954,0,0,0-9.955-9.954h-35.8a9.954,9.954,0,0,0-9.955,9.954v18.921Z" transform="translate(-933.012 -490.082)" fill="#00535e"/>
              <g id="Group_94577" data-name="Group 94577" transform="translate(15.195 28.717)">
                <path id="Path_193724" data-name="Path 193724" d="M963.381,529.5v-7.439H948.508V529.5a3.149,3.149,0,0,1-3.149,3.149h-1.827c0,5.419,5.668,9.813,12.66,9.813s12.662-4.394,12.662-9.813H966.53A3.149,3.149,0,0,1,963.381,529.5Z" transform="translate(-943.532 -522.057)" fill="#f3a38d"/>
                <path id="Path_193725" data-name="Path 193725" d="M962.819,522.057H947.946V529.5a3.149,3.149,0,0,1-3.149,3.149C954.518,532.645,960.177,527.351,962.819,522.057Z" transform="translate(-942.97 -522.057)" fill="#ed7c5c"/>
              </g>
              <path id="Path_193728" data-name="Path 193728" d="M965.774,520.87c0,6.68-4.614,11.012-10.306,11.012s-10.3-4.332-10.3-11.012,4.613-13.179,10.3-13.179S965.774,514.19,965.774,520.87Z" transform="translate(-927.612 -499.725)" fill="#f3a38d"/>
              <path id="Path_193735" data-name="Path 193735" d="M945.44,523.321l1.733-5.168a3.611,3.611,0,0,1,4.694-2.23l3.65,1.372-.156-2.69,4.732,3,.53-.741a1.136,1.136,0,0,1,1.917.113l3.51,6.348a14.776,14.776,0,0,0-.832-13.117c-2.69-4.541-6.829-1.947-10.127-6.254-3.035-3.965-12.285-1.077-8.81,6.607C946.282,510.557,943.007,515.474,945.44,523.321Z" transform="translate(-927.888 -502.176)" fill="#313131"/>
            </g>
          </g>
        </g>
      </g>
      <g id="Group_94593" data-name="Group 94593" transform="translate(40.001 74.568)">
        <g id="Group_94586" data-name="Group 94586">
          <circle id="Ellipse_1503" data-name="Ellipse 1503" cx="20.002" cy="20.002" r="20.002" fill="#6674fc"/>
          <g id="Group_94585" data-name="Group 94585" transform="translate(10.834 13.357)">
            <rect id="Rectangle_123417" data-name="Rectangle 123417" width="13.292" height="13.292" rx="0.729" fill="#fff"/>
            <path id="Path_193737" data-name="Path 193737" d="M985.505,531.611l5.263-4.982v9.965Z" transform="translate(-970.299 -524.965)" fill="#fff"/>
          </g>
        </g>
      </g>
    </g>
  </g>
</svg>
