<svg xmlns="http://www.w3.org/2000/svg" xmlns:xlink="http://www.w3.org/1999/xlink" width="140.196" height="134.182" viewBox="0 0 140.196 134.182">
  <defs>
    <filter id="Path_193590" x="49.208" y="-0.001" width="90.988" height="118.596" filterUnits="userSpaceOnUse">
      <feOffset dy="12" input="SourceAlpha"/>
      <feGaussianBlur stdDeviation="3" result="blur"/>
      <feFlood flood-color="#8a959e" flood-opacity="0.157"/>
      <feComposite operator="in" in2="blur"/>
      <feComposite in="SourceGraphic"/>
    </filter>
    <filter id="Path_193742" x="8.052" y="50.403" width="70.838" height="66.863" filterUnits="userSpaceOnUse">
      <feOffset dx="6" dy="3" input="SourceAlpha"/>
      <feGaussianBlur stdDeviation="3" result="blur-2"/>
      <feFlood flood-color="#8a959e" flood-opacity="0.157"/>
      <feComposite operator="in" in2="blur-2"/>
      <feComposite in="SourceGraphic"/>
    </filter>
    <clipPath id="clip-path">
      <path id="Path_193736" data-name="Path 193736" d="M1001.272,531.987A37.573,37.573,0,1,1,963.7,494.414,37.572,37.572,0,0,1,1001.272,531.987Z" transform="translate(-926.127 -494.414)" fill="none"/>
    </clipPath>
  </defs>
  <g id="Group_101809" data-name="Group 101809" transform="translate(7616.208 -12912.798)">
    <g id="Group_101807" data-name="Group 101807" transform="translate(-4767 24331.098)">
      <g id="Group_94912" data-name="Group 94912" transform="translate(-85 -49.265)">
        <g id="Group_94907" data-name="Group 94907" transform="translate(-2706 -11369.034)">
          <path id="Path_193575" data-name="Path 193575" d="M944.189,6990.832,923.3,6988.69a.957.957,0,0,1-.854-1.049h0a.956.956,0,0,1,1.049-.854l20.892,2.142a.956.956,0,0,1,.854,1.049h0A.957.957,0,0,1,944.189,6990.832Z" transform="translate(-875.638 -6929.477)" fill="#a3bbc4"/>
          <path id="Path_193576" data-name="Path 193576" d="M942.36,7040.031l-24.073-2.468a.956.956,0,0,1-.854-1.048h0a.957.957,0,0,1,1.049-.854l24.073,2.469a.955.955,0,0,1,.854,1.048h0A.956.956,0,0,1,942.36,7040.031Z" transform="translate(-872.395 -6961.12)" fill="#a3bbc4"/>
          <g id="Group_94385" data-name="Group 94385" transform="translate(27.667 23.513)">
            <g id="Group_94382" data-name="Group 94382" transform="translate(4.473 0)">
              <path id="Path_193580" data-name="Path 193580" d="M891.986,6903.209l-11.129-1.14L882,6890.94l11.129,1.14Zm-9.655-2.341,8.455.867.867-8.454-8.455-.868Z" transform="translate(-880.857 -6890.94)" fill="#a3bbc4"/>
              <path id="Path_193581" data-name="Path 193581" d="M892.069,6906.631l-2.523-2.506,1.136-1.005,1.447,1.438,3.071-2.716,1.076,1.07Z" transform="translate(-886.483 -6897.998)" fill="#5fb858"/>
            </g>
            <g id="Group_94383" data-name="Group 94383" transform="translate(0 43.635)">
              <path id="Path_193582" data-name="Path 193582" d="M879.3,7026.967l-11.129-1.14,1.141-11.13,11.129,1.142Zm-9.655-2.341,8.455.868.867-8.455-8.455-.867Z" transform="translate(-868.17 -7014.697)" fill="#a3bbc4"/>
              <path id="Path_193583" data-name="Path 193583" d="M879.382,7030.391l-2.523-2.507,1.136-1,1.447,1.438,3.071-2.716,1.076,1.07Z" transform="translate(-873.796 -7021.756)" fill="#5fb858"/>
            </g>
            <g id="Group_94384" data-name="Group 94384" transform="translate(2.283 21.367)">
              <path id="Path_193584" data-name="Path 193584" d="M885.773,6963.81l-11.129-1.14,1.141-11.129,11.129,1.14Zm-9.655-2.341,8.455.867.867-8.454-8.455-.868Z" transform="translate(-874.644 -6951.541)" fill="#a3bbc4"/>
              <path id="Path_193585" data-name="Path 193585" d="M885.857,6967.233l-2.523-2.507,1.136-1.006,1.447,1.438,3.071-2.716,1.076,1.069Z" transform="translate(-880.27 -6958.599)" fill="#5fb858"/>
            </g>
          </g>
          <path id="Path_193589" data-name="Path 193589" d="M866.654,6928.468H843.245l-35.748.092h0l-13.978-.972,1.358-94.521h72.988l-.092,8.406-1.9-.2,1.222,62.447Z" transform="translate(-792.078 -6829.958)" fill="#0e4744" opacity="0.18" style="mix-blend-mode: multiply;isolation: isolate"/>
          <g transform="matrix(1, 0, 0, 1, -58.21, 0)" filter="url(#Path_193590)">
            <path id="Path_193590-2" data-name="Path 193590" d="M861.536,6920.786l-23.617,1.06H789.7v-97.6H862.69v72.187Z" transform="translate(-731.49 -6824.25)" fill="#fff"/>
          </g>
        </g>
        <g id="Group_94910" data-name="Group 94910" transform="translate(0.88 5.651)">
          <path id="Path_193828" data-name="Path 193828" d="M942.084,7048.666l-3.535-3.523,1.6-1.408,2.027,2.02,4.314-3.8,1.508,1.5Z" transform="translate(-3612.259 -18352.76)" fill="#5fb858"/>
          <g id="Group_94909" data-name="Group 94909" transform="translate(-2679.052 -11316.928)">
            <path id="Path_193818" data-name="Path 193818" d="M400.4,395.7l-.119-.264-.232-.5c-.613-1.307-1.175-2.408-1.608-3.119-.029-.05-.206-.024-.388.058s-.264.164-.264.217c.2.792.594,1.981,1.093,3.335l.264.737-.885-.312-.581-.2-.145-.05h0a1.48,1.48,0,0,0-.288-.071,1.252,1.252,0,0,0-1.244.618l-.042.082-.016.034-.034.069-.066.14-.264.557-.264.555-.106.225-.333-.753c-.613-1.307-1.172-2.411-1.6-3.121-.032-.05-.211-.024-.4.058s-.285.169-.264.222c.2.792.6,1.981,1.1,3.333l.193.528.1.264.05.132.026.066v.034l.032.066h0a1.257,1.257,0,0,0,.977.7,1.292,1.292,0,0,0,.631-.076,1.268,1.268,0,0,0,.528-.394.87.87,0,0,0,.092-.135c.024-.04.063-.108.066-.119l.069-.135.135-.264.264-.547.264-.552.042-.087h.029l.586.193.581.188.288.092.143.045.071.024.172.037a1.268,1.268,0,0,0,1.5-1.545,2.274,2.274,0,0,0-.151-.367Zm-5.26,2.316C395.135,398.033,395.14,398.014,395.14,398.02Z" transform="translate(-380.537 -373.686)" fill="#bfd8db"/>
            <path id="Path_193819" data-name="Path 193819" d="M146.777,393.686c-.172-.069-.322-.085-.349-.04-.43.71-.99,1.814-1.6,3.121l-.232.5-.119.264-.106-.227-.264-.555-.264-.557-.055-.137-.034-.069-.016-.034-.042-.082h0a1.251,1.251,0,0,0-1.244-.618,1.473,1.473,0,0,0-.288.071l-.145.05-.581.2-.576.2-.285.1h-.024l.085-.222.193-.528c.5-1.355.89-2.53,1.093-3.335.013-.055-.127-.164-.314-.235s-.312-.082-.338-.037c-.439.731-1,1.846-1.614,3.14l-.232.5-.119.264h0a2.253,2.253,0,0,0-.145.364,1.268,1.268,0,0,0,1.5,1.54l.143-.037.071-.024.143-.045.288-.092.581-.188.584-.192h.029l.042.087.264.552.264.547.135.264.069.135s.042.079.066.119h0a.878.878,0,0,0,.092.135,1.267,1.267,0,0,0,.528.394,1.288,1.288,0,0,0,.631.076,1.257,1.257,0,0,0,.982-.713l.032-.066v-.034l.026-.066.05-.132.1-.264.193-.528c.5-1.355.9-2.53,1.1-3.333C147.113,393.871,146.968,393.763,146.777,393.686Z" transform="translate(-139 -373.395)" fill="#bfd8db"/>
            <path id="Path_193820" data-name="Path 193820" d="M155.984,15.855c-.074-.074-.156-.153-.225-.217l-.188-.156-.364-.309-.346-.3a1.584,1.584,0,0,1-.5-.856,1.633,1.633,0,0,1-.037-.33v-.414l.061-.882a2.459,2.459,0,0,0-.816-1.9,2.43,2.43,0,0,0-1.814-.615l-.739.069-.356.034a2.228,2.228,0,0,1-.293.016,1.776,1.776,0,0,1-1-.341,2.732,2.732,0,0,1-.393-.38l-.4-.42a.354.354,0,1,0-.528.465l.364.451h0a3.4,3.4,0,0,0,.46.51,2.579,2.579,0,0,0,1.439.6,3.161,3.161,0,0,0,.409,0l.37-.019.737-.029a1.448,1.448,0,0,1,1.056.415,1.4,1.4,0,0,1,.42,1.1l-.071.858-.029.222v.251a2.746,2.746,0,0,0,.874,2.089l.343.328.367.317.18.161.119.121h0a1.346,1.346,0,0,1,.293.586,1.294,1.294,0,0,1-.386,1.223c-.029.032-.108.1-.169.15l-.2.166-.4.338-.206.18h0a2.669,2.669,0,0,0-.238.243,2.841,2.841,0,0,0-.7,1.9v.3l.016.264.032.528v.246a.916.916,0,0,1,0,.174,1.192,1.192,0,0,1-.084.333,1.245,1.245,0,0,1-.433.528,1.225,1.225,0,0,1-.65.224h-.19l-.264-.018-.549-.04-.264-.018h0a3.163,3.163,0,0,0-.364,0,2.9,2.9,0,0,0-1.967.927l-.768.861c-.071.085-.1.106-.145.153a1.56,1.56,0,0,1-.137.111,1.3,1.3,0,0,1-.312.156,1.228,1.228,0,0,1-1.289-.341l-.742-.848a2.905,2.905,0,0,0-1.215-.84,2.844,2.844,0,0,0-.731-.161,2.709,2.709,0,0,0-.375,0h-.3l-.56.04c-.18,0-.4.029-.491.026h0a1.228,1.228,0,0,1-1.093-.753,1.158,1.158,0,0,1-.085-.335,1.019,1.019,0,0,1,0-.174v-.256l.034-.549.016-.264v-.327h0a2.857,2.857,0,0,0-.792-1.949c-.04-.042-.082-.085-.127-.124l-.042-.087-.05-.045-.214-.161-.407-.351-.2-.174c-.053-.05-.087-.082-.129-.127a1.265,1.265,0,0,1-.248-1.275,1.306,1.306,0,0,1,.153-.3c.037-.042.069-.09.108-.129a1.816,1.816,0,0,1,.14-.135l.755-.676c.053-.048.15-.135.219-.209h0a2.6,2.6,0,0,0,.209-.246,2.8,2.8,0,0,0,.565-1.783,1.109,1.109,0,0,0-.018-.264l-.018-.24-.042-.488-.029-.227a.956.956,0,0,1,0-.1v-.082a1.456,1.456,0,0,1,.04-.319,1.373,1.373,0,0,1,1.421-1.022l.848.04c.143,0,.264.016.449.016a2.7,2.7,0,0,0,.5-.055,2.666,2.666,0,0,0,.911-.365,2.8,2.8,0,0,0,.378-.293,3.479,3.479,0,0,0,.3-.325l.473-.57c.074-.087.161-.2.222-.264a1.639,1.639,0,0,1,.193-.187,1.523,1.523,0,0,1,.959-.33,1.432,1.432,0,0,1,.481.076,1.466,1.466,0,0,1,.414.209.394.394,0,0,0,.248.061.418.418,0,0,0,.264-.116.351.351,0,0,0-.061-.528,2.293,2.293,0,0,0-1.3-.528,2.351,2.351,0,0,0-1.537.42,2.5,2.5,0,0,0-.327.283c-.106.1-.169.18-.264.264l-.5.544a2.491,2.491,0,0,1-.227.227,1.791,1.791,0,0,1-.243.172,1.657,1.657,0,0,1-.57.2,2.45,2.45,0,0,1-.687,0l-.845-.071h0a2.562,2.562,0,0,0-1.1.143,2.516,2.516,0,0,0-.961.65,2.548,2.548,0,0,0-.586,1.019,2.635,2.635,0,0,0-.1.6v.528l.048.932a1.54,1.54,0,0,1-.333.969,1.372,1.372,0,0,1-.09.135,1.706,1.706,0,0,1-.148.132l-.779.66c-.055.045-.153.14-.232.217h0a3.445,3.445,0,0,0-.222.264,2.608,2.608,0,0,0,.145,3.251c.077.087.172.177.248.248l.2.177.4.356.2.18.05.045.034.032h0a.892.892,0,0,1,.063.066,1.465,1.465,0,0,1,.4,1v.222l-.018.264-.04.549v.293h0a2.4,2.4,0,0,0,0,.375,2.583,2.583,0,0,0,.18.734,2.662,2.662,0,0,0,2.377,1.65c.285,0,.433-.016.628-.026l.56-.037h.261a1.274,1.274,0,0,1,.188,0,1.391,1.391,0,0,1,.365.082,1.459,1.459,0,0,1,.618.433l.745.85a2.669,2.669,0,0,0,2.826.771,2.738,2.738,0,0,0,.692-.346,2.915,2.915,0,0,0,.3-.227,2.5,2.5,0,0,0,.24-.264l.726-.832h0a1.446,1.446,0,0,1,.618-.393,1.471,1.471,0,0,1,.364-.071,1.637,1.637,0,0,1,.19,0l.264.018.552.034.264.016h.359a2.641,2.641,0,0,0,2.295-1.648,2.574,2.574,0,0,0,.174-.713,2.269,2.269,0,0,0,0-.364v-.28l-.074-1.032h0a1.488,1.488,0,0,1,.156-.7,1.505,1.505,0,0,1,.209-.309,1.393,1.393,0,0,1,.124-.129l.182-.164.386-.343.193-.172c.066-.061.119-.1.209-.193h0a2.569,2.569,0,0,0,.108-3.586Z" transform="translate(-136.526 -7.738)" fill="#bfd8db"/>
          </g>
        </g>
        <text id="_" data-name="%" transform="translate(-2668 -11334)" fill="#6674fc" font-size="23" font-family="Nunito-ExtraBold, Nunito" font-weight="800" opacity="0.93"><tspan x="-10.971" y="0">%</tspan></text>
        <g id="Rectangle_123500" data-name="Rectangle 123500" transform="translate(-2699 -11357)" fill="none" stroke="#bfd8db" stroke-width="0.5">
          <rect width="59" height="30" rx="3" stroke="none"/>
          <rect x="0.25" y="0.25" width="58.5" height="29.5" rx="2.75" fill="none"/>
        </g>
      </g>
      <path id="Path_193825" data-name="Path 193825" d="M893.181,6888.531H867.26c-.386,0-.7-.534-.7-1.2h0c0-.661.313-1.2.7-1.2h25.92c.386,0,.7.535.7,1.2h0C893.879,6888,893.566,6888.531,893.181,6888.531Z" transform="translate(-3634.375 -18253.473)" fill="#e1e1e1"/>
      <rect id="Rectangle_123499" data-name="Rectangle 123499" width="37.413" height="1.913" rx="0.956" transform="translate(-2771.813 -11372.577)" fill="#e1e1e1"/>
    </g>
    <g id="Group_101808" data-name="Group 101808" transform="translate(-8258 6013.502)">
      <g id="Group_94596" data-name="Group 94596" transform="translate(625.714 6919.905)">
        <g transform="matrix(1, 0, 0, 1, 16.08, -20.61)" filter="url(#Path_193742)">
          <path id="Path_193742-2" data-name="Path 193742" d="M0,0H52.838V48.864H0Z" transform="translate(11.05 56.4)" fill="#fff"/>
        </g>
        <g id="Group_94584" data-name="Group 94584" transform="translate(0 0)">
          <circle id="Ellipse_1502" data-name="Ellipse 1502" cx="40.507" cy="40.507" r="40.507" transform="translate(16.078 17.492) rotate(-1)" fill="#c1eaef"/>
          <g id="Group_94583" data-name="Group 94583" transform="translate(19.713 23.57)">
            <g id="Group_94582" data-name="Group 94582" clip-path="url(#clip-path)">
              <g id="Group_94581" data-name="Group 94581" transform="translate(9.945 11.211)">
                <path id="Path_193723" data-name="Path 193723" d="M988.725,558.261V539.341a9.954,9.954,0,0,0-9.955-9.954h-35.8a9.954,9.954,0,0,0-9.955,9.954v18.921Z" transform="translate(-933.012 -490.082)" fill="#00535e"/>
                <g id="Group_94577" data-name="Group 94577" transform="translate(15.195 28.717)">
                  <path id="Path_193724" data-name="Path 193724" d="M963.381,529.5v-7.439H948.508V529.5a3.149,3.149,0,0,1-3.149,3.149h-1.827c0,5.419,5.668,9.813,12.66,9.813s12.662-4.394,12.662-9.813H966.53A3.149,3.149,0,0,1,963.381,529.5Z" transform="translate(-943.532 -522.057)" fill="#f3a38d"/>
                  <path id="Path_193725" data-name="Path 193725" d="M962.819,522.057H947.946V529.5a3.149,3.149,0,0,1-3.149,3.149C954.518,532.645,960.177,527.351,962.819,522.057Z" transform="translate(-942.97 -522.057)" fill="#ed7c5c"/>
                </g>
                <path id="Path_193728" data-name="Path 193728" d="M965.774,520.87c0,6.68-4.614,11.012-10.306,11.012s-10.3-4.332-10.3-11.012,4.613-13.179,10.3-13.179S965.774,514.19,965.774,520.87Z" transform="translate(-927.612 -499.725)" fill="#f3a38d"/>
                <path id="Path_193735" data-name="Path 193735" d="M945.44,523.321l1.733-5.168a3.611,3.611,0,0,1,4.694-2.23l3.65,1.372-.156-2.69,4.732,3,.53-.741a1.136,1.136,0,0,1,1.917.113l3.51,6.348a14.776,14.776,0,0,0-.832-13.117c-2.69-4.541-6.829-1.947-10.127-6.254-3.035-3.965-12.285-1.077-8.81,6.607C946.282,510.557,943.007,515.474,945.44,523.321Z" transform="translate(-927.888 -502.176)" fill="#313131"/>
              </g>
            </g>
          </g>
        </g>
      </g>
      <g id="Group_94598" data-name="Group 94598" transform="translate(662.998 6993.473)">
        <g id="Group_94586" data-name="Group 94586">
          <circle id="Ellipse_1503" data-name="Ellipse 1503" cx="20.002" cy="20.002" r="20.002" fill="#6674fc"/>
          <path id="Path_193743" data-name="Path 193743" d="M1279.695,489.821c-.981,4.426-2.72,6.747-6.12,6.747-3.429,0-5.024-2.426-4-7.261.894-4.184,2.818-6.583,5.965-6.583C1278.911,482.724,1280.724,485.084,1279.695,489.821Zm-9.658,17.434,17.636-24.172h3.133l-17.684,24.172Zm3.288-17.809c-.717,3.419-.373,4.1.532,4.1.819,0,1.43-.612,2.158-4.044.619-2.853.406-3.79-.618-3.79C1274.517,485.717,1273.909,486.65,1273.324,489.447Zm18.016,11.32c-.982,4.426-2.72,6.747-6.12,6.747-3.429,0-5.025-2.426-4-7.261.894-4.184,2.818-6.583,5.965-6.583C1290.557,493.669,1292.37,496.03,1291.341,500.767Zm-6.371-.374c-.717,3.419-.373,4.1.532,4.1.819,0,1.43-.612,2.158-4.044.619-2.853.406-3.791-.618-3.791C1286.163,496.662,1285.554,497.6,1284.97,500.392Z" transform="translate(-1260.447 -475.116)" fill="#fff"/>
        </g>
      </g>
    </g>
  </g>
</svg>
