<svg xmlns="http://www.w3.org/2000/svg" xmlns:xlink="http://www.w3.org/1999/xlink" width="139.988" height="128.704" viewBox="0 0 139.988 128.704">
  <defs>
    <filter id="Path_193590" x="49" y="-0.001" width="90.988" height="118.596" filterUnits="userSpaceOnUse">
      <feOffset dy="12" input="SourceAlpha"/>
      <feGaussianBlur stdDeviation="3" result="blur"/>
      <feFlood flood-color="#8a959e" flood-opacity="0.157"/>
      <feComposite operator="in" in2="blur"/>
      <feComposite in="SourceGraphic"/>
    </filter>
    <filter id="Path_193742" x="10.344" y="50.403" width="70.838" height="66.863" filterUnits="userSpaceOnUse">
      <feOffset dx="6" dy="3" input="SourceAlpha"/>
      <feGaussianBlur stdDeviation="3" result="blur-2"/>
      <feFlood flood-color="#8a959e" flood-opacity="0.157"/>
      <feComposite operator="in" in2="blur-2"/>
      <feComposite in="SourceGraphic"/>
    </filter>
    <clipPath id="clip-path">
      <path id="Path_193736" data-name="Path 193736" d="M1001.272,531.987A37.573,37.573,0,1,1,963.7,494.414,37.572,37.572,0,0,1,1001.272,531.987Z" transform="translate(-926.127 -494.414)" fill="none"/>
    </clipPath>
    <clipPath id="clip-path-2">
      <rect id="Rectangle_125254" data-name="Rectangle 125254" width="40.672" height="11.567" transform="translate(0 0)" fill="none"/>
    </clipPath>
    <clipPath id="clip-path-3">
      <rect id="Rectangle_125254-2" data-name="Rectangle 125254" width="40.672" height="11.567" transform="translate(0 0)" fill="#fff"/>
    </clipPath>
  </defs>
  <g id="Group_103255" data-name="Group 103255" transform="translate(5260 -12801.798)">
    <g id="Group_103251" data-name="Group 103251" transform="translate(-2750 24220.098)">
      <g id="Group_94913" data-name="Group 94913" transform="translate(254 -49.265)">
        <g id="Group_94907" data-name="Group 94907" transform="translate(-2706 -11369.034)">
          <path id="Path_193575" data-name="Path 193575" d="M944.189,6990.832,923.3,6988.69a.957.957,0,0,1-.854-1.049h0a.956.956,0,0,1,1.049-.854l20.892,2.142a.956.956,0,0,1,.854,1.049h0A.957.957,0,0,1,944.189,6990.832Z" transform="translate(-875.638 -6929.477)" fill="#a3bbc4"/>
          <path id="Path_193576" data-name="Path 193576" d="M942.36,7040.031l-24.073-2.468a.956.956,0,0,1-.854-1.048h0a.957.957,0,0,1,1.049-.854l24.073,2.469a.955.955,0,0,1,.854,1.048h0A.956.956,0,0,1,942.36,7040.031Z" transform="translate(-872.395 -6961.12)" fill="#a3bbc4"/>
          <g id="Group_94385" data-name="Group 94385" transform="translate(27.667 23.513)">
            <g id="Group_94382" data-name="Group 94382" transform="translate(4.473 0)">
              <path id="Path_193580" data-name="Path 193580" d="M891.986,6903.209l-11.129-1.14L882,6890.94l11.129,1.14Zm-9.655-2.341,8.455.867.867-8.454-8.455-.868Z" transform="translate(-880.857 -6890.94)" fill="#a3bbc4"/>
              <path id="Path_193581" data-name="Path 193581" d="M892.069,6906.631l-2.523-2.506,1.136-1.005,1.447,1.438,3.071-2.716,1.076,1.07Z" transform="translate(-886.483 -6897.998)" fill="#5fb858"/>
            </g>
            <g id="Group_94383" data-name="Group 94383" transform="translate(0 43.635)">
              <path id="Path_193582" data-name="Path 193582" d="M879.3,7026.967l-11.129-1.14,1.141-11.13,11.129,1.142Zm-9.655-2.341,8.455.868.867-8.455-8.455-.867Z" transform="translate(-868.17 -7014.697)" fill="#a3bbc4"/>
              <path id="Path_193583" data-name="Path 193583" d="M879.382,7030.391l-2.523-2.507,1.136-1,1.447,1.438,3.071-2.716,1.076,1.07Z" transform="translate(-873.796 -7021.756)" fill="#5fb858"/>
            </g>
            <g id="Group_94384" data-name="Group 94384" transform="translate(2.283 21.367)">
              <path id="Path_193584" data-name="Path 193584" d="M885.773,6963.81l-11.129-1.14,1.141-11.129,11.129,1.14Zm-9.655-2.341,8.455.867.867-8.454-8.455-.868Z" transform="translate(-874.644 -6951.541)" fill="#a3bbc4"/>
              <path id="Path_193585" data-name="Path 193585" d="M885.857,6967.233l-2.523-2.507,1.136-1.006,1.447,1.438,3.071-2.716,1.076,1.069Z" transform="translate(-880.27 -6958.599)" fill="#5fb858"/>
            </g>
          </g>
          <path id="Path_193589" data-name="Path 193589" d="M866.654,6928.468H843.245l-35.748.092h0l-13.978-.972,1.358-94.521h72.988l-.092,8.406-1.9-.2,1.222,62.447Z" transform="translate(-792.078 -6829.958)" fill="#0e4744" opacity="0.18" style="mix-blend-mode: multiply;isolation: isolate"/>
          <g transform="matrix(1, 0, 0, 1, -58, 0)" filter="url(#Path_193590)">
            <path id="Path_193590-2" data-name="Path 193590" d="M861.536,6920.786l-23.617,1.06H789.7v-97.6H862.69v72.187Z" transform="translate(-731.7 -6824.25)" fill="#fff"/>
          </g>
        </g>
        <g id="Rectangle_123500" data-name="Rectangle 123500" transform="translate(-2699 -11357)" fill="none" stroke="#bfd8db" stroke-width="0.5">
          <rect width="59" height="30" rx="3" stroke="none"/>
          <rect x="0.25" y="0.25" width="58.5" height="29.5" rx="2.75" fill="none"/>
        </g>
      </g>
      <g id="Group_94917" data-name="Group 94917">
        <path id="Path_193830" data-name="Path 193830" d="M-2422.834-11359.861l6.2-.793,2.647-5.482,3.628,5.855,5.669,1.021-4.949,4.122.867,5.781-5.442-2.153-5.328,1.773,1.06-6.082Z" transform="translate(-0.343 10.169)" fill="#bfd8db"/>
        <path id="Path_193829" data-name="Path 193829" d="M121.579,151.159a.819.819,0,0,0-.64.384l-3.1,5.03-1.152.23-3.123-.64-1.856-3.353a.819.819,0,0,0-1.433,0l-1.882,3.379-4.173,1.139a.819.819,0,0,0-.358,1.369l2.777,2.8-.55,3.878a.819.819,0,0,0,1.178.845l3.724-1.856,3.725,1.856a.819.819,0,0,0,.768-.013l-.384,2.867a.819.819,0,0,0,1.126.858l5.414-2.317,5.414,2.317a.819.819,0,0,0,1.126-.858l-.384-2.867a.819.819,0,0,0,.768.013l3.725-1.856,3.724,1.856a.819.819,0,0,0,1.178-.845l-.179-1.229a.819.819,0,0,0-1.613-.064l-2.739-1.369a.819.819,0,0,0-.742,0l-2.7,1.344.422-2.957,2-2a.819.819,0,0,0-.41-1.382l-.589-.115a.816.816,0,0,0,.32-.32l1.331-2.393,1.331,2.393a.819.819,0,0,0,.5.4l3.149.858-1.869,1.869a.819.819,0,1,0,1.152,1.152l2.867-2.867a.819.819,0,0,0-.358-1.369l-4.173-1.139-1.882-3.379a.819.819,0,0,0-1.433,0l-1.856,3.353-3.123.64-1.152-.23-3.1-5.03a.819.819,0,0,0-.768-.384Zm.064,2.394,2.573,4.185a.819.819,0,0,0,.537.371l4.646.934-3.417,3.417a.819.819,0,0,0-.23.678l.627,4.723-4.416-1.894a.819.819,0,0,0-.64,0l-4.416,1.894.627-4.723a.819.819,0,0,0-.23-.678l-3.417-3.417,4.646-.934a.819.819,0,0,0,.537-.371ZM110.994,154.9l1.331,2.393a.817.817,0,0,0,.32.32l-.589.115a.819.819,0,0,0-.41,1.382l2,2,.422,2.957-2.7-1.344a.819.819,0,0,0-.742,0l-2.688,1.344.4-2.726a.82.82,0,0,0-.23-.691l-2.086-2.1,3.149-.858a.819.819,0,0,0,.5-.4Zm4.569,8.127.307.307-.128.96Zm12.159,0-.179,1.267-.128-.96Z" transform="translate(-2535.75 -11508.154)" fill="#5fb858"/>
      </g>
    </g>
    <g id="Group_103252" data-name="Group 103252" transform="translate(-5899.5 5902.502)">
      <g id="Group_94596" data-name="Group 94596" transform="translate(625.714 6919.905)">
        <g transform="matrix(1, 0, 0, 1, 13.79, -20.61)" filter="url(#Path_193742)">
          <path id="Path_193742-2" data-name="Path 193742" d="M0,0H52.838V48.864H0Z" transform="translate(13.34 56.4)" fill="#fff"/>
        </g>
        <g id="Group_94584" data-name="Group 94584" transform="translate(0 0)">
          <circle id="Ellipse_1502" data-name="Ellipse 1502" cx="40.507" cy="40.507" r="40.507" transform="translate(16.078 17.492) rotate(-1)" fill="#a2dbe1"/>
          <g id="Group_94583" data-name="Group 94583" transform="translate(19.713 23.57)">
            <g id="Group_94582" data-name="Group 94582" clip-path="url(#clip-path)">
              <g id="Group_94581" data-name="Group 94581" transform="translate(9.945 11.211)">
                <path id="Path_193723" data-name="Path 193723" d="M988.725,558.261V539.341a9.954,9.954,0,0,0-9.955-9.954h-35.8a9.954,9.954,0,0,0-9.955,9.954v18.921Z" transform="translate(-933.012 -490.082)" fill="#00535e"/>
                <g id="Group_94577" data-name="Group 94577" transform="translate(15.195 28.717)">
                  <path id="Path_193724" data-name="Path 193724" d="M963.381,529.5v-7.439H948.508V529.5a3.149,3.149,0,0,1-3.149,3.149h-1.827c0,5.419,5.668,9.813,12.66,9.813s12.662-4.394,12.662-9.813H966.53A3.149,3.149,0,0,1,963.381,529.5Z" transform="translate(-943.532 -522.057)" fill="#f3a38d"/>
                  <path id="Path_193725" data-name="Path 193725" d="M962.819,522.057H947.946V529.5a3.149,3.149,0,0,1-3.149,3.149C954.518,532.645,960.177,527.351,962.819,522.057Z" transform="translate(-942.97 -522.057)" fill="#ed7c5c"/>
                </g>
                <path id="Path_193728" data-name="Path 193728" d="M965.774,520.87c0,6.68-4.614,11.012-10.306,11.012s-10.3-4.332-10.3-11.012,4.613-13.179,10.3-13.179S965.774,514.19,965.774,520.87Z" transform="translate(-927.612 -499.725)" fill="#f3a38d"/>
                <path id="Path_193735" data-name="Path 193735" d="M945.44,523.321l1.733-5.168a3.611,3.611,0,0,1,4.694-2.23l3.65,1.372-.156-2.69,4.732,3,.53-.741a1.136,1.136,0,0,1,1.917.113l3.51,6.348a14.776,14.776,0,0,0-.832-13.117c-2.69-4.541-6.829-1.947-10.127-6.254-3.035-3.965-12.285-1.077-8.81,6.607C946.282,510.557,943.007,515.474,945.44,523.321Z" transform="translate(-927.888 -502.176)" fill="#313131"/>
              </g>
            </g>
          </g>
        </g>
      </g>
      <g id="Group_94601" data-name="Group 94601">
        <rect id="Rectangle_123418" data-name="Rectangle 123418" width="88" height="29" rx="6" transform="translate(639.5 6999)" fill="#6674fc"/>
      </g>
    </g>
    <g id="Group_103253" data-name="Group 103253" transform="translate(-5186 12824)">
      <g id="Group_103248" data-name="Group 103248" clip-path="url(#clip-path-2)">
        <path id="Path_209559" data-name="Path 209559" d="M9.752,5.448a.887.887,0,0,1,.264.68v3.12a3.687,3.687,0,0,1-.1.992,1.1,1.1,0,0,1-.36.56,2.163,2.163,0,0,1-.768.351,9.1,9.1,0,0,1-1.432.305,11.243,11.243,0,0,1-1.528.111,6.535,6.535,0,0,1-3.1-.7,4.8,4.8,0,0,1-2.016-2,6.432,6.432,0,0,1-.7-3.1A6.411,6.411,0,0,1,.7,2.712,4.82,4.82,0,0,1,2.688.7,6.231,6.231,0,0,1,5.712,0a5.753,5.753,0,0,1,3.68,1.151,1.217,1.217,0,0,1,.336.385,1.067,1.067,0,0,1,.1.479,1.115,1.115,0,0,1-.232.712.68.68,0,0,1-.552.3,1.041,1.041,0,0,1-.376-.063,2.822,2.822,0,0,1-.408-.208A5.5,5.5,0,0,0,7.024,2.16a4.1,4.1,0,0,0-1.232-.177q-3.264,0-3.264,3.792a4.294,4.294,0,0,0,.848,2.912,3.235,3.235,0,0,0,2.56.96,7.243,7.243,0,0,0,1.84-.239V6.927H6.3a1.061,1.061,0,0,1-.72-.223.808.808,0,0,1-.256-.641.8.8,0,0,1,.256-.639A1.056,1.056,0,0,1,6.3,5.2H9.04a.994.994,0,0,1,.712.248" fill="#6a73f7"/>
        <path id="Path_209560" data-name="Path 209560" d="M22.768,10.416a.969.969,0,0,1-.36.76,1.223,1.223,0,0,1-.824.312,1.077,1.077,0,0,1-.576-.168,1.057,1.057,0,0,1-.416-.505l-.848-1.887H14.32l-.848,1.887a1.078,1.078,0,0,1-.408.505,1.066,1.066,0,0,1-.584.168,1.25,1.25,0,0,1-.832-.312.959.959,0,0,1-.368-.76,1.276,1.276,0,0,1,.128-.512L15.728.832a1.247,1.247,0,0,1,.528-.584,1.518,1.518,0,0,1,1.52.008,1.418,1.418,0,0,1,.544.576L22.64,9.9a1.292,1.292,0,0,1,.128.512M18.9,7.04,17.04,2.88,15.168,7.04Z" fill="#6a73f7"/>
        <path id="Path_209561" data-name="Path 209561" d="M25.656,11.168a1.2,1.2,0,0,1-.344-.9v-8.1H22.72q-1.183,0-1.184-1.025,0-1.007,1.184-1.007H30.4q1.185,0,1.184,1.007,0,1.026-1.184,1.025H27.808v8.1a1.211,1.211,0,0,1-.336.9,1.395,1.395,0,0,1-1.816,0" fill="#6a73f7"/>
        <path id="Path_209562" data-name="Path 209562" d="M32.96,11.12a1.168,1.168,0,0,1-.3-.864V1.311a1.164,1.164,0,0,1,.3-.863,1.169,1.169,0,0,1,.864-.305h5.664q1.184,0,1.184.96,0,.978-1.184.977h-4.4V4.72h4.08q1.185,0,1.184.976,0,.96-1.184.96h-4.08V9.488h4.4q1.184,0,1.184.976,0,.958-1.184.96H33.824a1.172,1.172,0,0,1-.864-.3" fill="#6a73f7"/>
      </g>
    </g>
    <g id="Group_103254" data-name="Group 103254" transform="translate(-5235 12911)">
      <g id="Group_103248-2" data-name="Group 103248" transform="translate(-2)" clip-path="url(#clip-path-3)">
        <path id="Path_209559-2" data-name="Path 209559" d="M9.752,5.448a.887.887,0,0,1,.264.68v3.12a3.687,3.687,0,0,1-.1.992,1.1,1.1,0,0,1-.36.56,2.163,2.163,0,0,1-.768.351,9.1,9.1,0,0,1-1.432.305,11.243,11.243,0,0,1-1.528.111,6.535,6.535,0,0,1-3.1-.7,4.8,4.8,0,0,1-2.016-2,6.432,6.432,0,0,1-.7-3.1A6.411,6.411,0,0,1,.7,2.712,4.82,4.82,0,0,1,2.688.7,6.231,6.231,0,0,1,5.712,0a5.753,5.753,0,0,1,3.68,1.151,1.217,1.217,0,0,1,.336.385,1.067,1.067,0,0,1,.1.479,1.115,1.115,0,0,1-.232.712.68.68,0,0,1-.552.3,1.041,1.041,0,0,1-.376-.063,2.822,2.822,0,0,1-.408-.208A5.5,5.5,0,0,0,7.024,2.16a4.1,4.1,0,0,0-1.232-.177q-3.264,0-3.264,3.792a4.294,4.294,0,0,0,.848,2.912,3.235,3.235,0,0,0,2.56.96,7.243,7.243,0,0,0,1.84-.239V6.927H6.3a1.061,1.061,0,0,1-.72-.223.808.808,0,0,1-.256-.641.8.8,0,0,1,.256-.639A1.056,1.056,0,0,1,6.3,5.2H9.04a.994.994,0,0,1,.712.248" fill="#fff"/>
        <path id="Path_209560-2" data-name="Path 209560" d="M22.768,10.416a.969.969,0,0,1-.36.76,1.223,1.223,0,0,1-.824.312,1.077,1.077,0,0,1-.576-.168,1.057,1.057,0,0,1-.416-.505l-.848-1.887H14.32l-.848,1.887a1.078,1.078,0,0,1-.408.505,1.066,1.066,0,0,1-.584.168,1.25,1.25,0,0,1-.832-.312.959.959,0,0,1-.368-.76,1.276,1.276,0,0,1,.128-.512L15.728.832a1.247,1.247,0,0,1,.528-.584,1.518,1.518,0,0,1,1.52.008,1.418,1.418,0,0,1,.544.576L22.64,9.9a1.292,1.292,0,0,1,.128.512M18.9,7.04,17.04,2.88,15.168,7.04Z" fill="#fff"/>
        <path id="Path_209561-2" data-name="Path 209561" d="M25.656,11.168a1.2,1.2,0,0,1-.344-.9v-8.1H22.72q-1.183,0-1.184-1.025,0-1.007,1.184-1.007H30.4q1.185,0,1.184,1.007,0,1.026-1.184,1.025H27.808v8.1a1.211,1.211,0,0,1-.336.9,1.395,1.395,0,0,1-1.816,0" fill="#fff"/>
        <path id="Path_209562-2" data-name="Path 209562" d="M32.96,11.12a1.168,1.168,0,0,1-.3-.864V1.311a1.164,1.164,0,0,1,.3-.863,1.169,1.169,0,0,1,.864-.305h5.664q1.184,0,1.184.96,0,.978-1.184.977h-4.4V4.72h4.08q1.185,0,1.184.976,0,.96-1.184.96h-4.08V9.488h4.4q1.184,0,1.184.976,0,.958-1.184.96H33.824a1.172,1.172,0,0,1-.864-.3" fill="#fff"/>
      </g>
    </g>
  </g>
</svg>
