<svg width="41" height="41" viewBox="0 0 41 41" fill="none" xmlns="http://www.w3.org/2000/svg">
<rect x="0.185547" y="0.0263672" width="40.7598" height="40.7598" rx="2" fill="#0B96F3"/>
<g clip-path="url(#clip0_46_280)">
<path d="M19.0979 26.3581C18.8459 26.1061 18.4374 26.1061 18.1854 26.3581L16.4951 28.0484C16.2431 28.3 16.2431 28.7089 16.4951 28.9605C16.7453 29.2116 17.1543 29.2138 17.4076 28.9605L19.0979 27.2702C19.3499 27.0182 19.3499 26.6097 19.0979 26.3581ZM14.5128 21.7731C14.2612 21.5211 13.8528 21.5211 13.6008 21.7731L11.9105 23.4634C11.6585 23.7154 11.6585 24.1238 11.9105 24.3759C12.1621 24.6274 12.5699 24.6285 12.8225 24.3759L14.5128 22.6856C14.7649 22.4336 14.7649 22.0251 14.5128 21.7731ZM17.5697 23.3013C17.3176 23.0493 16.9092 23.0497 16.6572 23.3013L12.3734 27.5851C12.1213 27.8371 12.1213 28.2456 12.3734 28.4976C12.6253 28.7488 13.0329 28.7497 13.2858 28.4976L17.5697 24.2138C17.8217 23.9618 17.8217 23.5533 17.5697 23.3013ZM30.763 10.9217L24.6494 29.6311C24.4766 30.1592 23.7589 30.2362 23.4784 29.7549L19.3672 22.6844C19.2374 22.4614 19.2531 22.1828 19.4067 21.9755L20.8829 19.9881L18.8954 21.4642C18.6882 21.6179 18.4096 21.6336 18.1866 21.5038L11.1161 17.3925C10.6365 17.1135 10.7102 16.3949 11.2399 16.2215L29.9493 10.1079C30.4494 9.94473 30.9269 10.4195 30.763 10.9217Z" fill="white"/>
</g>
<defs>
<clipPath id="clip0_46_280">
<rect width="20" height="20" fill="white" transform="translate(10.5654 10.4062)"/>
</clipPath>
</defs>
</svg>
