<svg width="2262" height="547" viewBox="0 0 2262 547" fill="none" xmlns="http://www.w3.org/2000/svg">
<path d="M0 157.767C9.57315 158.251 17.571 158.734 25.69 159.097C102.154 162.481 178.739 165.865 255.203 169.008C258.233 169.128 261.747 168.162 264.292 166.469C334.575 119.936 404.859 73.2818 475.022 26.6275C476.355 25.6606 477.688 24.6937 480.112 22.8807C467.994 21.7929 457.33 20.9468 446.666 19.9799C369.839 13.3323 293.011 6.56378 216.184 0.0370202C213.76 -0.204712 210.73 0.762201 208.67 2.21259C157.775 39.9228 107.001 77.8747 56.2271 115.706C40.1103 127.671 23.9935 139.637 7.87664 151.603C5.69542 153.295 3.51419 154.987 0 157.767Z" fill="white"/>
<path d="M125.18 232.582C126.028 235.845 127.24 237.175 130.875 236.087C166.138 226.78 201.886 226.78 237.634 232.461C250.842 234.516 263.808 237.779 276.775 240.922C280.531 241.889 282.955 241.526 285.863 238.504C314.219 209.013 346.21 184.598 383.533 167.435C391.531 163.688 399.893 160.909 408.254 157.766C410.556 156.92 412.253 156.195 411.405 153.052C405.467 132.626 399.771 112.079 393.955 91.6523C393.834 91.1688 393.349 90.9271 392.743 90.0811C390.562 91.5314 388.381 92.861 386.32 94.3114C347.543 120.66 308.766 147.009 269.989 173.599C266.111 176.258 262.475 177.105 257.871 176.863C209.641 174.445 161.291 172.27 112.94 169.973C111.607 169.853 110.153 169.973 108.093 169.853C108.578 172.028 108.82 173.841 109.305 175.533C114.516 194.63 119.969 213.606 125.18 232.582Z" fill="white"/>
<path d="M126.994 396.719C128.327 401.433 130.023 402.883 134.87 401.191C141.656 398.773 148.806 397.202 156.319 395.027C155.834 392.73 155.592 390.917 155.107 389.225C146.746 359.371 138.384 329.638 129.66 299.905C128.448 295.796 124.934 292.291 122.025 287.698C125.782 277.545 124.328 273.798 113.543 266.546C112.21 265.7 111.361 263.524 110.877 261.832C102.758 233.429 94.76 204.904 86.7621 176.501C83.8538 166.106 85.9139 168.282 75.4925 167.678C74.523 167.678 73.4324 167.678 71.6147 167.799C72.0995 169.974 72.463 171.908 72.9477 173.842C81.4303 203.937 89.9128 234.154 98.5165 264.25C99.4859 267.634 99.4859 270.172 97.4259 273.435C92.6999 280.567 95.1235 287.818 104.333 294.466C100.698 299.301 101.061 304.135 102.637 309.454C110.756 338.34 118.996 367.469 126.994 396.719Z" fill="white"/>
<path d="M278.227 322.145V372.666L324.032 322.145H278.227Z" fill="white"/>
<path d="M230.484 322.144H324.034L351.784 291.686H303.07V241.164L230.484 322.144Z" fill="white"/>
<path d="M303.925 290.115V239.593L258.119 290.115H303.925Z" fill="white"/>
<path d="M303.918 291.686L278.228 322.144H230.484L303.07 241.164V291.686H303.918Z" fill="white"/>
<path d="M278.229 376.534C277.745 376.534 277.26 376.413 276.775 376.292C275.2 375.688 274.23 374.238 274.23 372.546V326.012H230.485C228.909 326.012 227.455 325.045 226.849 323.716C226.243 322.265 226.486 320.573 227.455 319.485L300.042 238.505C301.132 237.296 302.829 236.813 304.404 237.417C305.979 238.022 306.949 239.472 306.949 241.164V287.698H351.785C353.36 287.698 354.815 288.665 355.42 289.994C356.026 291.444 355.784 293.137 354.693 294.224L281.138 375.205C280.411 376.051 279.32 376.534 278.229 376.534ZM239.331 318.156H278.229C280.411 318.156 282.228 319.969 282.228 322.144V362.393L342.818 295.675H303.071C300.89 295.675 299.072 293.862 299.072 291.686V251.559L239.331 318.156Z" fill="white"/>
<path d="M243.331 407.598C246.361 414.367 249.027 421.256 240.423 425.487C232.789 429.354 227.699 424.52 224.791 418.114C214.733 397.083 198.495 380.766 183.954 363.12C154.507 327.102 143.116 285.524 149.781 245.396C157.294 243.946 164.929 242.979 172.805 242.375C165.05 281.414 176.198 324.201 206.372 355.989C221.034 371.459 234.485 387.897 243.331 407.598Z" fill="white"/>
<path d="M389.47 373.996C377.595 387.17 366.689 400.707 358.933 416.782C355.661 423.43 351.299 429.352 342.695 425.243C333.97 421.133 336.273 413.881 339.302 407.354C348.269 388.258 360.993 371.699 375.413 356.591C423.4 306.19 426.187 240.559 382.199 186.774C381.351 185.807 380.503 184.84 379.655 183.873C382.684 182.302 385.714 180.852 388.864 179.401C392.621 177.709 396.499 176.138 400.376 174.688C421.825 199.102 433.337 229.319 434.185 265.579C435.034 308.244 416.978 343.296 389.47 373.996Z" fill="white"/>
<path d="M353.484 446.275C353.727 455.702 345.971 456.669 338.7 456.669C307.679 456.79 276.657 456.79 245.635 456.669C237.758 456.669 229.882 455.219 230.124 445.308C230.245 435.397 238.243 434.309 245.998 434.309C261.146 434.309 276.293 434.309 291.441 434.309C306.951 434.309 322.584 434.309 338.094 434.309C346.092 434.43 353.242 436.968 353.484 446.275Z" fill="white"/>
<path d="M352.632 476.854C352.511 485.919 345.967 488.216 338.212 488.337C322.701 488.457 307.19 488.337 291.679 488.337C276.168 488.337 260.657 488.578 245.146 488.216C237.269 488.095 229.756 486.161 229.877 476.25C229.999 466.581 237.875 466.097 245.025 465.976C276.047 465.856 307.068 465.856 338.212 465.976C345.361 466.097 352.753 467.185 352.632 476.854Z" fill="white"/>
<path d="M352.632 508.157C352.389 518.068 344.634 517.947 337.484 518.068C321.973 518.189 306.463 518.068 290.83 518.068C275.683 518.068 260.536 518.189 245.509 518.068C237.875 517.947 229.756 517.705 229.877 507.19C229.998 498.004 237.269 496.07 244.54 496.07C275.562 495.829 306.584 495.829 337.727 496.07C345.603 496.07 352.874 498.246 352.632 508.157Z" fill="white"/>
<path d="M318.337 536.319C306.34 550.581 275.924 550.581 264.049 536.198C262.837 534.748 261.383 532.693 261.504 531.001C261.747 527.979 264.897 527.737 267.321 527.737C275.561 527.616 283.68 527.737 291.92 527.737C299.676 527.737 307.431 527.616 315.186 527.858C317.004 527.858 319.428 528.825 320.518 530.155C322.336 532.451 319.912 534.506 318.337 536.319Z" fill="white"/>
<path d="M606.126 339.55C612.548 367.953 633.027 380.523 665.988 380.523C698.828 380.523 712.763 367.591 712.763 346.922C712.763 323.837 699.07 313.805 650.477 302.565C573.165 284.435 554.019 256.394 554.019 218.2C554.019 168.766 591.1 135.286 658.354 135.286C733.727 135.286 763.78 175.776 767.9 217.233H705.977C703.069 199.829 693.375 180.853 656.779 180.853C631.816 180.853 616.789 191.126 616.789 211.19C616.789 230.891 628.907 238.868 674.713 249.505C757.357 268.964 775.413 299.543 775.413 339.55C775.413 391.28 736.151 426.815 661.02 426.815C588.918 426.815 550.989 391.401 544.082 339.791H606.126V339.55Z" fill="white"/>
<path d="M876.237 299.664C891.869 278.391 920.225 245.395 949.672 209.86H1017.41L943.128 290.236L1024.44 422.584H957.548L903.624 327.946L876.358 354.295V422.584H817.344V122.716H876.358V299.664H876.237Z" fill="white"/>
<path d="M1047.1 209.98V422.705H1106.12V209.98H1047.1Z" fill="white"/>
<path d="M1159.19 422.705V122.716H1218.2V422.705H1159.19Z" fill="white"/>
<path d="M1271.28 422.705V122.716H1330.29V422.705H1271.28Z" fill="white"/>
<path d="M1389.8 139.275H1588.04V189.435H1449.78V258.812H1579.32V308.971H1449.78V422.464H1389.8V139.275Z" fill="white"/>
<path d="M1671.78 328.913C1671.78 355.504 1685.23 381.49 1714.55 381.49C1739.15 381.49 1746.18 371.7 1751.76 358.767H1810.89C1803.38 384.753 1779.99 427.54 1712.98 427.54C1642.69 427.54 1612.28 375.205 1612.28 319.365C1612.28 252.647 1646.57 205.025 1715.16 205.025C1788.35 205.025 1813.31 257.844 1813.31 311.025C1813.31 318.277 1813.32 322.87 1812.59 328.913H1671.78ZM1754.18 292.774C1753.82 267.997 1743.88 247.208 1715.04 247.208C1686.8 247.208 1675.41 266.667 1672.99 292.774H1754.18Z" fill="white"/>
<path d="M1853.55 422.705V122.716H1912.56V422.705H1853.55Z" fill="white"/>
<path d="M1965.51 209.98V422.705H2024.53V209.98H1965.51Z" fill="white"/>
<path d="M2120.27 209.98C2142.44 249.987 2151.53 265.821 2157.95 276.699H2158.32C2165.71 263.766 2178.67 240.318 2196 209.98H2261.56L2192.37 311.266L2261.32 422.705H2194.55C2175.4 386.687 2163.4 363.359 2157.1 351.152H2156.74C2151.04 362.392 2136.5 389.95 2119.05 422.705H2054.59L2120.63 319.002L2054.95 209.98H2120.27Z" fill="white"/>
<path d="M1104.91 122.112L1046.86 175.172V122.112H1104.91Z" fill="white"/>
<path d="M1106.24 122.112V175.172H1046.86L1104.91 122.112H1106.24Z" fill="white"/>
<path d="M2023.57 122.112L1965.65 175.172V122.112H2023.57Z" fill="white"/>
<path d="M2024.91 122.112V175.172H1965.65L2023.57 122.112H2024.91Z" fill="white"/>
</svg>
