<svg xmlns="http://www.w3.org/2000/svg" xmlns:xlink="http://www.w3.org/1999/xlink" width="78.001" height="78" viewBox="0 0 78.001 78">
  <defs>
    <filter id="Ellipse_1469" x="0" y="0" width="78.001" height="78" filterUnits="userSpaceOnUse">
      <feOffset input="SourceAlpha"/>
      <feGaussianBlur stdDeviation="3" result="blur"/>
      <feFlood flood-opacity="0.161"/>
      <feComposite operator="in" in2="blur"/>
      <feComposite in="SourceGraphic"/>
    </filter>
    <filter id="Ellipse_1469-2" x="0" y="0" width="78.001" height="78" filterUnits="userSpaceOnUse">
      <feOffset dy="3" input="SourceAlpha"/>
      <feGaussianBlur stdDeviation="3" result="blur-2"/>
      <feFlood flood-opacity="0.161" result="color"/>
      <feComposite operator="out" in="SourceGraphic" in2="blur-2"/>
      <feComposite operator="in" in="color"/>
      <feComposite operator="in" in2="SourceGraphic"/>
    </filter>
  </defs>
  <g id="Group_99320" data-name="Group 99320" transform="translate(232 -1064)">
    <g id="Group_99135" data-name="Group 99135" transform="translate(9706.286 -4236.535)">
      <g id="Group_99088" data-name="Group 99088" transform="translate(-9929.286 5309.535)">
        <g data-type="innerShadowGroup">
          <g transform="matrix(1, 0, 0, 1, -9, -9)" filter="url(#Ellipse_1469)">
            <ellipse id="Ellipse_1469-3" data-name="Ellipse 1469" cx="30" cy="30" rx="30" ry="30" transform="translate(9 9)" fill="#6674fc"/>
          </g>
          <g transform="matrix(1, 0, 0, 1, -9, -9)" filter="url(#Ellipse_1469-2)">
            <ellipse id="Ellipse_1469-4" data-name="Ellipse 1469" cx="30" cy="30" rx="30" ry="30" transform="translate(9 9)" fill="#fff"/>
          </g>
        </g>
      </g>
    </g>
    <path id="noun-partner-3659412" d="M113.242,46.727a1.711,1.711,0,0,0-1.09.4l-2.245,1.858a1.7,1.7,0,0,0-.228,2.413l9.276,11.215.542.655a1.7,1.7,0,0,0,2.412.228l2.245-1.858a1.7,1.7,0,0,0,.228-2.412l-9.818-11.871a1.7,1.7,0,0,0-1.322-.627Zm-18.45.967a1.713,1.713,0,0,0-1.09.4L81.835,57.914a1.7,1.7,0,0,0-.228,2.413l1.858,2.246a1.7,1.7,0,0,0,2.412.228l11.867-9.821a1.7,1.7,0,0,0,.228-2.413l-1.858-2.246a1.7,1.7,0,0,0-1.322-.627Zm13.918,5.348a9.291,9.291,0,0,0-5.976,2.144l-.02.017-.009.009-6.367,5.27a4.486,4.486,0,0,0,6.025.2h0l2.2-1.8a.47.47,0,0,1,.7,0l.016.017h0l9.206,11.01.247-.2a9.307,9.307,0,0,0,3.368-6.634l-8.227-9.947a9.384,9.384,0,0,0-1.166-.076ZM97.254,54.611l-9.7,8.028a9.414,9.414,0,0,0,1.494,5.8A2.545,2.545,0,0,1,92.92,71.23a2.535,2.535,0,0,1,2.653,3.208,2.54,2.54,0,0,1,2.448,3.734,2.549,2.549,0,0,1,2.537,4.259l1.366,1.651A1.92,1.92,0,0,0,104.8,81.7h0l-5.6-6.766h0l-.021-.026a.473.473,0,0,1,.749-.577l5.6,6.765a1.92,1.92,0,0,0,2.88-2.383h0l-5.6-6.766-.021-.026a.473.473,0,0,1,.749-.576l5.6,6.765a1.92,1.92,0,0,0,2.881-2.382v0l-5.6-6.766-.021-.026a.473.473,0,0,1,.749-.577l5.6,6.765a1.921,1.921,0,0,0,2.882-2.381L104.857,59.858l-1.892,1.554a5.458,5.458,0,0,1-7.694-.663h0a.472.472,0,0,1,.063-.665l5.349-4.427c-.081-.044-.162-.088-.244-.13a8.862,8.862,0,0,0-3.185-.916Zm-6.8,14.339a1.646,1.646,0,0,0-1.037.385l-1.8,1.492a1.609,1.609,0,1,0,2.051,2.48l1.8-1.492a1.608,1.608,0,0,0,.233-2.281,1.591,1.591,0,0,0-1.246-.583Zm2.653,3.208a1.648,1.648,0,0,0-1.037.385l-1.8,1.492a1.609,1.609,0,1,0,2.051,2.48l1.8-1.492a1.608,1.608,0,0,0,.233-2.281A1.59,1.59,0,0,0,93.111,72.159Zm2.653,3.208a1.647,1.647,0,0,0-1.037.385l-1.8,1.492a1.609,1.609,0,1,0,2.051,2.48l1.8-1.491a1.608,1.608,0,0,0,.233-2.281,1.591,1.591,0,0,0-1.246-.584Zm3,3.63a1.648,1.648,0,0,0-1.037.385l-1.8,1.492a1.609,1.609,0,1,0,2.051,2.48l1.8-1.492a1.608,1.608,0,0,0,.233-2.281A1.591,1.591,0,0,0,98.766,79Z" transform="translate(-296.208 1037.273)" fill="#fff"/>
  </g>
</svg>
