<svg xmlns="http://www.w3.org/2000/svg" xmlns:xlink="http://www.w3.org/1999/xlink" width="78.001" height="78" viewBox="0 0 78.001 78">
  <defs>
    <filter id="Ellipse_1469" x="0" y="0" width="78.001" height="78" filterUnits="userSpaceOnUse">
      <feOffset input="SourceAlpha"/>
      <feGaussianBlur stdDeviation="3" result="blur"/>
      <feFlood flood-opacity="0.161"/>
      <feComposite operator="in" in2="blur"/>
      <feComposite in="SourceGraphic"/>
    </filter>
    <filter id="Ellipse_1469-2" x="0" y="0" width="78.001" height="78" filterUnits="userSpaceOnUse">
      <feOffset dy="3" input="SourceAlpha"/>
      <feGaussianBlur stdDeviation="3" result="blur-2"/>
      <feFlood flood-opacity="0.161" result="color"/>
      <feComposite operator="out" in="SourceGraphic" in2="blur-2"/>
      <feComposite operator="in" in="color"/>
      <feComposite operator="in" in2="SourceGraphic"/>
    </filter>
  </defs>
  <g id="Group_99318" data-name="Group 99318" transform="translate(-60 -846)">
    <g id="Group_99314" data-name="Group 99314" transform="translate(9998.286 -4454.535)">
      <g id="Group_99088" data-name="Group 99088" transform="translate(-9929.286 5309.535)">
        <g data-type="innerShadowGroup">
          <g transform="matrix(1, 0, 0, 1, -9, -9)" filter="url(#Ellipse_1469)">
            <ellipse id="Ellipse_1469-3" data-name="Ellipse 1469" cx="30" cy="30" rx="30" ry="30" transform="translate(9 9)" fill="#006775"/>
          </g>
          <g transform="matrix(1, 0, 0, 1, -9, -9)" filter="url(#Ellipse_1469-2)">
            <ellipse id="Ellipse_1469-4" data-name="Ellipse 1469" cx="30" cy="30" rx="30" ry="30" transform="translate(9 9)" fill="#fff"/>
          </g>
        </g>
      </g>
    </g>
    <g id="noun-building-2009219" transform="translate(-113 866)">
      <path id="Path_205536" data-name="Path 205536" d="M223.273,150H201.552A1.556,1.556,0,0,0,200,151.552v17.067h24.825V151.552A1.556,1.556,0,0,0,223.273,150Zm-15.515,11.637a.778.778,0,0,1-.776.776h-3.1a.778.778,0,0,1-.776-.776V155.43a.778.778,0,0,1,.776-.776h3.1a.778.778,0,0,1,.776.776Zm6.982,0a.778.778,0,0,1-.776.776h-3.1a.778.778,0,0,1-.776-.776V155.43a.778.778,0,0,1,.776-.776h3.1a.778.778,0,0,1,.776.776Zm6.982,0a.778.778,0,0,1-.776.776h-3.1a.778.778,0,0,1-.776-.776V155.43a.778.778,0,0,1,.776-.776h3.1a.778.778,0,0,1,.776.776Z" transform="translate(0 -145.345)" fill="#fff"/>
      <path id="Path_205537" data-name="Path 205537" d="M301.55,3.1h15.515a1.552,1.552,0,0,0,0-3.1H301.55a1.552,1.552,0,0,0,0,3.1Z" transform="translate(-96.896)" fill="#fff"/>
      <path id="Path_205538" data-name="Path 205538" d="M200,812.412h9.309v-7.758a1.556,1.556,0,0,1,1.552-1.552h3.1a1.556,1.556,0,0,1,1.552,1.552v7.758h9.309V800H200Z" transform="translate(0 -775.175)" fill="#fff"/>
    </g>
  </g>
</svg>
