<svg xmlns="http://www.w3.org/2000/svg" xmlns:xlink="http://www.w3.org/1999/xlink" width="78.001" height="78" viewBox="0 0 78.001 78">
  <defs>
    <filter id="Ellipse_1469" x="0" y="0" width="78.001" height="78" filterUnits="userSpaceOnUse">
      <feOffset input="SourceAlpha"/>
      <feGaussianBlur stdDeviation="3" result="blur"/>
      <feFlood flood-opacity="0.161"/>
      <feComposite operator="in" in2="blur"/>
      <feComposite in="SourceGraphic"/>
    </filter>
    <filter id="Ellipse_1469-2" x="0" y="0" width="78.001" height="78" filterUnits="userSpaceOnUse">
      <feOffset dy="3" input="SourceAlpha"/>
      <feGaussianBlur stdDeviation="3" result="blur-2"/>
      <feFlood flood-opacity="0.161" result="color"/>
      <feComposite operator="out" in="SourceGraphic" in2="blur-2"/>
      <feComposite operator="in" in="color"/>
      <feComposite operator="in" in2="SourceGraphic"/>
    </filter>
  </defs>
  <g id="Group_99502" data-name="Group 99502" transform="translate(-283 -849)">
    <g id="Group_99315" data-name="Group 99315" transform="translate(10221.286 -4451.535)">
      <g id="Group_99088" data-name="Group 99088" transform="translate(-9929.286 5309.535)">
        <g data-type="innerShadowGroup">
          <g transform="matrix(1, 0, 0, 1, -9, -9)" filter="url(#Ellipse_1469)">
            <ellipse id="Ellipse_1469-3" data-name="Ellipse 1469" cx="30" cy="30" rx="30" ry="30" transform="translate(9 9)" fill="#010c6b"/>
          </g>
          <g transform="matrix(1, 0, 0, 1, -9, -9)" filter="url(#Ellipse_1469-2)">
            <ellipse id="Ellipse_1469-4" data-name="Ellipse 1469" cx="30" cy="30" rx="30" ry="30" transform="translate(9 9)" fill="#fff"/>
          </g>
        </g>
      </g>
    </g>
    <g id="Group_99319" data-name="Group 99319" transform="translate(129.337 99.285)">
      <path id="Path_205539" data-name="Path 205539" d="M100.406,12.25A18.156,18.156,0,1,1,82.25,30.406,18.156,18.156,0,0,1,100.406,12.25Zm-.87,9.652a.831.831,0,0,1,1.661,0v8.268l6.25,3.837a.834.834,0,1,1-.87,1.424l-6.606-4.074a.868.868,0,0,1-.435-.712ZM85.731,32.463c0-.079-.039-.158-.039-.237-.039-.554-.079-1.068-.079-1.622a14.854,14.854,0,0,1,29.707,0,14.567,14.567,0,0,1-1.582,6.646,15.271,15.271,0,0,1-4.391,5.261.819.819,0,0,1-.989-1.305,13.594,13.594,0,0,0,3.916-4.668,13.33,13.33,0,0,0,1.385-5.894,13.212,13.212,0,0,0-26.424,0c0,.475.039.91.079,1.345l.514-.91a.873.873,0,0,1,1.147-.317.884.884,0,0,1,.317,1.147L87.748,34.56a.846.846,0,0,1-1.147.317l-2.729-1.582a.873.873,0,0,1-.317-1.147A.884.884,0,0,1,84.7,31.83Zm19.66,10.4a.826.826,0,1,1,.593,1.543,16.821,16.821,0,0,1-1.859.593,15.286,15.286,0,0,1-1.938.356.817.817,0,1,1-.2-1.622c.593-.079,1.147-.2,1.7-.317a17.1,17.1,0,0,0,1.7-.554Zm-6.8.791a.839.839,0,1,1-.237,1.661,14.71,14.71,0,0,1-1.9-.4c-.633-.2-1.226-.4-1.82-.633a.794.794,0,0,1-.435-1.068.825.825,0,0,1,1.107-.435,11.2,11.2,0,0,0,1.622.554,12.343,12.343,0,0,0,1.661.316Zm-6.25-2.65a.782.782,0,0,1,.119,1.147.82.82,0,0,1-1.147.158,11.155,11.155,0,0,1-1.424-1.305c-.435-.475-.87-.949-1.266-1.464a.819.819,0,1,1,1.305-.989,12.021,12.021,0,0,0,1.107,1.305C91.467,40.256,91.862,40.652,92.337,41.008Z" transform="translate(92.413 758.465)" fill="#fff" fill-rule="evenodd"/>
    </g>
  </g>
</svg>
