<svg xmlns="http://www.w3.org/2000/svg" xmlns:xlink="http://www.w3.org/1999/xlink" width="78" height="78" viewBox="0 0 78 78">
  <defs>
    <filter id="Ellipse_1469" x="0" y="0" width="78" height="78" filterUnits="userSpaceOnUse">
      <feOffset input="SourceAlpha"/>
      <feGaussianBlur stdDeviation="3" result="blur"/>
      <feFlood flood-opacity="0.161"/>
      <feComposite operator="in" in2="blur"/>
      <feComposite in="SourceGraphic"/>
    </filter>
    <filter id="Ellipse_1469-2" x="0" y="0" width="78" height="78" filterUnits="userSpaceOnUse">
      <feOffset dy="3" input="SourceAlpha"/>
      <feGaussianBlur stdDeviation="3" result="blur-2"/>
      <feFlood flood-opacity="0.161" result="color"/>
      <feComposite operator="out" in="SourceGraphic" in2="blur-2"/>
      <feComposite operator="in" in="color"/>
      <feComposite operator="in" in2="SourceGraphic"/>
    </filter>
  </defs>
  <g id="Group_103574" data-name="Group 103574" transform="translate(-12349 19963)">
    <rect id="Rectangle_125425" data-name="Rectangle 125425" width="60" height="60" transform="translate(12358 -19954)" fill="#fff" opacity="0"/>
    <g id="Group_103536" data-name="Group 103536" transform="translate(-6715 3134)">
      <g id="Group_97602" data-name="Group 97602" transform="translate(19073 -23088)">
        <g data-type="innerShadowGroup">
          <g transform="matrix(1, 0, 0, 1, -9, -9)" filter="url(#Ellipse_1469)">
            <ellipse id="Ellipse_1469-3" data-name="Ellipse 1469" cx="30" cy="30" rx="30" ry="30" transform="translate(9 9)" fill="#6674fc"/>
          </g>
          <g transform="matrix(1, 0, 0, 1, -9, -9)" filter="url(#Ellipse_1469-2)">
            <ellipse id="Ellipse_1469-4" data-name="Ellipse 1469" cx="30" cy="30" rx="30" ry="30" transform="translate(9 9)" fill="#fff"/>
          </g>
        </g>
      </g>
      <g id="Group_101377" data-name="Group 101377" transform="translate(19079.789 -23081.211)">
        <g id="Group_101376" data-name="Group 101376">
          <g id="_9ac3db9f90eb10a004df7b9986707617" data-name="9ac3db9f90eb10a004df7b9986707617">
            <rect id="Rectangle_123232" data-name="Rectangle 123232" width="46.423" height="46.423" fill="none"/>
            <line id="Line_4333" data-name="Line 4333" x2="7.184" transform="translate(14.367 22.988)" fill="none" stroke="#fff" stroke-linecap="round" stroke-linejoin="round" stroke-width="2"/>
            <path id="Path_185873" data-name="Path 185873" d="M311.871,202.927H309a4.31,4.31,0,0,1-4.31-4.31V187.123a4.31,4.31,0,0,1,4.31-4.31h2.873" transform="translate(-283.137 -169.882)" fill="none" stroke="#fff" stroke-linecap="round" stroke-linejoin="round" stroke-width="2"/>
          </g>
        </g>
        <circle id="Ellipse_1828" data-name="Ellipse 1828" cx="6.499" cy="6.499" r="6.499" transform="translate(27.854 6.499)" fill="#fff"/>
        <circle id="Ellipse_1829" data-name="Ellipse 1829" cx="6.499" cy="6.499" r="6.499" transform="translate(27.854 26.925)" fill="#fff"/>
        <path id="book" d="M2.913,14.3a1.123,1.123,0,0,0-.829.327,1.242,1.242,0,0,0-.352.854,1.053,1.053,0,0,0,.352.8,1.285,1.285,0,0,0,.829.352H13.385a.6.6,0,0,1,.4.151.529.529,0,0,1,.176.427v.3a1.458,1.458,0,0,1-1.456,1.456H1.733A1.634,1.634,0,0,1,.5,18.444a1.728,1.728,0,0,1-.5-1.23V2.1A1.759,1.759,0,0,1,.5.84a1.552,1.552,0,0,1,1.23-.5H13.084a.908.908,0,0,1,.628.251.742.742,0,0,1,.251.628V13.724a.5.5,0,0,1-.176.4.726.726,0,0,1-.4.176H2.913Zm1.155-7.86a.266.266,0,0,0,.3.3H9.593a.266.266,0,0,0,.3-.3V4.708a.367.367,0,0,0-.075-.226.216.216,0,0,0-.226-.075H4.369a.272.272,0,0,0-.2.075.4.4,0,0,0-.1.226Z" transform="translate(2.257 13.558)" fill="#fff"/>
      </g>
    </g>
  </g>
</svg>
