<svg xmlns="http://www.w3.org/2000/svg" xmlns:xlink="http://www.w3.org/1999/xlink" width="78.001" height="78" viewBox="0 0 78.001 78">
  <defs>
    <filter id="Ellipse_1469" x="0" y="0" width="78.001" height="78" filterUnits="userSpaceOnUse">
      <feOffset input="SourceAlpha"/>
      <feGaussianBlur stdDeviation="3" result="blur"/>
      <feFlood flood-opacity="0.161"/>
      <feComposite operator="in" in2="blur"/>
      <feComposite in="SourceGraphic"/>
    </filter>
    <filter id="Ellipse_1469-2" x="0" y="0" width="78.001" height="78" filterUnits="userSpaceOnUse">
      <feOffset dy="3" input="SourceAlpha"/>
      <feGaussianBlur stdDeviation="3" result="blur-2"/>
      <feFlood flood-opacity="0.161" result="color"/>
      <feComposite operator="out" in="SourceGraphic" in2="blur-2"/>
      <feComposite operator="in" in="color"/>
      <feComposite operator="in" in2="SourceGraphic"/>
    </filter>
  </defs>
  <g id="Group_99371" data-name="Group 99371" transform="translate(86 -1196)">
    <g id="Group_99313" data-name="Group 99313" transform="translate(9852.286 -4104.535)">
      <g id="Group_99088" data-name="Group 99088" transform="translate(-9929.286 5309.535)">
        <g data-type="innerShadowGroup">
          <g transform="matrix(1, 0, 0, 1, -9, -9)" filter="url(#Ellipse_1469)">
            <ellipse id="Ellipse_1469-3" data-name="Ellipse 1469" cx="30" cy="30" rx="30" ry="30" transform="translate(9 9)" fill="#010c6b"/>
          </g>
          <g transform="matrix(1, 0, 0, 1, -9, -9)" filter="url(#Ellipse_1469-2)">
            <ellipse id="Ellipse_1469-4" data-name="Ellipse 1469" cx="30" cy="30" rx="30" ry="30" transform="translate(9 9)" fill="#fff"/>
          </g>
        </g>
      </g>
    </g>
    <g id="noun-online-courses-4780659" transform="translate(-181.251 1115.977)">
      <path id="Path_205598" data-name="Path 205598" d="M150.19,142.476v19.993H139.324a4.778,4.778,0,0,0-3.26,1.074,4.689,4.689,0,0,1-1.842.765,4.7,4.7,0,0,1-1.841-.765,4.776,4.776,0,0,0-3.262-1.074H118.312V142.476a3.351,3.351,0,0,0-1.655,2.884v17.248a3.364,3.364,0,0,0,3.365,3.363H148.48a3.364,3.364,0,0,0,3.365-3.363v-17.25a3.353,3.353,0,0,0-1.655-2.883Z" transform="translate(0 -33.822)" fill="#fff"/>
      <path id="Path_205599" data-name="Path 205599" d="M172.9,128.673a6.165,6.165,0,0,1,4.312-1.511h10.13V105.9h-9.916c-3.665,0-4.526,4.035-4.526,4.035s-.86-4.036-4.527-4.036h-9.915v21.266h10.13a6.167,6.167,0,0,1,4.312,1.511Zm-3.449-11.761v-4.446c0-.866.613-1.219,1.363-.786l1.123.646,2.727,1.574,1.123.649a.832.832,0,0,1,0,1.574l-1.123.646-2.727,1.575-1.123.648c-.75.433-1.363.079-1.363-.789Zm-2.551,5.25h6.141a1.592,1.592,0,0,1,2.908,0h2.95v1.3h-2.95a1.592,1.592,0,0,1-2.908,0H166.9Z" transform="translate(-38.652)" fill="#fff"/>
    </g>
  </g>
</svg>
