<svg xmlns="http://www.w3.org/2000/svg" xmlns:xlink="http://www.w3.org/1999/xlink" width="78.001" height="78" viewBox="0 0 78.001 78">
  <defs>
    <filter id="Ellipse_1469" x="0" y="0" width="78.001" height="78" filterUnits="userSpaceOnUse">
      <feOffset input="SourceAlpha"/>
      <feGaussianBlur stdDeviation="3" result="blur"/>
      <feFlood flood-opacity="0.161"/>
      <feComposite operator="in" in2="blur"/>
      <feComposite in="SourceGraphic"/>
    </filter>
    <filter id="Ellipse_1469-2" x="0" y="0" width="78.001" height="78" filterUnits="userSpaceOnUse">
      <feOffset dy="3" input="SourceAlpha"/>
      <feGaussianBlur stdDeviation="3" result="blur-2"/>
      <feFlood flood-opacity="0.161" result="color"/>
      <feComposite operator="out" in="SourceGraphic" in2="blur-2"/>
      <feComposite operator="in" in="color"/>
      <feComposite operator="in" in2="SourceGraphic"/>
    </filter>
  </defs>
  <g id="Group_99366" data-name="Group 99366" transform="translate(-206 -1064)">
    <g id="Group_99088" data-name="Group 99088" transform="translate(215 1073)">
      <g data-type="innerShadowGroup">
        <g transform="matrix(1, 0, 0, 1, -9, -9)" filter="url(#Ellipse_1469)">
          <ellipse id="Ellipse_1469-3" data-name="Ellipse 1469" cx="30" cy="30" rx="30" ry="30" transform="translate(9 9)" fill="#010c6b"/>
        </g>
        <g transform="matrix(1, 0, 0, 1, -9, -9)" filter="url(#Ellipse_1469-2)">
          <ellipse id="Ellipse_1469-4" data-name="Ellipse 1469" cx="30" cy="30" rx="30" ry="30" transform="translate(9 9)" fill="#fff"/>
        </g>
      </g>
    </g>
    <g id="Group_99365" data-name="Group 99365" transform="translate(51.701 -0.075)">
      <path id="Path_205588" data-name="Path 205588" d="M122.521,429.571a.84.84,0,0,0,.177,1.152l6.423,4.74a.84.84,0,0,0,1.152-.177l2.525-3.411-7.752-5.714Z" transform="translate(50.83 688.488)" fill="#fff"/>
      <path id="Path_205589" data-name="Path 205589" d="M205.007,319.161a1.937,1.937,0,0,0-1.993-.487l-5.847,1.9v.443a3.634,3.634,0,0,1-2.835,3.411l-.354.089a39.837,39.837,0,0,1-6.467.886l-1.772.089a.976.976,0,1,1-.088-1.949l1.772-.089a36.113,36.113,0,0,0,6.157-.842l.354-.089a1.6,1.6,0,0,0,1.284-1.551,1.672,1.672,0,0,0-.443-1.2,1.861,1.861,0,0,0-1.152-.531l-9.347-.222a4.7,4.7,0,0,0-2.924.93l-7.752,5.67,8.151,5.98,7.885.664a5.356,5.356,0,0,0,3.809-1.152L204.83,322a1.91,1.91,0,0,0,.709-1.373,1.832,1.832,0,0,0-.531-1.462Z" transform="translate(3.649 787.558)" fill="#fff"/>
      <path id="Path_205590" data-name="Path 205590" d="M295.119,172.48v6.556a2.1,2.1,0,0,0,2.126,2.126h16.345a2.1,2.1,0,0,0,2.126-2.126V172.48a64.279,64.279,0,0,1-7,.664v.133a2.373,2.373,0,0,1-2.348,2.392h-1.816a2.345,2.345,0,0,1-2.348-2.392v-.133a63.824,63.824,0,0,1-7.087-.664Z" transform="translate(-108.257 922.102)" fill="#fff"/>
      <path id="Path_205591" data-name="Path 205591" d="M276.006,24.632a54.96,54.96,0,0,0,8.106.886,2.335,2.335,0,0,1,2.348-2.348h1.816a2.363,2.363,0,0,1,2.348,2.348,54.979,54.979,0,0,0,8.062-.886.625.625,0,0,0,.487-.62V20.734a2.127,2.127,0,0,0-2.126-2.126h-4.7v-1.55A3.063,3.063,0,0,0,289.294,14h-3.9a3.063,3.063,0,0,0-3.057,3.057v1.551h-4.7a2.1,2.1,0,0,0-2.126,2.126v3.278a.625.625,0,0,0,.487.62Zm8.771-7.575a.644.644,0,0,1,.664-.62h3.9a.634.634,0,0,1,.62.62v1.551h-5.183Z" transform="translate(-90.207 1068.045)" fill="#fff"/>
      <path id="Path_205592" data-name="Path 205592" d="M407.922,154.39a.7.7,0,0,0,.709-.709v-1.772a.7.7,0,0,0-.709-.709H406.15a.7.7,0,0,0-.709.709v1.772a.7.7,0,0,0,.709.709Z" transform="translate(-209.852 941.698)" fill="#fff"/>
    </g>
  </g>
</svg>
