<svg width="37" height="37" viewBox="0 0 37 37" fill="none" xmlns="http://www.w3.org/2000/svg">
<rect x="0.291016" width="36.2749" height="36.2749" rx="5" fill="white"/>
<g clip-path="url(#clip0_46_358)">
<path d="M27.8789 13.3367C27.6484 12.4799 26.9729 11.8045 26.1163 11.5738C24.5512 11.1455 18.2908 11.1455 18.2908 11.1455C18.2908 11.1455 12.0306 11.1455 10.4655 11.5575C9.62539 11.7881 8.93341 12.48 8.70285 13.3367C8.29102 14.9016 8.29102 18.1471 8.29102 18.1471C8.29102 18.1471 8.29102 21.409 8.70285 22.9576C8.93356 23.8142 9.60891 24.4897 10.4657 24.7204C12.0471 25.1487 18.291 25.1487 18.291 25.1487C18.291 25.1487 24.5512 25.1487 26.1163 24.7368C26.973 24.5062 27.6484 23.8307 27.8791 22.9741C28.2909 21.409 28.2909 18.1636 28.2909 18.1636C28.2909 18.1636 28.3074 14.9016 27.8789 13.3367Z" fill="#FF0000"/>
<path d="M16.2979 21.1451L21.5037 18.1468L16.2979 15.1484V21.1451Z" fill="white"/>
</g>
<defs>
<clipPath id="clip0_46_358">
<rect width="20" height="20" fill="white" transform="translate(8.29102 8.1377)"/>
</clipPath>
</defs>
</svg>
