<svg xmlns="http://www.w3.org/2000/svg" width="38" height="38" viewBox="0 0 38 38">
  <g id="Group_109894" data-name="Group 109894" transform="translate(-416 -3657.779)">
    <g id="Group_93562" data-name="Group 93562" transform="translate(416.26 3657.95)">
      <circle id="Ellipse_1469" data-name="Ellipse 1469" cx="19" cy="19" r="19" transform="translate(-0.26 -0.172)" fill="#acd6de"/>
    </g>
    <g id="noun-arrow-63654" transform="translate(288.262 3565.641)">
      <path id="Path_247341" data-name="Path 247341" d="M350.408,106.919l3.753,3.723-3.753,3.722a1.053,1.053,0,0,0,0,1.49,1.072,1.072,0,0,0,1.5,0l4.5-4.467a1.052,1.052,0,0,0,0-1.489l-4.5-4.468a1.072,1.072,0,0,0-1.5,0,1.053,1.053,0,0,0,0,1.49Z" transform="translate(-203.36 -0.004)" fill="#00535e"/>
      <path id="Path_247342" data-name="Path 247342" d="M146.431,111.382a1.052,1.052,0,0,0,0-1.489l-4.5-4.468a1.072,1.072,0,0,0-1.505,0,1.053,1.053,0,0,0,0,1.49l3.753,3.723-3.753,3.722a1.053,1.053,0,0,0,0,1.49,1.072,1.072,0,0,0,1.505,0Z" transform="translate(0)" fill="#00535e"/>
    </g>
  </g>
</svg>
