<svg xmlns="http://www.w3.org/2000/svg" width="59.915" height="53.798" viewBox="0 0 59.915 53.798"><defs><style>.a{fill:#fdfefe;}.b{fill:#5fb858;}.c{fill:#fff;}</style></defs><g transform="translate(0 0)"><path class="a" d="M280.317,392.444V419.08a2.081,2.081,0,0,1-2.081,2.081H261.78a1.1,1.1,0,0,1-1.074-.891,21.273,21.273,0,0,0-20.818-16.877q-.493,0-.981.022a1.093,1.093,0,0,1-1.148-1.09v-9.88a2.088,2.088,0,0,1,2.081-2.081h38.395A2.081,2.081,0,0,1,280.317,392.444Z" transform="translate(-220.402 -390.363)"/><circle class="b" cx="19.487" cy="19.487" r="19.487" transform="translate(0 14.822)"/><g transform="translate(37.742 3.23)"><circle class="b" cx="9.146" cy="9.146" r="9.146"/><path class="c" d="M282.068,408.29v-4.5a.772.772,0,0,1,1.158-.669l3.9,2.251,3.9,2.25a.772.772,0,0,1,0,1.337l-3.9,2.251-3.9,2.25a.772.772,0,0,1-1.158-.669Z" transform="translate(-276.4 -398.807)"/></g><g transform="translate(7.692 22.437)"><path class="c" d="M244.41,445.13H230.04l-1.058,2.064a.523.523,0,0,1-.935-.012l-1-2.052h-3.21a2.516,2.516,0,0,0-2.517,2.516v12.477c0,3.428,2.481,2.881,2.481,2.881v1.358a19.436,19.436,0,0,0,9.313,2.364c.353,0,.7-.012,1.047-.024V450.31H244.41a2.59,2.59,0,1,0,0-5.18Z" transform="translate(-221.32 -435.366)"/><circle class="c" cx="4.116" cy="4.116" r="4.116" transform="translate(3.004)"/></g></g></svg>