<svg xmlns="http://www.w3.org/2000/svg" width="127.423" height="49.434" viewBox="0 0 127.423 49.434">
  <g id="Group_101926" data-name="Group 101926" transform="translate(-3487.688 6273.717)">
    <path id="intel-7" d="M4.7,3.789h9.224v9.224H4.7Zm8.994,48.055V18.593H4.93V51.811h8.764Zm58.033.328v-8.14a20.3,20.3,0,0,1-3.151-.2,3.569,3.569,0,0,1-2.068-.919,3.679,3.679,0,0,1-.919-2,21.245,21.245,0,0,1-.2-3.217V26.11h6.335V18.593H65.392V5.66H56.628V37.8a28.894,28.894,0,0,0,.689,6.86,9.6,9.6,0,0,0,2.331,4.4,9.374,9.374,0,0,0,4.267,2.4,25.489,25.489,0,0,0,6.663.722Zm50.155-.328V3.1h-8.764V51.844ZM48.192,21.875c-2.429-2.626-5.843-3.939-10.175-3.939a12.731,12.731,0,0,0-5.744,1.28,12.4,12.4,0,0,0-4.366,3.545l-.46.624V18.593H18.814V51.811h8.7V34.742c.1-3.118.853-5.416,2.3-6.893a7.524,7.524,0,0,1,5.547-2.363,7.158,7.158,0,0,1,5.744,2.3,9.758,9.758,0,0,1,1.9,6.368V51.811h8.83V32.97C51.868,28.243,50.621,24.5,48.192,21.875Zm60.4,13.294a18.3,18.3,0,0,0-1.247-6.729,18.014,18.014,0,0,0-3.512-5.482,16,16,0,0,0-5.416-3.676,17.761,17.761,0,0,0-6.959-1.313,17.266,17.266,0,0,0-6.762,1.346,17.674,17.674,0,0,0-5.482,3.676,17.122,17.122,0,0,0-3.676,5.482,16.7,16.7,0,0,0-1.346,6.762A17.833,17.833,0,0,0,75.469,42a16.868,16.868,0,0,0,3.578,5.482,16.388,16.388,0,0,0,5.547,3.676,18.13,18.13,0,0,0,7.123,1.379A18.816,18.816,0,0,0,106.488,46l-6.3-4.792a11.5,11.5,0,0,1-8.4,3.709,9.9,9.9,0,0,1-6.04-1.707,8.428,8.428,0,0,1-3.151-4.628l-.1-.3h26.1Zm-26.03-3.053c0-2.429,2.79-6.663,8.8-6.7,6.007,0,8.83,4.234,8.83,6.663Zm49.3,15.526a3.254,3.254,0,0,0-1.707-1.707,3.267,3.267,0,0,0-1.247-.263,3.142,3.142,0,0,0-1.247.263,3.254,3.254,0,0,0-1.707,1.707,3.268,3.268,0,0,0-.263,1.247,3.142,3.142,0,0,0,.263,1.247,3.254,3.254,0,0,0,1.707,1.707,3.267,3.267,0,0,0,1.247.263,3.142,3.142,0,0,0,1.247-.263,3.254,3.254,0,0,0,1.707-1.707,3.094,3.094,0,0,0,0-2.495Zm-.525,2.3a2.489,2.489,0,0,1-1.411,1.411,2.721,2.721,0,0,1-1.05.2,2.843,2.843,0,0,1-1.05-.2,2.489,2.489,0,0,1-1.411-1.411,2.721,2.721,0,0,1-.2-1.05,2.843,2.843,0,0,1,.2-1.05,2.489,2.489,0,0,1,1.411-1.411,2.721,2.721,0,0,1,1.05-.2,2.843,2.843,0,0,1,1.05.2,2.489,2.489,0,0,1,1.411,1.411,2.9,2.9,0,0,1,0,2.1Zm-1.838-.755a1.016,1.016,0,0,0,.624-.3.967.967,0,0,0,.263-.722,1,1,0,0,0-.328-.821,1.413,1.413,0,0,0-.985-.3h-1.444v3.709h.689v-1.51h.492l.919,1.51h.722Zm-.361-.558h-.821v-1.05h.821a.958.958,0,0,1,.3.066.336.336,0,0,1,.2.164c.066.066.066.164.066.3a.655.655,0,0,1-.066.3.871.871,0,0,1-.2.164.958.958,0,0,1-.3.066Z" transform="translate(3482.989 -6276.816)" fill="#00c7fd"/>
  </g>
</svg>
