<svg id="nvidia" xmlns="http://www.w3.org/2000/svg" width="107.487" height="79.145" viewBox="0 0 107.487 79.145">
  <path id="Path_206766" data-name="Path 206766" d="M141.924,242.9a1.846,1.846,0,0,1-1.849,1.927v-.007a1.924,1.924,0,1,1,1.849-1.92Zm.75,0a2.606,2.606,0,1,0-2.6,2.5,2.467,2.467,0,0,0,2.6-2.5m-3.031.212h.278l.645,1.132h.708l-.714-1.18a.639.639,0,0,0,.673-.7c0-.618-.426-.816-1.147-.816h-1.043v2.7h.6v-1.132m0-.456v-.649h.417c.227,0,.536.018.536.3,0,.3-.16.354-.428.354h-.526m-14.476-13.543,3.241,8.867h-6.583l3.341-8.867Zm-3.471-3.453-7.469,18.925H119.5l1.181-3.344h8.839l1.118,3.344h5.726l-7.525-18.927Zm-15,18.932h5.351V225.657H106.7ZM69.553,225.655l-4.464,15.009-4.277-15.008H55.038l6.108,18.939h7.709l6.157-18.939Zm21.63,4.124h2.3c3.336,0,5.495,1.5,5.495,5.385s-2.158,5.386-5.495,5.386h-2.3V229.779Zm-5.306-4.124v18.939h8.675c4.622,0,6.132-.768,7.763-2.492,1.153-1.21,1.9-3.866,1.9-6.769a11.241,11.241,0,0,0-1.731-6.516c-1.982-2.645-4.837-3.162-9.1-3.162Zm-50.689-.026v18.965h5.4v-14.4h4.181a3.931,3.931,0,0,1,3.038,1.057c.846.9,1.191,2.355,1.191,5.014v8.327h5.229V234.116c0-7.478-4.767-8.487-9.431-8.487Zm42.077.026,0,18.939h5.349V225.655Z" transform="translate(-35.188 -166.262)"/>
  <path id="Path_206767" data-name="Path 206767" d="M64.558,53.2a28.762,28.762,0,0,1,20.624-11.2V38.307c-15.221,1.222-28.4,14.114-28.4,14.114S64.246,74,85.182,75.977V72.062C69.818,70.129,64.558,53.2,64.558,53.2ZM85.182,64.274V67.86C73.571,65.79,70.348,53.72,70.348,53.72a25.108,25.108,0,0,1,14.835-7.178v3.935l-.018,0c-4.86-.583-8.656,3.957-8.656,3.957s2.128,7.643,8.674,9.842m0-32.762v6.795c.447-.034.894-.063,1.343-.079,17.3-.583,28.579,14.192,28.579,14.192s-12.95,15.747-26.441,15.747a19.877,19.877,0,0,1-3.481-.307v4.2a22.949,22.949,0,0,0,2.9.187c12.555,0,21.634-6.412,30.425-14,1.458,1.167,7.425,4.007,8.652,5.25-8.359,7-27.84,12.64-38.884,12.64-1.065,0-2.087-.065-3.092-.161v5.9H132.9V31.512H85.182Zm0,15.03v-4.55c.442-.031.888-.055,1.343-.069,12.444-.391,20.607,10.693,20.607,10.693S98.315,64.861,88.861,64.861a11.452,11.452,0,0,1-3.679-.588v-13.8c4.844.585,5.819,2.725,8.732,7.58l6.478-5.462s-4.728-6.2-12.7-6.2a23.321,23.321,0,0,0-2.51.148" transform="translate(-50.177 -31.512)" fill="#77b900"/>
</svg>
