<svg xmlns="http://www.w3.org/2000/svg" width="148.762" height="27.318" viewBox="0 0 148.762 27.318">
  <g id="Group_101944" data-name="Group 101944" transform="translate(-3501.348 5153.293)">
    <path id="Qualcomm-Logo" d="M40.152,7.84a.741.741,0,0,1,.74.74V22.724a.75.75,0,0,1-.74.721H38.234a.713.713,0,0,1-.721-.683v-1.31a5.8,5.8,0,0,1-5.069,2.411c-4.063,0-6.569-2.7-6.569-6.7V8.543a.75.75,0,0,1,.74-.721h1.917a.721.721,0,0,1,.721.721v8.068c0,2.6,1.367,4.328,4.063,4.328a3.981,3.981,0,0,0,4.2-4.29V8.543a.747.747,0,0,1,.721-.721h1.917M11.865,0A11.739,11.739,0,0,0,0,11.922,11.728,11.728,0,0,0,11.865,23.844a12.041,12.041,0,0,0,3.227-.437l1.291,3.322a.844.844,0,0,0,.873.589h2.05c.494,0,.854-.323.626-.949l-1.671-4.347A11.789,11.789,0,0,0,23.73,11.9,11.735,11.735,0,0,0,11.865,0m5.164,18.851-1.5-3.892a.957.957,0,0,0-.968-.626H12.606a.64.64,0,0,0-.645.949l1.974,5.107a8.133,8.133,0,0,1-2.069.247c-4.8,0-8.22-3.778-8.22-8.714s3.417-8.714,8.22-8.714,8.22,3.778,8.22,8.714a8.85,8.85,0,0,1-3.056,6.929m131.675,3.8a.524.524,0,0,1-.513.778h-2.145a.839.839,0,0,1-.854-.589l-3.968-10.669L137.2,22.838a.846.846,0,0,1-.854.589h-1.917a.846.846,0,0,1-.854-.589L129.51,12.112,125.5,22.838a.869.869,0,0,1-.854.589h-2.012a.869.869,0,0,1-.854-.589l-3.968-10.726-4.1,10.726a.846.846,0,0,1-.854.589h-1.917a.846.846,0,0,1-.854-.589l-4.006-10.726-4.006,10.726a.839.839,0,0,1-.854.589H99.136a.522.522,0,0,1-.513-.778l5.429-14.2a.881.881,0,0,1,.854-.626h2.335a.858.858,0,0,1,.854.626l3.911,10.365L115.88,8.448a.881.881,0,0,1,.854-.626h2.3a.858.858,0,0,1,.854.626l3.835,10.365,3.835-10.365a.881.881,0,0,1,.854-.626h2.316a.858.858,0,0,1,.854.626l3.892,10.365,3.8-10.365a.881.881,0,0,1,.854-.626h2.335a.858.858,0,0,1,.854.626l5.392,14.2M58.737,7.84H56.82a.741.741,0,0,0-.74.74V9.872a6.089,6.089,0,0,0-5.107-2.506,7.9,7.9,0,0,0-7.859,8.22,7.909,7.909,0,0,0,7.84,8.258A6.188,6.188,0,0,0,56.1,21.338v1.367a.75.75,0,0,0,.74.721h1.917a.721.721,0,0,0,.721-.721V8.581a.754.754,0,0,0-.74-.74m-7.4,12.89a4.854,4.854,0,0,1-4.784-5.107,4.792,4.792,0,1,1,9.568,0,4.878,4.878,0,0,1-4.784,5.107m30.28.494a.7.7,0,0,1-.171,1.082,8.287,8.287,0,0,1-5.012,1.557,7.836,7.836,0,0,1-8.068-8.22c0-4.67,3.227-8.258,8.068-8.258a8.328,8.328,0,0,1,5.012,1.557.712.712,0,0,1,.171,1.082L80.7,11.3c-.361.494-.778.361-1.139.133a5.856,5.856,0,0,0-3.018-.949c-2.829,0-4.708,2.278-4.708,5.164s1.879,5.145,4.708,5.145a5.769,5.769,0,0,0,2.962-.949c.361-.19.74-.361,1.139.171l.968,1.215ZM90.65,7.4a8.108,8.108,0,0,0-8.182,8.22,8.182,8.182,0,1,0,16.364,0A8.108,8.108,0,0,0,90.65,7.4m0,13.308a4.822,4.822,0,0,1-4.784-5.069,4.792,4.792,0,1,1,9.568,0,4.81,4.81,0,0,1-4.784,5.069M65.458.418a.737.737,0,0,1,.721.74V22.686a.713.713,0,0,1-.721.74H63.54a.767.767,0,0,1-.74-.74V1.177a.767.767,0,0,1,.74-.74h1.917" transform="translate(3501.348 -5153.293)" fill="#3253dc"/>
  </g>
</svg>
