<svg xmlns="http://www.w3.org/2000/svg" width="126.211" height="30.102" viewBox="0 0 126.211 30.102">
  <path id="amd-logo-1" d="M29.642,28.1h-7L20.5,22.936H8.835L6.884,28.1H0L10.518,2.016h7.535ZM14.381,8.249,10.556,18.384h8.032ZM55.068,2.016h5.661V28.1h-6.5V11.807l-7.038,8.184h-.994l-7.037-8.184V28.1h-6.5V2.016h5.661l8.376,9.677Zm22.137,0c9.523,0,14.418,5.928,14.418,13.08,0,7.5-4.742,13.006-15.145,13.006H65.692V2.016Zm-5.011,21.3H76.44c6.54,0,8.491-4.438,8.491-8.263,0-4.475-2.41-8.261-8.568-8.261H72.195V23.32ZM104.561,8.2,96.362,0h29.849V29.85l-8.2-8.2V8.2Zm-.01,1.643L96.11,18.285V30.1h11.815l8.441-8.441H104.551Z"/>
</svg>
