<svg xmlns="http://www.w3.org/2000/svg" width="55.624" height="56.311" viewBox="0 0 55.624 56.311"><defs><style>.a{fill:#fff;}.b{fill:#5fb858;}</style></defs><rect class="a" width="55.624" height="39.29" rx="4" transform="translate(0 0)"/><circle class="b" cx="4.905" cy="4.905" r="4.905" transform="translate(0.098 46.5)"/><circle class="a" cx="4.905" cy="4.905" r="4.905" transform="translate(15.304 46.5)"/><circle class="b" cx="4.905" cy="4.905" r="4.905" transform="translate(30.51 46.5)"/><circle class="a" cx="4.905" cy="4.905" r="4.905" transform="translate(45.715 46.5)"/><g transform="translate(6.982 11.462)"><circle class="b" cx="4.905" cy="4.905" r="4.905" transform="translate(2.436 0)"/><path class="b" d="M577,825.7v-1.373s-2.224.491-2.224-2.583V810.558a2.256,2.256,0,0,1,2.256-2.256h2.878l.9,1.84a.468.468,0,0,0,.837.008l.947-1.849h12.884a2.322,2.322,0,0,1,2.322,2.322h0a2.322,2.322,0,0,1-2.322,2.322h-9.189V825.7Z" transform="translate(-574.778 -797.87)"/></g></svg>