<svg xmlns="http://www.w3.org/2000/svg" width="56.213" height="55.827" viewBox="0 0 56.213 55.827"><defs><style>.a{fill:#5fb858;}.b{fill:#fefefe;}</style></defs><g transform="translate(0 0)"><path class="a" d="M856.329,411.853H810a4.945,4.945,0,0,0-4.944,4.944v10.315h56.213V416.8A4.945,4.945,0,0,0,856.329,411.853Zm-34.892,12.269a3.826,3.826,0,1,1,3.826-3.826A3.825,3.825,0,0,1,821.437,424.122Zm23.459,0a3.826,3.826,0,1,1,3.826-3.826A3.828,3.828,0,0,1,844.9,424.122Z" transform="translate(-805.06 -408.7)"/><path class="b" d="M861.273,465.568v30.518a4.945,4.945,0,0,1-4.944,4.944H810a4.945,4.945,0,0,1-4.944-4.944V465.568Z" transform="translate(-805.06 -445.203)"/><g transform="translate(14.294 23.476)"><g transform="translate(0 0)"><g transform="translate(5.471 5.471)"><circle class="a" cx="8.341" cy="8.341" r="8.341"/></g><g transform="translate(12.797)"><g transform="translate(0 23.604)"><path class="a" d="M890.79,551.354a1.014,1.014,0,0,1-1.015-1.015v-1.992a1.015,1.015,0,1,1,2.029,0v1.992A1.014,1.014,0,0,1,890.79,551.354Z" transform="translate(-889.775 -547.333)"/></g><path class="a" d="M890.79,481.559a1.015,1.015,0,0,1-1.015-1.015v-1.991a1.015,1.015,0,0,1,2.029,0v1.991A1.015,1.015,0,0,1,890.79,481.559Z" transform="translate(-889.775 -477.539)"/></g><g transform="translate(3.748 3.748)"><g transform="translate(0 16.691)"><path class="a" d="M864.032,541.412a1.015,1.015,0,0,1-.718-1.732l1.408-1.408a1.014,1.014,0,0,1,1.435,1.435l-1.408,1.408A1.011,1.011,0,0,1,864.032,541.412Z" transform="translate(-863.018 -537.975)"/></g><g transform="translate(16.69)"><path class="a" d="M913.384,492.06a1.015,1.015,0,0,1-.717-1.732l1.408-1.408a1.015,1.015,0,0,1,1.435,1.435l-1.408,1.408A1.011,1.011,0,0,1,913.384,492.06Z" transform="translate(-912.369 -488.622)"/></g></g><g transform="translate(0 12.797)"><path class="a" d="M854.94,517.409h-1.991a1.015,1.015,0,0,1,0-2.029h1.991a1.015,1.015,0,0,1,0,2.029Z" transform="translate(-851.934 -515.38)"/><g transform="translate(23.604)"><path class="a" d="M924.735,517.409h-1.991a1.015,1.015,0,0,1,0-2.029h1.991a1.015,1.015,0,0,1,0,2.029Z" transform="translate(-921.729 -515.38)"/></g></g><g transform="translate(3.748 3.748)"><path class="a" d="M865.44,492.06a1.011,1.011,0,0,1-.717-.3l-1.408-1.408a1.015,1.015,0,1,1,1.435-1.435l1.408,1.408a1.015,1.015,0,0,1-.717,1.732Z" transform="translate(-863.018 -488.622)"/><g transform="translate(16.69 16.691)"><path class="a" d="M914.792,541.412a1.012,1.012,0,0,1-.717-.3l-1.408-1.408a1.015,1.015,0,0,1,1.435-1.435l1.408,1.408a1.015,1.015,0,0,1-.717,1.732Z" transform="translate(-912.369 -537.975)"/></g></g></g></g><g transform="translate(14.296 0)"><path class="b" d="M849.675,402.012v11.6a2.083,2.083,0,0,0,4.166,0v-11.6Z" transform="translate(-849.675 -402.012)"/></g><g transform="translate(37.753 0)"><path class="b" d="M922.88,402.012v11.6a2.083,2.083,0,0,0,4.166,0v-11.6Z" transform="translate(-922.88 -402.012)"/></g></g></svg>