<svg xmlns="http://www.w3.org/2000/svg" xmlns:xlink="http://www.w3.org/1999/xlink" width="56.039" height="56.039" viewBox="0 0 56.039 56.039">
  <defs>
    <filter id="Ellipse_1469" x="0" y="0" width="56.039" height="56.039" filterUnits="userSpaceOnUse">
      <feOffset input="SourceAlpha"/>
      <feGaussianBlur stdDeviation="3" result="blur"/>
      <feFlood flood-opacity="0.161"/>
      <feComposite operator="in" in2="blur"/>
      <feComposite in="SourceGraphic"/>
    </filter>
    <filter id="Ellipse_1469-2" x="0" y="0" width="56.039" height="56.039" filterUnits="userSpaceOnUse">
      <feOffset dy="3" input="SourceAlpha"/>
      <feGaussianBlur stdDeviation="3" result="blur-2"/>
      <feFlood flood-opacity="0.161" result="color"/>
      <feComposite operator="out" in="SourceGraphic" in2="blur-2"/>
      <feComposite operator="in" in="color"/>
      <feComposite operator="in" in2="SourceGraphic"/>
    </filter>
  </defs>
  <g id="Group_93563" data-name="Group 93563" transform="translate(9 9)">
    <g data-type="innerShadowGroup">
      <g transform="matrix(1, 0, 0, 1, -9, -9)" filter="url(#Ellipse_1469)">
        <circle id="Ellipse_1469-3" data-name="Ellipse 1469" cx="19.019" cy="19.019" r="19.019" transform="translate(9 9)" fill="#5fb858"/>
      </g>
      <g transform="matrix(1, 0, 0, 1, -9, -9)" filter="url(#Ellipse_1469-2)">
        <circle id="Ellipse_1469-4" data-name="Ellipse 1469" cx="19.019" cy="19.019" r="19.019" transform="translate(9 9)" fill="#fff"/>
      </g>
    </g>
    <path id="brightest" d="M12.887,9.665a3.222,3.222,0,1,0,3.222,3.222A3.218,3.218,0,0,0,12.887,9.665Zm0-2.149a2.152,2.152,0,0,0,2.149-2.149V2.145a2.149,2.149,0,0,0-4.3,0V5.371a2.15,2.15,0,0,0,2.149,2.144Zm0,10.743a2.152,2.152,0,0,0-2.149,2.149V23.63a2.149,2.149,0,0,0,4.3,0V20.408A2.152,2.152,0,0,0,12.887,18.259Zm10.738-7.521H20.4a2.149,2.149,0,1,0,0,4.3h3.222a2.149,2.149,0,0,0,0-4.3ZM7.516,12.887a2.152,2.152,0,0,0-2.149-2.149H2.145a2.149,2.149,0,0,0,0,4.3H5.371a2.15,2.15,0,0,0,2.144-2.149Zm12.208,3.8a2.15,2.15,0,1,0-3.041,3.041L18.963,22A2.147,2.147,0,1,0,22,18.968ZM6.051,9.091A2.15,2.15,0,1,0,9.092,6.05L6.811,3.775A2.147,2.147,0,0,0,3.775,6.811L6.05,9.091Zm13.673,0L22,6.811a2.147,2.147,0,1,0-3.036-3.036l-2.28,2.28a2.147,2.147,0,1,0,3.036,3.036ZM6.051,16.683l-2.276,2.28A2.147,2.147,0,0,0,6.811,22l2.28-2.28A2.148,2.148,0,1,0,6.05,16.683Z" transform="translate(6.132 6.129)" fill="#fff"/>
  </g>
</svg>